<svg id="Layer_1" data-name="Layer 1" xmlns="http://www.w3.org/2000/svg" width="300" height="75" viewBox="0 0 300 75"><defs><style>.cls-1{fill:#633922;}</style></defs><title>info_skilt_countdown</title><path class="cls-1" d="M49.76,4.42v17L40.4,34h.68q9.21,0,9.22,16.36,0,12.36-2.76,17.09t-9.92,4.74q-12.87,0-12.87-18.36a85.76,85.76,0,0,1,.54-9.62h8.33v1q0,8.15,3.42,8.15,3.26,0,3.26-7,0-7.43-3.21-7.18a3,3,0,0,0-2.25,1.76l-4.29-3.47,12.19-16H33.62v6.3H26V4.42Z"/><path class="cls-1" d="M124.81,45.73V71.07H99.7V64q0-17.73,9.41-26.57,6.58-6.2,6.58-10.64,0-5.08-3-5.08-3.23,0-3.22,5.47a27.67,27.67,0,0,0,.44,4.3h-8.29c-.32-4.27-.48-7.78-.48-10.55q0-17.53,12.09-17.53T125.34,22.1q0,13.33-8.28,19.38-7.52,5.48-8.19,12.41h7.6V45.73Z"/><path class="cls-1" d="M192.69,4.42V53.25h3.76V71.07H179.87V53.25h3.51V24.59h-3.51v-15q6.09,0,8.09-5.13Z"/><path class="cls-1" d="M275.2,21.76V52.62q0,19.53-12.29,19.53-7.85,0-10.45-3.88t-2.61-15.65V24.1q0-20.75,13-20.75Q275.2,3.35,275.2,21.76Zm-16,7.27V47.88l.15,2.34c.29,2.06,1.33,3.08,3.12,3.08,2.3,0,3.46-2.7,3.46-8.1V29l-.05-2.73c0-3.52-1.09-5.27-3.27-5.27S259.16,23.69,259.16,29Z"/></svg>
