<?xml version="1.0" encoding="utf-8"?>
<!-- Generator: Adobe Illustrator 22.1.0, SVG Export Plug-In . SVG Version: 6.00 Build 0)  -->
<svg version="1.1" xmlns="http://www.w3.org/2000/svg" xmlns:xlink="http://www.w3.org/1999/xlink" x="0px" y="0px"
	 viewBox="0 0 350 150" style="enable-background:new 0 0 350 150;" xml:space="preserve">
<style type="text/css">
	.st0{display:none;}
	.st1{display:inline;}
	.st2{fill:#FFFFFF;}
</style>
<g id="Layer_1">
	<g>
		<g>
			<path d="M123.4,69.3c-0.6-5.2-1.3-11.1-3.6-15.8c-0.8-1.5-1.7-2.9-2.6-4.4c-2.9-4.7-3.9-11-7.5-15.1c-3.1-3.5-7.7-4.6-12.1-5.5
				c-6.6-1.4-10.3-2.1-15.8-6.2c-4-3-9-4.2-14-4.4c-10.8-0.5-18.3,8-28.6,9.1c-5.7,0.6-11-0.4-13.3,6.4c-2,5.9,3,13,0.9,18.7
				c-2.1,5.7-9.2,4.5-12.6,8.9C11.1,64.9,8.9,73.2,9.8,78c2,11.2,12.6,19.5,18,28.9c2.9,5,4.8,8.2,10.2,10.7
				c6.2,2.9,10.5,3.2,17.1,4.1c10.1,1.4,33.9,9.6,41-1.2c2-3.1,1.1-6.9,3-9.9c1.8-2.7,6.8-4.9,9.5-6.4c8.9-5,11.1-5.3,13.3-15.7
				c1.3-6.1,2.2-12.3,1.5-18.5C123.4,69.9,123.4,69.6,123.4,69.3z M77.5,83.4c-5,1.1-10.5,1.9-15.1,4.1c-4.3,2.1-7.8,5.7-12.5,7.7
				c-2.8-3.1-0.4-11.7-0.7-15.9c-0.7-10.2-0.8-20.2-0.6-30.3c7.4,4.6,18.5,8.4,27.8,12.8c9.6,4.6,18.5,10.2,28.3,14.1
				C95.7,78.7,86.8,81.3,77.5,83.4z"/>
		</g>
		<g>
			<path d="M183.4,84.4c0,3.9-1,7.3-2.9,10.4c-1.9,3.1-4.7,5.5-8.4,7.2c-3.7,1.7-8.1,2.6-13.2,2.6c-6.1,0-11.1-1.2-15.1-3.6
				c-2.8-1.7-5.1-4-6.8-6.8c-1.8-2.9-2.6-5.6-2.6-8.3c0-1.6,0.5-2.9,1.6-4c1.1-1.1,2.4-1.7,4-1.7c1.3,0,2.4,0.4,3.3,1.3
				c0.9,0.9,1.7,2.2,2.3,3.9c0.8,2,1.6,3.7,2.5,5.1c0.9,1.4,2.2,2.5,3.9,3.4c1.7,0.9,3.8,1.3,6.5,1.3c3.7,0,6.7-0.9,9-2.7
				c2.3-1.8,3.5-4,3.5-6.7c0-2.1-0.6-3.8-1.9-5.1c-1.2-1.3-2.9-2.3-4.8-3s-4.6-1.4-7.9-2.2c-4.4-1.1-8.2-2.3-11.1-3.8
				c-3-1.4-5.4-3.4-7.1-5.9c-1.8-2.5-2.6-5.6-2.6-9.2c0-3.5,0.9-6.6,2.8-9.3c1.9-2.7,4.5-4.8,8-6.3c3.5-1.5,7.6-2.2,12.4-2.2
				c3.8,0,7.1,0.5,9.8,1.5c2.8,1,5.1,2.3,6.9,3.9c1.8,1.6,3.2,3.3,4,5.1c0.8,1.8,1.3,3.5,1.3,5.2c0,1.5-0.5,2.9-1.6,4.1
				c-1.1,1.2-2.4,1.8-3.9,1.8c-1.4,0-2.5-0.4-3.3-1.1c-0.7-0.7-1.6-1.9-2.4-3.6c-1.1-2.4-2.5-4.3-4-5.6c-1.6-1.3-4.1-2-7.6-2
				c-3.2,0-5.8,0.7-7.8,2.2c-2,1.5-3,3.2-3,5.3c0,1.3,0.3,2.4,1,3.3c0.7,0.9,1.6,1.7,2.8,2.4c1.2,0.7,2.4,1.2,3.6,1.6
				c1.2,0.4,3.2,0.9,6,1.7c3.5,0.8,6.6,1.8,9.5,2.8c2.8,1,5.2,2.2,7.2,3.7c2,1.4,3.5,3.3,4.6,5.5C182.9,78.5,183.4,81.2,183.4,84.4z
				"/>
			<path d="M193.9,57.4h1.3v-7.1c0-1.9,0-3.4,0.1-4.5c0.1-1.1,0.4-2,0.8-2.8c0.4-0.8,1.1-1.5,1.9-2c0.8-0.5,1.8-0.8,2.8-0.8
				c1.5,0,2.8,0.6,4,1.7c0.8,0.8,1.3,1.7,1.5,2.8c0.2,1.1,0.3,2.6,0.3,4.6v8.1h4.2c1.6,0,2.9,0.4,3.7,1.2c0.9,0.8,1.3,1.8,1.3,3.1
				c0,1.6-0.6,2.7-1.8,3.3c-1.2,0.6-3,1-5.2,1h-2.1v21.8c0,1.9,0.1,3.3,0.2,4.3c0.1,1,0.5,1.8,1,2.4c0.5,0.6,1.4,0.9,2.7,0.9
				c0.7,0,1.6-0.1,2.7-0.4c1.2-0.2,2-0.4,2.7-0.4c0.9,0,1.8,0.4,2.5,1.2c0.7,0.8,1.1,1.7,1.1,2.8c0,1.9-1,3.4-3,4.4
				c-2,1-4.9,1.5-8.7,1.5c-3.6,0-6.3-0.6-8.2-1.9c-1.9-1.2-3.1-3-3.6-5.2c-0.6-2.2-0.9-5.1-0.9-8.8V66h-1.5c-1.7,0-2.9-0.4-3.8-1.2
				c-0.9-0.8-1.3-1.8-1.3-3.1c0-1.2,0.5-2.3,1.4-3.1C190.8,57.8,192.1,57.4,193.9,57.4z"/>
			<path d="M252.9,97.9c-2.8,2.2-5.5,3.9-8.1,5c-2.6,1.1-5.5,1.7-8.7,1.7c-2.9,0-5.5-0.6-7.8-1.8c-2.2-1.2-4-2.8-5.2-4.9
				c-1.2-2.1-1.8-4.3-1.8-6.7c0-3.2,1-6,3-8.3c2-2.3,4.7-3.8,8.2-4.6c0.7-0.2,2.5-0.6,5.4-1.2c2.9-0.6,5.4-1.2,7.4-1.7
				c2.1-0.5,4.3-1.1,6.7-1.8c-0.1-3.1-0.8-5.4-1.8-6.9c-1.1-1.5-3.3-2.2-6.7-2.2c-2.9,0-5.1,0.4-6.6,1.3c-1.5,0.8-2.7,2.1-3.8,3.8
				s-1.8,2.8-2.2,3.3c-0.4,0.5-1.4,0.8-2.8,0.8c-1.3,0-2.4-0.4-3.3-1.3c-0.9-0.9-1.4-1.9-1.4-3.3c0-2.1,0.7-4.1,2.1-6.1
				c1.4-2,3.7-3.6,6.7-4.9c3-1.3,6.8-1.9,11.3-1.9c5.1,0,9,0.6,11.9,1.8c2.9,1.2,4.9,3.2,6.1,5.8c1.2,2.7,1.8,6.2,1.8,10.6
				c0,2.8,0,5.1,0,7.1c0,1.9,0,4.1-0.1,6.5c0,2.2,0.4,4.6,1.1,7c0.7,2.4,1.1,4,1.1,4.7c0,1.2-0.6,2.3-1.7,3.3
				c-1.1,1-2.4,1.5-3.8,1.5c-1.2,0-2.3-0.6-3.5-1.7C255.4,101.7,254.1,100.1,252.9,97.9z M252.1,80.7c-1.7,0.6-4.1,1.3-7.4,2
				c-3.2,0.7-5.4,1.2-6.7,1.6c-1.2,0.3-2.4,1-3.5,2c-1.1,1-1.7,2.3-1.7,4.1c0,1.8,0.7,3.3,2,4.6c1.3,1.3,3,1.9,5.2,1.9
				c2.3,0,4.4-0.5,6.3-1.5c1.9-1,3.3-2.4,4.2-4c1-1.8,1.6-4.7,1.6-8.9V80.7z"/>
			<path d="M286.5,87.5v9.9c0,2.4-0.5,4.2-1.6,5.4c-1.1,1.2-2.5,1.8-4.2,1.8c-1.7,0-3-0.6-4.1-1.8c-1.1-1.2-1.6-3-1.6-5.4v-33
				c0-5.3,1.9-8,5.6-8c1.9,0,3.3,0.6,4.1,1.9c0.8,1.2,1.3,3.1,1.4,5.5c1.4-2.4,2.8-4.3,4.2-5.5c1.4-1.2,3.4-1.9,5.8-1.9
				c2.4,0,4.8,0.6,7,1.9c2.3,1.2,3.4,2.9,3.4,5c0,1.4-0.5,2.6-1.5,3.6c-1,0.9-2,1.4-3.1,1.4c-0.4,0-1.4-0.3-3.1-0.8
				c-1.6-0.5-3-0.8-4.3-0.8c-1.7,0-3.1,0.5-4.1,1.4c-1.1,0.9-1.9,2.3-2.5,4.1c-0.6,1.8-1,3.9-1.2,6.4
				C286.6,80.9,286.5,83.9,286.5,87.5z"/>
			<path d="M314.5,57.4h1.3v-7.1c0-1.9,0-3.4,0.1-4.5c0.1-1.1,0.4-2,0.8-2.8c0.4-0.8,1.1-1.5,1.9-2c0.8-0.5,1.8-0.8,2.8-0.8
				c1.5,0,2.8,0.6,4,1.7c0.8,0.8,1.3,1.7,1.5,2.8s0.3,2.6,0.3,4.6v8.1h4.2c1.6,0,2.9,0.4,3.7,1.2c0.9,0.8,1.3,1.8,1.3,3.1
				c0,1.6-0.6,2.7-1.8,3.3c-1.2,0.6-3,1-5.2,1h-2.1v21.8c0,1.9,0.1,3.3,0.2,4.3c0.1,1,0.5,1.8,1,2.4c0.5,0.6,1.4,0.9,2.7,0.9
				c0.7,0,1.6-0.1,2.7-0.4c1.2-0.2,2-0.4,2.7-0.4c0.9,0,1.8,0.4,2.5,1.2c0.7,0.8,1.1,1.7,1.1,2.8c0,1.9-1,3.4-3,4.4
				c-2,1-4.9,1.5-8.7,1.5c-3.6,0-6.3-0.6-8.2-1.9c-1.9-1.2-3.1-3-3.6-5.2c-0.6-2.2-0.9-5.1-0.9-8.8V66h-1.5c-1.7,0-2.9-0.4-3.8-1.2
				c-0.9-0.8-1.3-1.8-1.3-3.1c0-1.2,0.5-2.3,1.4-3.1C311.4,57.8,312.8,57.4,314.5,57.4z"/>
		</g>
	</g>
</g>
<g id="Layer_1_copy" class="st0">
	<g class="st1">
		<g>
			<path class="st2" d="M123.4,69.3c-0.6-5.2-1.3-11.1-3.6-15.8c-0.8-1.5-1.7-2.9-2.6-4.4c-2.9-4.7-3.9-11-7.5-15.1
				c-3.1-3.5-7.7-4.6-12.1-5.5c-6.6-1.4-10.3-2.1-15.8-6.2c-4-3-9-4.2-14-4.4c-10.8-0.5-18.3,8-28.6,9.1c-5.7,0.6-11-0.4-13.3,6.4
				c-2,5.9,3,13,0.9,18.7c-2.1,5.7-9.2,4.5-12.6,8.9C11.1,64.9,8.9,73.2,9.8,78c2,11.2,12.6,19.5,18,28.9c2.9,5,4.8,8.2,10.2,10.7
				c6.2,2.9,10.5,3.2,17.1,4.1c10.1,1.4,33.9,9.6,41-1.2c2-3.1,1.1-6.9,3-9.9c1.8-2.7,6.8-4.9,9.5-6.4c8.9-5,11.1-5.3,13.3-15.7
				c1.3-6.1,2.2-12.3,1.5-18.5C123.4,69.9,123.4,69.6,123.4,69.3z M77.5,83.4c-5,1.1-10.5,1.9-15.1,4.1c-4.3,2.1-7.8,5.7-12.5,7.7
				c-2.8-3.1-0.4-11.7-0.7-15.9c-0.7-10.2-0.8-20.2-0.6-30.3c7.4,4.6,18.5,8.4,27.8,12.8c9.6,4.6,18.5,10.2,28.3,14.1
				C95.7,78.7,86.8,81.3,77.5,83.4z"/>
		</g>
		<g>
			<path class="st2" d="M183.4,84.4c0,3.9-1,7.3-2.9,10.4c-1.9,3.1-4.7,5.5-8.4,7.2c-3.7,1.7-8.1,2.6-13.2,2.6
				c-6.1,0-11.1-1.2-15.1-3.6c-2.8-1.7-5.1-4-6.8-6.8c-1.8-2.9-2.6-5.6-2.6-8.3c0-1.6,0.5-2.9,1.6-4c1.1-1.1,2.4-1.7,4-1.7
				c1.3,0,2.4,0.4,3.3,1.3c0.9,0.9,1.7,2.2,2.3,3.9c0.8,2,1.6,3.7,2.5,5.1c0.9,1.4,2.2,2.5,3.9,3.4c1.7,0.9,3.8,1.3,6.5,1.3
				c3.7,0,6.7-0.9,9-2.7c2.3-1.8,3.5-4,3.5-6.7c0-2.1-0.6-3.8-1.9-5.1c-1.2-1.3-2.9-2.3-4.8-3s-4.6-1.4-7.9-2.2
				c-4.4-1.1-8.2-2.3-11.1-3.8c-3-1.4-5.4-3.4-7.1-5.9c-1.8-2.5-2.6-5.6-2.6-9.2c0-3.5,0.9-6.6,2.8-9.3c1.9-2.7,4.5-4.8,8-6.3
				c3.5-1.5,7.6-2.2,12.4-2.2c3.8,0,7.1,0.5,9.8,1.5c2.8,1,5.1,2.3,6.9,3.9c1.8,1.6,3.2,3.3,4,5.1c0.8,1.8,1.3,3.5,1.3,5.2
				c0,1.5-0.5,2.9-1.6,4.1c-1.1,1.2-2.4,1.8-3.9,1.8c-1.4,0-2.5-0.4-3.3-1.1c-0.7-0.7-1.6-1.9-2.4-3.6c-1.1-2.4-2.5-4.3-4-5.6
				c-1.6-1.3-4.1-2-7.6-2c-3.2,0-5.8,0.7-7.8,2.2c-2,1.5-3,3.2-3,5.3c0,1.3,0.3,2.4,1,3.3c0.7,0.9,1.6,1.7,2.8,2.4
				c1.2,0.7,2.4,1.2,3.6,1.6c1.2,0.4,3.2,0.9,6,1.7c3.5,0.8,6.6,1.8,9.5,2.8c2.8,1,5.2,2.2,7.2,3.7c2,1.4,3.5,3.3,4.6,5.5
				C182.9,78.5,183.4,81.2,183.4,84.4z"/>
			<path class="st2" d="M193.9,57.4h1.3v-7.1c0-1.9,0-3.4,0.1-4.5c0.1-1.1,0.4-2,0.8-2.8c0.4-0.8,1.1-1.5,1.9-2
				c0.8-0.5,1.8-0.8,2.8-0.8c1.5,0,2.8,0.6,4,1.7c0.8,0.8,1.3,1.7,1.5,2.8c0.2,1.1,0.3,2.6,0.3,4.6v8.1h4.2c1.6,0,2.9,0.4,3.7,1.2
				c0.9,0.8,1.3,1.8,1.3,3.1c0,1.6-0.6,2.7-1.8,3.3c-1.2,0.6-3,1-5.2,1h-2.1v21.8c0,1.9,0.1,3.3,0.2,4.3c0.1,1,0.5,1.8,1,2.4
				c0.5,0.6,1.4,0.9,2.7,0.9c0.7,0,1.6-0.1,2.7-0.4c1.2-0.2,2-0.4,2.7-0.4c0.9,0,1.8,0.4,2.5,1.2c0.7,0.8,1.1,1.7,1.1,2.8
				c0,1.9-1,3.4-3,4.4c-2,1-4.9,1.5-8.7,1.5c-3.6,0-6.3-0.6-8.2-1.9c-1.9-1.2-3.1-3-3.6-5.2c-0.6-2.2-0.9-5.1-0.9-8.8V66h-1.5
				c-1.7,0-2.9-0.4-3.8-1.2c-0.9-0.8-1.3-1.8-1.3-3.1c0-1.2,0.5-2.3,1.4-3.1C190.8,57.8,192.1,57.4,193.9,57.4z"/>
			<path class="st2" d="M252.9,97.9c-2.8,2.2-5.5,3.9-8.1,5c-2.6,1.1-5.5,1.7-8.7,1.7c-2.9,0-5.5-0.6-7.8-1.8
				c-2.2-1.2-4-2.8-5.2-4.9c-1.2-2.1-1.8-4.3-1.8-6.7c0-3.2,1-6,3-8.3c2-2.3,4.7-3.8,8.2-4.6c0.7-0.2,2.5-0.6,5.4-1.2
				c2.9-0.6,5.4-1.2,7.4-1.7c2.1-0.5,4.3-1.1,6.7-1.8c-0.1-3.1-0.8-5.4-1.8-6.9c-1.1-1.5-3.3-2.2-6.7-2.2c-2.9,0-5.1,0.4-6.6,1.3
				c-1.5,0.8-2.7,2.1-3.8,3.8s-1.8,2.8-2.2,3.3c-0.4,0.5-1.4,0.8-2.8,0.8c-1.3,0-2.4-0.4-3.3-1.3c-0.9-0.9-1.4-1.9-1.4-3.3
				c0-2.1,0.7-4.1,2.1-6.1c1.4-2,3.7-3.6,6.7-4.9c3-1.3,6.8-1.9,11.3-1.9c5.1,0,9,0.6,11.9,1.8c2.9,1.2,4.9,3.2,6.1,5.8
				c1.2,2.7,1.8,6.2,1.8,10.6c0,2.8,0,5.1,0,7.1c0,1.9,0,4.1-0.1,6.5c0,2.2,0.4,4.6,1.1,7c0.7,2.4,1.1,4,1.1,4.7
				c0,1.2-0.6,2.3-1.7,3.3c-1.1,1-2.4,1.5-3.8,1.5c-1.2,0-2.3-0.6-3.5-1.7C255.4,101.7,254.1,100.1,252.9,97.9z M252.1,80.7
				c-1.7,0.6-4.1,1.3-7.4,2c-3.2,0.7-5.4,1.2-6.7,1.6c-1.2,0.3-2.4,1-3.5,2c-1.1,1-1.7,2.3-1.7,4.1c0,1.8,0.7,3.3,2,4.6
				c1.3,1.3,3,1.9,5.2,1.9c2.3,0,4.4-0.5,6.3-1.5c1.9-1,3.3-2.4,4.2-4c1-1.8,1.6-4.7,1.6-8.9V80.7z"/>
			<path class="st2" d="M286.5,87.5v9.9c0,2.4-0.5,4.2-1.6,5.4c-1.1,1.2-2.5,1.8-4.2,1.8c-1.7,0-3-0.6-4.1-1.8
				c-1.1-1.2-1.6-3-1.6-5.4v-33c0-5.3,1.9-8,5.6-8c1.9,0,3.3,0.6,4.1,1.9c0.8,1.2,1.3,3.1,1.4,5.5c1.4-2.4,2.8-4.3,4.2-5.5
				c1.4-1.2,3.4-1.9,5.8-1.9c2.4,0,4.8,0.6,7,1.9c2.3,1.2,3.4,2.9,3.4,5c0,1.4-0.5,2.6-1.5,3.6c-1,0.9-2,1.4-3.1,1.4
				c-0.4,0-1.4-0.3-3.1-0.8c-1.6-0.5-3-0.8-4.3-0.8c-1.7,0-3.1,0.5-4.1,1.4c-1.1,0.9-1.9,2.3-2.5,4.1c-0.6,1.8-1,3.9-1.2,6.4
				C286.6,80.9,286.5,83.9,286.5,87.5z"/>
			<path class="st2" d="M314.5,57.4h1.3v-7.1c0-1.9,0-3.4,0.1-4.5c0.1-1.1,0.4-2,0.8-2.8c0.4-0.8,1.1-1.5,1.9-2
				c0.8-0.5,1.8-0.8,2.8-0.8c1.5,0,2.8,0.6,4,1.7c0.8,0.8,1.3,1.7,1.5,2.8s0.3,2.6,0.3,4.6v8.1h4.2c1.6,0,2.9,0.4,3.7,1.2
				c0.9,0.8,1.3,1.8,1.3,3.1c0,1.6-0.6,2.7-1.8,3.3c-1.2,0.6-3,1-5.2,1h-2.1v21.8c0,1.9,0.1,3.3,0.2,4.3c0.1,1,0.5,1.8,1,2.4
				c0.5,0.6,1.4,0.9,2.7,0.9c0.7,0,1.6-0.1,2.7-0.4c1.2-0.2,2-0.4,2.7-0.4c0.9,0,1.8,0.4,2.5,1.2c0.7,0.8,1.1,1.7,1.1,2.8
				c0,1.9-1,3.4-3,4.4c-2,1-4.9,1.5-8.7,1.5c-3.6,0-6.3-0.6-8.2-1.9c-1.9-1.2-3.1-3-3.6-5.2c-0.6-2.2-0.9-5.1-0.9-8.8V66h-1.5
				c-1.7,0-2.9-0.4-3.8-1.2c-0.9-0.8-1.3-1.8-1.3-3.1c0-1.2,0.5-2.3,1.4-3.1C311.4,57.8,312.8,57.4,314.5,57.4z"/>
		</g>
	</g>
</g>
</svg>
