<svg id="vælg_taktik" data-name="vælg taktik" xmlns="http://www.w3.org/2000/svg" width="1920" height="1080" viewBox="0 0 1920 1080"><defs><style>.cls-1{fill:#c6a279;}</style></defs><title>taktikvalg</title><path class="cls-1" d="M406.3,138.1q164.64,3.59,329.27,6.83,218.85,4.33,437.65,7.82c56.86.85,113.72,1.66,170.55,2,18.44.11,63.74-2.25,82.19-.64,12.87,1.13,36.27-3.48,44.83,8.44,6.71,9.36,7.83,23.25,10.35,34.18,4,17.41-33.05,19.28-46.55,21.27,8.83,2.37,40.76,3.26,47.15,9.92,4.12,4.29,4.72,15.68,4.5,21.84-.15,4.5-2.18,7.38-1.3,12s7,7.78,5.34,13.12c-2.77,8.83-23.65,7.31-30.78,7.85,7.87.82,21.35,2.3,27.8,6-1.66,7.42,1.61,20.19-3,25.73,15.81,8.38-7.49,15.92-14.8,17.1-24.9,4.05-84.91,5.88-110.39,5.91,24.87-.22,51.81-.48,76.39,3.17,9.06,1.35,26,3.26,33.65,7,.21,5,10.13,8.49,13.08,12.41,2.42,3.2,9.62,4.08,10.07,8.89.6,6.46-23,15.36-28.3,12.72,6.89,3.41,14.43,4.76,21.93,7.08,11.08,3.41,12.35,3.8,9,14.59-4.07,13.21-.23,20.56-.48,33.93-11.56,4.91-45.51,7.43-53.61,14,8.55.52,28.09.4,36.31,1.21s17.34,5.54,25.39,4.83c-4.63,14.44-2.43,24.52-3.54,38.13-.36,4.33-3.76,7.81-4.76,13-.71,3.7-.87,5.53,3,7.45-2.29,4.53-7.34,8.41-7.81,13.6-.1,1.1,3,6.29,3.23,8.92.19,2.17-3.24,4-2.94,5.74s2.5,4.55,2.59,5.27c1,7.74,1.55,6.07-7.64,8.71-6.75,1.94-33.62,3.81-40.36,5.8-15,4.45-30,9.08-45.2,13.07-25.22,6.64-57.11,16-82.89,7.1,29.36,10,61.15,10,91.81,9.68,15.56-.16,42-.63,57.52-.23,8.39.22,32.65.51,24.81,16.92,8.76,1.57,4.28,6.94,2.72,12.12-2.8,9.3-3.81,7,2,16.23.92,1.49.45,4.91,1.23,5.87.94,1.15,6.73,3.24,6.92,4,1,3.75-3.12,12.66-5.67,16-9.3,12.07-27.75,8.25-37.77,16.83,12,3.17,25.23.68,37.43,3.9,0,1.19.37,2.68.26,3.88a18.93,18.93,0,0,1,10,6.23c-3,3.12-1.84,6.65-4.14,9.45-2.7,3.28-7,5.34-9.92,8.36,3.62,5.47,4.58,52.28,6,52.48-9.43-1.32-14.08,7.4-23.64,6.18,13.07,5,20-3.17,25.31,11.11,12.85,34.38-17.84,23.84-40.07,25-37.2,1.9-85.28,2-122.51,1.33-74.32-1.37-148.56-5.73-222.91-5-107.28,1-214.54,3.09-321.36,8.4-80.18,4-159.5,18.66-240,19.19-13.32.09-45.43.25-58.56-2.26-6.37-1.22-13.1-2-16.59-7.6-2.36-3.77-.62-8.23-2.24-11.87-1.73-3.87-8.65-7.65-9.31-9.54-4.84-13.77,2.69-25-1.42-40,5.34-3.69,10.91-5.32,16.43-7.73-12.94-5.17-10.87-4.46-13.46-16.29-3.89-17.77-.84-34.35-3.07-52.32,8.08-4,15.75-3.29,25-3.88h.25c7.8-.55,8-12,.26-13-13.93-1.69-30.41-1.42-37.44-2.94,1.94-2.69,1.3-3.07,4.95-4.19.79-5.13-.85-9.9-.62-15,.08-1.78,2-4.11,1.82-5.91-.33-4.12-3.79-7.07-4.06-10.47-.65-8.18,4.37-14.53,2.9-23.72-2.27-14.22,4.23-21.59,7.25-35.74,12.14,2,36.27,6,45.62-2.94-14.19-4.42-27.18-11.21-41.22-15.88-13.77-4.58-18-3.57-18.52-17.93-.54-16,13.78-31.87,10.1-47.36-1.89-8-7.61-15.29-7.63-23.14,9.78.48,22.25,1.53,31.86-.76-6.65-3.17-13.58-4.87-20.2-8.07,8.72-11.79,32.13-8,43.78-16.78-10.09-8.23-26.65-9.52-38.89-12.95-6.28-1.76-24.56-5.71-26.82-11.33s2.36-19.86,2.59-26c.29-7.35.14-15.5.7-22.82,12.63-1.34,25.25-1.37,37.38-5.9-7-2.83-16.93-2.23-22.47-8.2-5.36-5.77-8-20-9-27.29,24.63,1,53.52,2.31,77.91-1-15.64-4.43-30.2-8.81-46.27-11.66-17-3-28-3.52-35.37-20.44-12.88-29.44-4.68-90.73-4.68-90.73,0,6.19,38.67-4,60.06-1.5,25.54,3,52,1.52,77.62-.67-10.32-7.21-41.42-7.64-53.27-9.09-23.55-2.88-47.27-5.07-70.36-10.76-10-2.48-23.38-3.91-32.31-9-11.21-6.36-17.16-19.68-21.29-31.3"/></svg>
