<svg id="Layer_2" data-name="Layer 2" xmlns="http://www.w3.org/2000/svg" width="125" height="115" viewBox="0 0 125 115"><defs><style>.cls-1{fill:#c6a279;}</style></defs><title>taktikvalg_knap_b</title><path d="M118.6,54.56c-.65-4.72-1.77-12.94-4.35-17.71l-.19-.09c-4.27-4.18-4.66-9.89-7.43-14.9-3.07-5.53-7.59-6.73-13.87-8.1-6.62-1.43-10.3-2.12-15.82-6.16-4-2.95-9-4.15-13.95-4.37-10.79-.49-18.32,8-28.6,9.07-5.7.58-11-.41-13.32,6.42-2,5.87,3,13,.88,18.71s-9.24,4.51-12.64,8.88C6.37,50.08,4.14,58.4,5,63.23,7,74.39,17.66,82.69,23,92.09c2.88,5,4.78,8.21,10.18,10.72,6.25,2.89,10.48,3.24,17.14,4.13,10.06,1.36,33.92,9.59,41-1.18,2-3.11,1.11-6.89,3-9.87,1.76-2.72,6.8-4.85,9.53-6.39,8.92-5,11.12-5.33,13.32-15.66C118.58,67.44,119.51,61.23,118.6,54.56Z"/><path class="cls-1" d="M37.81,29.79c.46.81,1.1,1.73,1.78,2.85a45.25,45.25,0,0,1,4.12,9.27c2.35,7,3,14.39,3,21.76,0,4,.33,8.31-.66,12-.77,2.85-5.54,8.14-4.75,10.65,2.43,7.77,22.17,4.41,27.58,3.5,9.21-1.54,17.85-5,21.81-14.15,6.71-15.55-11.15-11.6-16.61-21.2,8.44-.33,11.54-2.71,14-10.84,2.56-8.44,1.78-13-5.55-18-8-5.46-18.65-6.33-28-5a56.63,56.63,0,0,0-14.07,4.15C36.71,26.41,36.65,27.7,37.81,29.79Z"/><path d="M50.67,31.28c3.11,3.36,4.09,7.82,4.81,12.2.43,2.62-.85,7.19,3.16,7,2.22-.09,3.63-2.21,5.33-3.32A12.62,12.62,0,0,1,68.9,45.4c3.12-.58,7.28-.54,8.94-3.83,5.24-10.39-9.23-12.83-14.65-12.25C60.05,29.66,52.21,28.48,50.67,31.28Z"/><path d="M57.83,63.61a38.12,38.12,0,0,1-.32,7.63c-.54,2.5-2.34,4.59-2.72,7.16-.81,5.41,8.63,2.44,11.16,2,3.85-.6,8.44-.13,11.08-3.19,3.37-3.91,1.74-5.57-1.63-8.41a79.16,79.16,0,0,0-8.35-6.6C64.21,60.46,57.11,57.25,57.83,63.61Z"/></svg>
