<svg id="vælg_taktik" data-name="vælg taktik" xmlns="http://www.w3.org/2000/svg" width="1920" height="1080" viewBox="0 0 1920 1080"><defs><style>.cls-1{fill:#c6a279;}.cls-2{fill:#42210b;}</style></defs><title>taktikvalg</title><path class="cls-1" d="M406.3,138.1q164.64,3.59,329.27,6.83,218.85,4.33,437.65,7.82c56.86.85,113.72,1.66,170.55,2,18.44.11,63.74-2.25,82.19-.64,12.87,1.13,36.27-3.48,44.83,8.44,6.71,9.36,7.83,23.25,10.35,34.18,4,17.41-33.05,19.28-46.55,21.27,8.83,2.37,40.76,3.26,47.15,9.92,4.12,4.29,4.72,15.68,4.5,21.84-.15,4.5-2.18,7.38-1.3,12s7,7.78,5.34,13.12c-2.77,8.83-23.65,7.31-30.78,7.85,7.87.82,21.35,2.3,27.8,6-1.66,7.42,1.61,20.19-3,25.73,15.81,8.38-7.49,15.92-14.8,17.1-24.9,4.05-84.91,5.88-110.39,5.91,24.87-.22,51.81-.48,76.39,3.17,9.06,1.35,26,3.26,33.65,7,.21,5,10.13,8.49,13.08,12.41,2.42,3.2,9.62,4.08,10.07,8.89.6,6.46-23,15.36-28.3,12.72,6.89,3.41,14.43,4.76,21.93,7.08,11.08,3.41,12.35,3.8,9,14.59-4.07,13.21-.23,20.56-.48,33.93-11.56,4.91-45.51,7.43-53.61,14,8.55.52,28.09.4,36.31,1.21s17.34,5.54,25.39,4.83c-4.63,14.44-2.43,24.52-3.54,38.13-.36,4.33-3.76,7.81-4.76,13-.71,3.7-.87,5.53,3,7.45-2.29,4.53-7.34,8.41-7.81,13.6-.1,1.1,3,6.29,3.23,8.92.19,2.17-3.24,4-2.94,5.74s2.5,4.55,2.59,5.27c1,7.74,1.55,6.07-7.64,8.71-6.75,1.94-33.62,3.81-40.36,5.8-15,4.45-30,9.08-45.2,13.07-25.22,6.64-57.11,16-82.89,7.1,29.36,10,61.15,10,91.81,9.68,15.56-.16,42-.63,57.52-.23,8.39.22,32.65.51,24.81,16.92,8.76,1.57,4.28,6.94,2.72,12.12-2.8,9.3-3.81,7,2,16.23.92,1.49.45,4.91,1.23,5.87.94,1.15,6.73,3.24,6.92,4,1,3.75-3.12,12.66-5.67,16-9.3,12.07-27.75,8.25-37.77,16.83,12,3.17,25.23.68,37.43,3.9,0,1.19.37,2.68.26,3.88a18.93,18.93,0,0,1,10,6.23c-3,3.12-1.84,6.65-4.14,9.45-2.7,3.28-7,5.34-9.92,8.36,3.62,5.47,4.58,52.28,6,52.48-9.43-1.32-14.08,7.4-23.64,6.18,13.07,5,20-3.17,25.31,11.11,12.85,34.38-17.84,23.84-40.07,25-37.2,1.9-85.28,2-122.51,1.33-74.32-1.37-148.56-5.73-222.91-5-107.28,1-214.54,3.09-321.36,8.4-80.18,4-159.5,18.66-240,19.19-13.32.09-45.43.25-58.56-2.26-6.37-1.22-13.1-2-16.59-7.6-2.36-3.77-.62-8.23-2.24-11.87-1.73-3.87-8.65-7.65-9.31-9.54-4.84-13.77,2.69-25-1.42-40,5.34-3.69,10.91-5.32,16.43-7.73-12.94-5.17-10.87-4.46-13.46-16.29-3.89-17.77-.84-34.35-3.07-52.32,8.08-4,15.75-3.29,25-3.88h.25c7.8-.55,8-12,.26-13-13.93-1.69-30.41-1.42-37.44-2.94,1.94-2.69,1.3-3.07,4.95-4.19.79-5.13-.85-9.9-.62-15,.08-1.78,2-4.11,1.82-5.91-.33-4.12-3.79-7.07-4.06-10.47-.65-8.18,4.37-14.53,2.9-23.72-2.27-14.22,4.23-21.59,7.25-35.74,12.14,2,36.27,6,45.62-2.94-14.19-4.42-27.18-11.21-41.22-15.88-13.77-4.58-18-3.57-18.52-17.93-.54-16,13.78-31.87,10.1-47.36-1.89-8-7.61-15.29-7.63-23.14,9.78.48,22.25,1.53,31.86-.76-6.65-3.17-13.58-4.87-20.2-8.07,8.72-11.79,32.13-8,43.78-16.78-10.09-8.23-26.65-9.52-38.89-12.95-6.28-1.76-24.56-5.71-26.82-11.33s2.36-19.86,2.59-26c.29-7.35.14-15.5.7-22.82,12.63-1.34,25.25-1.37,37.38-5.9-7-2.83-16.93-2.23-22.47-8.2-5.36-5.77-8-20-9-27.29,24.63,1,53.52,2.31,77.91-1-15.64-4.43-30.2-8.81-46.27-11.66-17-3-28-3.52-35.37-20.44-12.88-29.44-4.68-90.73-4.68-90.73,0,6.19,38.67-4,60.06-1.5,25.54,3,52,1.52,77.62-.67-10.32-7.21-41.42-7.64-53.27-9.09-23.55-2.88-47.27-5.07-70.36-10.76-10-2.48-23.38-3.91-32.31-9-11.21-6.36-17.16-19.68-21.29-31.3"/><path class="cls-2" d="M642,223.29V242h-2.63l-7,54.45H620L612.43,242h-3.16v-18.7h16.29V242h-3.1l5.78,38,4.07-38h-4.07v-18.7Z"/><path class="cls-2" d="M689.65,223.29v29.2h-9.16V242h-7.66v13.4h9.11v7.23h-9.11v14.26h7.66v-11.1h9.16v30.66H659.43V276.88h4.23V266.8h-6.43l-2.73,10.08h3.32v19.56H643V276.88h3.49l14.36-53.59Zm-26,36V239.21l-5,20.09Z"/><path class="cls-2" d="M724.11,262.62v33.82H693.88V276.88h3.65V242h-3.65v-18.7h17.74V242h-3.86v34.89h7.18V262.62Z"/><path class="cls-2" d="M755.45,223.29v29.26h-9.64l.16-6.06q0-4.28-3.21-4.28-4.29,0-4.29,18.91,0,15.27,4.07,15.27c2.18,0,3.27-2.42,3.27-7.28V266.7h-3.38V256.09h17V266.7h-4v29.74h-4.92l-2-6.11-.32.8q-2.68,6.48-8.9,6.48-6.91,0-9.16-5.14t-2.25-20.84V250.94q0-16.83,2.3-22.83a8.63,8.63,0,0,1,8.74-6q5.79,0,7.39,4.93v-3.75Z"/><path class="cls-2" d="M826,223.29V255.6h-6.22V242H815.1v34.89h3.48v19.56H800.84V276.88h4V242h-4.93V255.6h-6.21V223.29Z"/><path class="cls-2" d="M862.47,276.88v19.56H844.73V276.88h3.8L847.41,267h-7.93l-1.18,9.92h4.12v19.56H827.63V276.88H831l7.29-53.59h13.5l7.5,53.59Zm-16.08-17.42L843.44,237l-3.05,22.5Z"/><path class="cls-2" d="M899.17,223.29V242h-3.91l-6.86,11.52,8.9,23.37h2.94v19.56H884.38V276.88h2.84L881.7,262.3l-2.52,5.15v9.43h2.52v19.56H865.41V276.88H869V242h-3.54v-18.7H881.7V242h-2.52V255.5L887.76,242h-3.38v-18.7Z"/><path class="cls-2" d="M934.59,223.29V255.6h-6.21V242h-4.72v34.89h3.48v19.56H909.41V276.88h4V242H908.5V255.6h-6.22V223.29Z"/><path class="cls-2" d="M955.28,223.29V242h-3.86v34.89h3.86v19.56H937.54V276.88h3.64V242h-3.64v-18.7Z"/><path class="cls-2" d="M993.27,223.29V242h-3.91l-6.86,11.52,8.89,23.37h3v19.56H978.48V276.88h2.84L975.8,262.3l-2.52,5.15v9.43h2.52v19.56H959.51V276.88h3.54V242h-3.54v-18.7H975.8V242h-2.52V255.5L981.85,242h-3.37v-18.7Z"/><path d="M718.09,429.57c-.65-4.72-1.77-12.95-4.34-17.71l-.2-.09c-4.27-4.18-4.66-9.89-7.43-14.9-3.06-5.53-7.58-6.73-13.87-8.1-6.61-1.43-10.3-2.12-15.82-6.16-4-2.95-9-4.15-13.95-4.37-10.79-.49-18.32,8-28.6,9.07-5.7.58-11-.41-13.31,6.42-2,5.87,3,13,.87,18.71s-9.24,4.51-12.64,8.88c-2.94,3.77-5.17,12.09-4.29,16.92,2,11.16,12.64,19.46,18,28.86,2.88,5,4.78,8.21,10.18,10.72,6.25,2.89,10.48,3.24,17.14,4.13,10.06,1.36,33.92,9.58,41-1.18,2-3.11,1.11-6.89,3-9.87,1.76-2.72,6.8-4.85,9.53-6.39,8.93-5,11.12-5.33,13.32-15.66C718.08,442.45,719,436.23,718.09,429.57Z"/><path class="cls-1" d="M655.51,397c-3.17,4.13-3.74,11.08-5.38,16-1.29,3.86-2.8,7.27-4.13,11.07-2.41,6.89-5.13,14.46-7.49,20.91-1.4,3.84-7.75,13.77-4.21,17.51,2.88,3,7.51,0,9.32-2.12,2.08-2.42,2.86-6.85,5-8.92,3.74-3.65,15-6.41,20.41-6.93,3.32,4.67,5.32,19.19,13.44,16.42,2.56-.87,5.33-5.31,5.57-8,.46-5.06-4.16-6.46-6.17-10.48-6.58-13.16-4.37-29.47-11.24-42.46-1.52-2.88-2.53-5.83-5.6-7.43C660.18,390.13,654.88,395.67,655.51,397Z"/><path d="M651.51,437c5.38.72,12.64-3.47,16.57-6.48-4.35-5.55-4.6-14.06-4.76-20.94-4.5-.48-6,11.73-6.73,14.76C655.78,427.55,650.69,435.44,651.51,437Z"/><path d="M720.1,625.56c-.64-4.72-1.77-12.94-4.34-17.71l-.2-.09c-4.26-4.18-4.65-9.89-7.43-14.9-3.06-5.53-7.58-6.73-13.86-8.1-6.62-1.43-10.31-2.12-15.82-6.16-4-3-9-4.15-14-4.37-10.79-.49-18.33,8-28.6,9.07-5.7.58-11-.41-13.32,6.42-2,5.87,3,13,.88,18.71s-9.24,4.51-12.65,8.88c-2.93,3.77-5.16,12.09-4.29,16.92,2,11.16,12.65,19.46,18,28.86,2.88,5,4.77,8.21,10.18,10.72,6.24,2.89,10.48,3.24,17.13,4.13,10.07,1.36,33.93,9.59,41-1.18,2-3.11,1.11-6.89,3-9.87,1.76-2.72,6.8-4.85,9.53-6.39,8.92-5,11.12-5.33,13.32-15.66C720.09,638.44,721,632.23,720.1,625.56Z"/><path class="cls-1" d="M639.32,600.79c.45.81,1.09,1.73,1.78,2.85a44.68,44.68,0,0,1,4.11,9.27c2.36,7,3,14.39,3,21.76,0,4,.33,8.31-.67,12-.77,2.85-5.53,8.14-4.74,10.65,2.42,7.77,22.16,4.41,27.58,3.5,9.21-1.54,17.85-5,21.81-14.15,6.71-15.55-11.15-11.6-16.61-21.2,8.44-.33,11.54-2.71,14-10.84,2.56-8.44,1.78-13-5.55-18-8-5.46-18.65-6.33-28-5a56.63,56.63,0,0,0-14.07,4.15C638.22,597.41,638.15,598.7,639.32,600.79Z"/><path d="M652.17,602.28c3.12,3.36,4.1,7.82,4.82,12.2.43,2.62-.86,7.19,3.16,7,2.22-.09,3.63-2.21,5.33-3.32a12.62,12.62,0,0,1,4.93-1.79c3.12-.58,7.28-.54,8.94-3.83,5.24-10.39-9.24-12.83-14.65-12.25C661.56,600.66,653.72,599.48,652.17,602.28Z"/><path d="M659.34,634.61a38.12,38.12,0,0,1-.32,7.63c-.54,2.5-2.34,4.59-2.72,7.16-.81,5.41,8.63,2.44,11.16,2,3.84-.6,8.44-.13,11.08-3.19,3.37-3.91,1.74-5.57-1.63-8.41a79.16,79.16,0,0,0-8.35-6.6C665.72,631.46,658.62,628.25,659.34,634.61Z"/><path d="M765.82,571.25,777.53,589V571.08a3.91,3.91,0,0,1,.75-2.61,2.53,2.53,0,0,1,2-.87,2.62,2.62,0,0,1,2.07.87,3.91,3.91,0,0,1,.76,2.61v23.65c0,2.64-1.1,4-3.28,4a4.29,4.29,0,0,1-1.48-.24,3.77,3.77,0,0,1-1.23-.75,7.37,7.37,0,0,1-1.07-1.2c-.33-.46-.65-.92-1-1.4l-11.42-17.52V595.2a3.75,3.75,0,0,1-.8,2.6,2.66,2.66,0,0,1-2.06.89,2.6,2.6,0,0,1-2.07-.9,3.82,3.82,0,0,1-.78-2.59V572a6.52,6.52,0,0,1,.33-2.32,3.3,3.3,0,0,1,1.29-1.51,3.72,3.72,0,0,1,3.36-.32,3.37,3.37,0,0,1,1,.72,6.6,6.6,0,0,1,.9,1.17Z"/><path d="M810.36,587.3a13.26,13.26,0,0,1-.78,4.62,10.21,10.21,0,0,1-2.25,3.63,10,10,0,0,1-3.53,2.33,12.51,12.51,0,0,1-4.62.81,12.24,12.24,0,0,1-4.57-.82,10.31,10.31,0,0,1-3.52-2.35,10.11,10.11,0,0,1-2.25-3.61,14.22,14.22,0,0,1,0-9.26,10.14,10.14,0,0,1,2.23-3.61,9.85,9.85,0,0,1,3.53-2.31,13.36,13.36,0,0,1,9.19,0,9.9,9.9,0,0,1,5.79,6A13.31,13.31,0,0,1,810.36,587.3Zm-5.62,0a8.37,8.37,0,0,0-1.51-5.33,4.88,4.88,0,0,0-4.05-1.9,5,5,0,0,0-2.89.85,5.34,5.34,0,0,0-1.92,2.51,10.06,10.06,0,0,0-.68,3.87,10.22,10.22,0,0,0,.66,3.84,5.6,5.6,0,0,0,1.91,2.51,5,5,0,0,0,2.92.87,4.89,4.89,0,0,0,4.05-1.91A8.36,8.36,0,0,0,804.74,587.3Z"/><path d="M819.86,579v.68a9.79,9.79,0,0,1,3.23-2.87,8.7,8.7,0,0,1,4-.91,8,8,0,0,1,4,1,6.12,6.12,0,0,1,2.61,2.72,6.58,6.58,0,0,1,.72,2.22,22.83,22.83,0,0,1,.16,3v10.42a3.75,3.75,0,0,1-.77,2.55,2.76,2.76,0,0,1-4,0,3.66,3.66,0,0,1-.78-2.52V586a9.2,9.2,0,0,0-.77-4.23,3.12,3.12,0,0,0-3.06-1.47,4.57,4.57,0,0,0-2.73.89,5.12,5.12,0,0,0-1.8,2.45,17.35,17.35,0,0,0-.41,4.68v7a3.64,3.64,0,0,1-.79,2.55,2.67,2.67,0,0,1-2,.86,2.53,2.53,0,0,1-2-.89,3.66,3.66,0,0,1-.78-2.52V579.1a3.57,3.57,0,0,1,.69-2.39,2.44,2.44,0,0,1,1.91-.79,2.59,2.59,0,0,1,1.33.35,2.46,2.46,0,0,1,1,1.05A3.65,3.65,0,0,1,819.86,579Z"/><path d="M854.13,595.53v-.72a12.21,12.21,0,0,1-2.12,2.13,7.62,7.62,0,0,1-2.42,1.28,9.76,9.76,0,0,1-3,.43,7.64,7.64,0,0,1-3.64-.85,6.12,6.12,0,0,1-2.49-2.31,10.23,10.23,0,0,1-1.05-5.13V579.27a3.62,3.62,0,0,1,.76-2.52,2.62,2.62,0,0,1,2-.83,2.66,2.66,0,0,1,2,.84,3.58,3.58,0,0,1,.78,2.51v9a13.73,13.73,0,0,0,.33,3.27,3.93,3.93,0,0,0,1.18,2.07,3.34,3.34,0,0,0,2.3.75,4.69,4.69,0,0,0,2.67-.84,5,5,0,0,0,1.83-2.2,17.82,17.82,0,0,0,.47-5.21v-6.8a3.58,3.58,0,0,1,.78-2.51,2.86,2.86,0,0,1,4,0,3.67,3.67,0,0,1,.76,2.52v16.22a3.51,3.51,0,0,1-.73,2.4,2.6,2.6,0,0,1-3.78,0A3.36,3.36,0,0,1,854.13,595.53Z"/><path d="M883.57,587.71v7.45a3.77,3.77,0,0,1-.8,2.64,2.7,2.7,0,0,1-2.11.89,2.64,2.64,0,0,1-2.06-.89,3.82,3.82,0,0,1-.79-2.64v-8.92a30.16,30.16,0,0,0-.14-3.28,3.63,3.63,0,0,0-.78-1.92,2.51,2.51,0,0,0-2-.75c-1.83,0-3,.63-3.62,1.89a13.32,13.32,0,0,0-.87,5.41v7.57a3.88,3.88,0,0,1-.79,2.63,2.64,2.64,0,0,1-2.08.9,2.67,2.67,0,0,1-2.08-.9,3.78,3.78,0,0,1-.81-2.63v-16a3.55,3.55,0,0,1,.72-2.4,2.48,2.48,0,0,1,1.92-.82,2.61,2.61,0,0,1,1.92.77,2.87,2.87,0,0,1,.77,2.12v.54a9.89,9.89,0,0,1,3.11-2.57,8.34,8.34,0,0,1,3.7-.82,7.43,7.43,0,0,1,3.63.84,6.66,6.66,0,0,1,2.5,2.55,9.77,9.77,0,0,1,3-2.56,7.81,7.81,0,0,1,3.59-.83,8.1,8.1,0,0,1,4,.91,5.73,5.73,0,0,1,2.48,2.58,11.79,11.79,0,0,1,.72,4.78v10.93a3.82,3.82,0,0,1-.8,2.64,2.71,2.71,0,0,1-2.11.89,2.67,2.67,0,0,1-2.08-.9,3.78,3.78,0,0,1-.81-2.63v-9.41a22,22,0,0,0-.16-2.9,3.3,3.3,0,0,0-.83-1.82,2.65,2.65,0,0,0-2-.74,3.72,3.72,0,0,0-2.1.66,4.34,4.34,0,0,0-1.55,1.76A14,14,0,0,0,883.57,587.71Z"/><path d="M920.73,587.71v7.45a3.77,3.77,0,0,1-.8,2.64,2.7,2.7,0,0,1-2.11.89,2.64,2.64,0,0,1-2.06-.89,3.82,3.82,0,0,1-.79-2.64v-8.92a30.16,30.16,0,0,0-.14-3.28,3.63,3.63,0,0,0-.78-1.92,2.48,2.48,0,0,0-2-.75c-1.83,0-3,.63-3.62,1.89a13.32,13.32,0,0,0-.87,5.41v7.57a3.88,3.88,0,0,1-.79,2.63,2.64,2.64,0,0,1-2.08.9,2.67,2.67,0,0,1-2.08-.9,3.78,3.78,0,0,1-.81-2.63v-16a3.55,3.55,0,0,1,.72-2.4,2.48,2.48,0,0,1,1.92-.82,2.61,2.61,0,0,1,1.92.77,2.87,2.87,0,0,1,.77,2.12v.54a9.89,9.89,0,0,1,3.11-2.57,8.34,8.34,0,0,1,3.7-.82,7.43,7.43,0,0,1,3.63.84,6.66,6.66,0,0,1,2.5,2.55,9.77,9.77,0,0,1,3-2.56,7.81,7.81,0,0,1,3.59-.83,8.1,8.1,0,0,1,4,.91,5.73,5.73,0,0,1,2.48,2.58,11.79,11.79,0,0,1,.72,4.78v10.93a3.82,3.82,0,0,1-.8,2.64,2.71,2.71,0,0,1-2.11.89,2.67,2.67,0,0,1-2.08-.9,3.78,3.78,0,0,1-.81-2.63v-9.41a22,22,0,0,0-.16-2.9,3.3,3.3,0,0,0-.83-1.82,2.65,2.65,0,0,0-2-.74,3.72,3.72,0,0,0-2.1.66,4.34,4.34,0,0,0-1.55,1.76A14,14,0,0,0,920.73,587.71Z"/><path d="M944.44,599.38l.51-1.25-6.89-17.35a6.48,6.48,0,0,1-.63-2.17,2.5,2.5,0,0,1,.37-1.33,2.8,2.8,0,0,1,2.36-1.36,2.2,2.2,0,0,1,1.82.77,7.2,7.2,0,0,1,1.09,2.21l4.73,13.78,4.5-12.82a20.73,20.73,0,0,1,1-2.44,2.93,2.93,0,0,1,.91-1.19,2.6,2.6,0,0,1,1.37-.31,2.47,2.47,0,0,1,1.22.34,2.38,2.38,0,0,1,.9.91,2.52,2.52,0,0,1,.32,1.21q-.09.39-.27,1.11a14.31,14.31,0,0,1-.45,1.46L950,600.06a22.7,22.7,0,0,1-1.85,4,6,6,0,0,1-2.39,2.2,8.67,8.67,0,0,1-4,.77,9.86,9.86,0,0,1-3.69-.53,2,2,0,0,1-1.23-2,1.91,1.91,0,0,1,.59-1.49,2.5,2.5,0,0,1,1.73-.52,3.28,3.28,0,0,1,.88.12,3.81,3.81,0,0,0,.92.13,3.34,3.34,0,0,0,1.52-.29,2.65,2.65,0,0,0,1-1A15.12,15.12,0,0,0,944.44,599.38Z"/><path d="M977.62,579v.68a9.88,9.88,0,0,1,3.23-2.87,8.73,8.73,0,0,1,4-.91,8,8,0,0,1,4,1,6.18,6.18,0,0,1,2.61,2.72,6.79,6.79,0,0,1,.71,2.22,22.59,22.59,0,0,1,.17,3v10.42a3.75,3.75,0,0,1-.77,2.55,2.76,2.76,0,0,1-4,0,3.66,3.66,0,0,1-.78-2.52V586a9.33,9.33,0,0,0-.77-4.23c-.51-1-1.53-1.47-3.07-1.47a4.56,4.56,0,0,0-2.72.89,5.14,5.14,0,0,0-1.81,2.45,17.78,17.78,0,0,0-.41,4.68v7a3.59,3.59,0,0,1-.79,2.55,2.64,2.64,0,0,1-2,.86,2.53,2.53,0,0,1-2-.89,3.66,3.66,0,0,1-.78-2.52V579.1a3.57,3.57,0,0,1,.7-2.39,2.44,2.44,0,0,1,1.91-.79,2.62,2.62,0,0,1,1.33.35,2.44,2.44,0,0,1,1,1.05A3.65,3.65,0,0,1,977.62,579Z"/><path d="M1000.74,573.32a2.94,2.94,0,0,1-2-.72,2.79,2.79,0,0,1,0-4,2.85,2.85,0,0,1,2-.77,3,3,0,0,1,1.92.7,2.48,2.48,0,0,1,.84,2,2.56,2.56,0,0,1-.82,2A2.79,2.79,0,0,1,1000.74,573.32Zm2.76,5.78v16.18a3.61,3.61,0,0,1-.8,2.55,2.66,2.66,0,0,1-2,.86,2.54,2.54,0,0,1-2-.89,3.7,3.7,0,0,1-.76-2.52v-16a3.62,3.62,0,0,1,.76-2.51,2.6,2.6,0,0,1,2-.84,2.68,2.68,0,0,1,2,.84A3.23,3.23,0,0,1,1003.5,579.1Z"/><path d="M1014.46,570.8v8.55a13.08,13.08,0,0,1,3.21-2.52,8.63,8.63,0,0,1,4.07-.87,9,9,0,0,1,4.89,1.33,8.74,8.74,0,0,1,3.26,3.83,14.18,14.18,0,0,1,1.16,6,16,16,0,0,1-.65,4.66,11.08,11.08,0,0,1-1.88,3.69,8.44,8.44,0,0,1-3,2.4,8.72,8.72,0,0,1-3.87.86,9.51,9.51,0,0,1-2.43-.31,7.47,7.47,0,0,1-1.93-.81,8.75,8.75,0,0,1-1.37-1c-.37-.35-.87-.89-1.48-1.6v.56a3.41,3.41,0,0,1-.76,2.39,2.54,2.54,0,0,1-1.93.81,2.4,2.4,0,0,1-1.9-.81,3.55,3.55,0,0,1-.71-2.39V571a4.08,4.08,0,0,1,.69-2.57,2.31,2.31,0,0,1,1.92-.87,2.44,2.44,0,0,1,2,.83A3.6,3.6,0,0,1,1014.46,570.8Zm.26,16.63a7.66,7.66,0,0,0,1.53,5.13,5,5,0,0,0,4,1.8,4.59,4.59,0,0,0,3.64-1.84,8,8,0,0,0,1.53-5.26,10.4,10.4,0,0,0-.64-3.81A5.47,5.47,0,0,0,1023,581a4.45,4.45,0,0,0-2.73-.87,4.85,4.85,0,0,0-2.85.87,5.75,5.75,0,0,0-2,2.52A9.78,9.78,0,0,0,1014.72,587.43Z"/><path d="M1041,571v8.31a12.26,12.26,0,0,1,2.08-1.95,7.55,7.55,0,0,1,2.25-1.08,9.38,9.38,0,0,1,2.65-.36,7.66,7.66,0,0,1,3.78.91,6.41,6.41,0,0,1,2.59,2.62,6.23,6.23,0,0,1,.8,2.25,17.23,17.23,0,0,1,.21,2.86v10.72a3.75,3.75,0,0,1-.77,2.55,2.61,2.61,0,0,1-2,.86q-2.77,0-2.77-3.41v-9.45a8.69,8.69,0,0,0-.8-4.13,3.13,3.13,0,0,0-3-1.45,4.54,4.54,0,0,0-2.7.85,5.15,5.15,0,0,0-1.8,2.33,14.93,14.93,0,0,0-.45,4.45v7.4a3.77,3.77,0,0,1-.75,2.53,2.57,2.57,0,0,1-2.08.88c-1.84,0-2.77-1.14-2.77-3.41V571a3.86,3.86,0,0,1,.73-2.55,2.54,2.54,0,0,1,2-.85,2.59,2.59,0,0,1,2.08.86A3.76,3.76,0,0,1,1041,571Z"/><path d="M1087,588.68h-11a7.36,7.36,0,0,0,.77,3.36,5.34,5.34,0,0,0,2,2.2,5.28,5.28,0,0,0,2.74.73,6.55,6.55,0,0,0,1.83-.23A6.14,6.14,0,0,0,1085,594a11.27,11.27,0,0,0,1.44-1.08c.44-.38,1-.9,1.7-1.55a1.83,1.83,0,0,1,1.23-.37,2,2,0,0,1,1.4.47,1.7,1.7,0,0,1,.53,1.33,3.57,3.57,0,0,1-.6,1.77,6.85,6.85,0,0,1-1.79,1.95,10.18,10.18,0,0,1-3,1.55,12.93,12.93,0,0,1-4.17.62q-5.38,0-8.39-3.08a11.48,11.48,0,0,1-3-8.35,14,14,0,0,1,.74-4.6,10.1,10.1,0,0,1,2.15-3.64,9.36,9.36,0,0,1,3.49-2.33,12.5,12.5,0,0,1,4.59-.81,10.83,10.83,0,0,1,5.63,1.39,9.07,9.07,0,0,1,3.52,3.57,9.45,9.45,0,0,1,1.17,4.48c0,1.4-.41,2.32-1.21,2.73A7.51,7.51,0,0,1,1087,588.68Zm-11-3.18h10.15a6.76,6.76,0,0,0-1.55-4.3,4.61,4.61,0,0,0-3.53-1.42,4.5,4.5,0,0,0-3.44,1.44A7.24,7.24,0,0,0,1076.08,585.5Z"/><path d="M1110.9,595.53v-.72a12.17,12.17,0,0,1-2.11,2.13,7.62,7.62,0,0,1-2.42,1.28,9.76,9.76,0,0,1-3,.43,7.61,7.61,0,0,1-3.64-.85,6.05,6.05,0,0,1-2.49-2.31,10.23,10.23,0,0,1-1-5.13V579.27a3.62,3.62,0,0,1,.76-2.52,2.59,2.59,0,0,1,2-.83,2.66,2.66,0,0,1,2,.84,3.58,3.58,0,0,1,.78,2.51v9a13.73,13.73,0,0,0,.33,3.27,3.86,3.86,0,0,0,1.18,2.07,3.34,3.34,0,0,0,2.3.75,4.71,4.71,0,0,0,2.67-.84,4.88,4.88,0,0,0,1.82-2.2,17.34,17.34,0,0,0,.48-5.21v-6.8a3.58,3.58,0,0,1,.77-2.51,2.65,2.65,0,0,1,2-.84,2.59,2.59,0,0,1,2,.83,3.62,3.62,0,0,1,.76,2.52v16.22a3.46,3.46,0,0,1-.73,2.4,2.42,2.42,0,0,1-1.87.8,2.46,2.46,0,0,1-1.9-.83A3.36,3.36,0,0,1,1110.9,595.53Z"/><path d="M1124.56,573.32a3,3,0,0,1-2-.72,2.54,2.54,0,0,1-.83-2,2.52,2.52,0,0,1,.85-2,2.88,2.88,0,0,1,2-.77,3,3,0,0,1,1.93.7,2.48,2.48,0,0,1,.84,2,2.56,2.56,0,0,1-.82,2A2.83,2.83,0,0,1,1124.56,573.32Zm2.77,5.78v16.18a3.66,3.66,0,0,1-.8,2.55,2.66,2.66,0,0,1-2,.86,2.53,2.53,0,0,1-2-.89,3.7,3.7,0,0,1-.77-2.52v-16a3.62,3.62,0,0,1,.77-2.51,2.58,2.58,0,0,1,2-.84,2.68,2.68,0,0,1,2,.84A3.27,3.27,0,0,1,1127.33,579.1Z"/><path d="M1151.14,591.37a6.5,6.5,0,0,1-4.46,6.46,14.87,14.87,0,0,1-5.36.86,13,13,0,0,1-5.17-.93,7.45,7.45,0,0,1-3.18-2.3,4.7,4.7,0,0,1-1-2.78,2.15,2.15,0,0,1,.66-1.58,2.25,2.25,0,0,1,1.66-.66,2,2,0,0,1,1.36.43,4.94,4.94,0,0,1,.9,1.21,6.08,6.08,0,0,0,2.06,2.24,6.23,6.23,0,0,0,3.27.74,4.73,4.73,0,0,0,2.76-.75,2.09,2.09,0,0,0,1.07-1.71,2.34,2.34,0,0,0-1.11-2.16,14.05,14.05,0,0,0-3.68-1.29,30.23,30.23,0,0,1-4.71-1.51,7.65,7.65,0,0,1-2.9-2.08,4.74,4.74,0,0,1-1.09-3.18,5.62,5.62,0,0,1,1-3.18,7,7,0,0,1,3-2.39,11.41,11.41,0,0,1,4.73-.89,15.53,15.53,0,0,1,3.9.45,9.78,9.78,0,0,1,2.89,1.21,6,6,0,0,1,1.77,1.69,3.28,3.28,0,0,1,.6,1.8,2.09,2.09,0,0,1-.64,1.58,2.57,2.57,0,0,1-1.84.61,2.27,2.27,0,0,1-1.47-.49,10.19,10.19,0,0,1-1.38-1.47,5,5,0,0,0-1.5-1.32,4.78,4.78,0,0,0-2.33-.49,4.59,4.59,0,0,0-2.53.65,1.87,1.87,0,0,0-1,1.61,1.72,1.72,0,0,0,.74,1.44,6,6,0,0,0,2,.94c.83.24,2,.54,3.44.9a18.1,18.1,0,0,1,4.26,1.52,7,7,0,0,1,2.5,2.08A4.59,4.59,0,0,1,1151.14,591.37Z"/><path d="M1174.5,587.71v7.45a3.82,3.82,0,0,1-.8,2.64,2.71,2.71,0,0,1-2.11.89,2.66,2.66,0,0,1-2.07-.89,3.87,3.87,0,0,1-.78-2.64v-8.92a27.38,27.38,0,0,0-.15-3.28,3.48,3.48,0,0,0-.78-1.92,2.48,2.48,0,0,0-2-.75c-1.83,0-3,.63-3.62,1.89a13.32,13.32,0,0,0-.87,5.41v7.57a3.83,3.83,0,0,1-.79,2.63,2.62,2.62,0,0,1-2.08.9,2.67,2.67,0,0,1-2.08-.9,3.78,3.78,0,0,1-.81-2.63v-16a3.5,3.5,0,0,1,.73-2.4,2.44,2.44,0,0,1,1.91-.82,2.61,2.61,0,0,1,1.92.77,2.87,2.87,0,0,1,.77,2.12v.54a9.81,9.81,0,0,1,3.12-2.57,8.33,8.33,0,0,1,3.69-.82,7.38,7.38,0,0,1,3.63.84,6.6,6.6,0,0,1,2.5,2.55,9.8,9.8,0,0,1,3-2.56,7.78,7.78,0,0,1,3.59-.83,8,8,0,0,1,4,.91,5.68,5.68,0,0,1,2.48,2.58,11.79,11.79,0,0,1,.72,4.78v10.93a3.77,3.77,0,0,1-.8,2.64,2.7,2.7,0,0,1-2.11.89,2.67,2.67,0,0,1-2.08-.9,3.78,3.78,0,0,1-.81-2.63v-9.41a22.23,22.23,0,0,0-.15-2.9,3.31,3.31,0,0,0-.84-1.82,2.65,2.65,0,0,0-2-.74,3.75,3.75,0,0,0-2.1.66,4.42,4.42,0,0,0-1.55,1.76A14,14,0,0,0,1174.5,587.71Z"/><path d="M1214,587.3a13.26,13.26,0,0,1-.78,4.62,10.1,10.1,0,0,1-2.26,3.63,9.94,9.94,0,0,1-3.53,2.33,12.42,12.42,0,0,1-4.61.81,12.2,12.2,0,0,1-4.57-.82,10.12,10.12,0,0,1-3.52-2.35,10.28,10.28,0,0,1-2.26-3.61,14.22,14.22,0,0,1,0-9.26,10.16,10.16,0,0,1,2.24-3.61,9.85,9.85,0,0,1,3.53-2.31,12.43,12.43,0,0,1,4.57-.81,12.57,12.57,0,0,1,4.61.82,10,10,0,0,1,5.8,6A13.31,13.31,0,0,1,1214,587.3Zm-5.62,0a8.43,8.43,0,0,0-1.51-5.33,4.91,4.91,0,0,0-4-1.9,5,5,0,0,0-2.89.85,5.3,5.3,0,0,0-1.93,2.51,10.25,10.25,0,0,0-.68,3.87,10,10,0,0,0,.67,3.84,5.46,5.46,0,0,0,1.91,2.51,5.28,5.28,0,0,0,7-1A8.43,8.43,0,0,0,1208.38,587.3Z"/><path d="M1233.75,595.49v-.56a14.82,14.82,0,0,1-2.23,2.11,8.29,8.29,0,0,1-2.38,1.23,8.94,8.94,0,0,1-2.8.42,8.2,8.2,0,0,1-3.72-.86,8.57,8.57,0,0,1-3-2.42,11,11,0,0,1-1.9-3.72,15.85,15.85,0,0,1-.65-4.61q0-5.25,2.57-8.18a8.5,8.5,0,0,1,6.74-2.94,9.07,9.07,0,0,1,4.08.83,11.59,11.59,0,0,1,3.25,2.56v-8.27a4.16,4.16,0,0,1,.68-2.6,2.33,2.33,0,0,1,2-.88,2.43,2.43,0,0,1,2,.81,3.59,3.59,0,0,1,.69,2.39v24.69a3.46,3.46,0,0,1-.74,2.4,2.63,2.63,0,0,1-3.81,0A3.44,3.44,0,0,1,1233.75,595.49Zm-11-8.23a9.6,9.6,0,0,0,.71,3.88,5.38,5.38,0,0,0,1.94,2.41,4.77,4.77,0,0,0,2.68.81,5,5,0,0,0,2.7-.77,5.33,5.33,0,0,0,2-2.36,9.61,9.61,0,0,0,.73-4,9.33,9.33,0,0,0-.73-3.84,5.71,5.71,0,0,0-2-2.46,4.69,4.69,0,0,0-2.72-.85,4.56,4.56,0,0,0-2.74.87,5.52,5.52,0,0,0-1.88,2.5A9.85,9.85,0,0,0,1222.73,587.26Z"/><path d="M757.8,626.82h.62v-3.37c0-.9,0-1.61.07-2.12a3,3,0,0,1,.4-1.32,2.49,2.49,0,0,1,.94-.94,2.67,2.67,0,0,1,1.37-.36,2.76,2.76,0,0,1,1.93.8,2.39,2.39,0,0,1,.73,1.31A12.08,12.08,0,0,1,764,623v3.82h2a2.61,2.61,0,0,1,1.82.56,1.84,1.84,0,0,1,.62,1.45,1.6,1.6,0,0,1-.89,1.57,5.61,5.61,0,0,1-2.55.46h-1v10.29a14.79,14.79,0,0,0,.1,2,2,2,0,0,0,.49,1.15,1.68,1.68,0,0,0,1.3.44,6.71,6.71,0,0,0,1.33-.18,7.39,7.39,0,0,1,1.32-.17,1.71,1.71,0,0,1,1.22.54,1.85,1.85,0,0,1,.54,1.35,2.25,2.25,0,0,1-1.48,2.07,9.93,9.93,0,0,1-4.24.72,7.41,7.41,0,0,1-4-.88,4.12,4.12,0,0,1-1.77-2.45,16.48,16.48,0,0,1-.42-4.16V630.86h-.74a2.68,2.68,0,0,1-1.85-.58,1.88,1.88,0,0,1-.63-1.45,1.81,1.81,0,0,1,.66-1.45A2.92,2.92,0,0,1,757.8,626.82Z"/><path d="M775.19,623.72a2.94,2.94,0,0,1-2-.72,2.54,2.54,0,0,1-.83-2,2.52,2.52,0,0,1,.85-2,2.88,2.88,0,0,1,2-.77,3,3,0,0,1,1.93.7,2.49,2.49,0,0,1,.84,2,2.56,2.56,0,0,1-.82,2A2.83,2.83,0,0,1,775.19,623.72ZM778,629.5v16.18a3.66,3.66,0,0,1-.8,2.55,2.66,2.66,0,0,1-2,.86,2.55,2.55,0,0,1-2-.88,3.75,3.75,0,0,1-.77-2.53v-16a3.62,3.62,0,0,1,.77-2.51,2.58,2.58,0,0,1,2-.84,2.68,2.68,0,0,1,2,.84A3.27,3.27,0,0,1,778,629.5Z"/><path d="M788.83,629.42v.68a9.64,9.64,0,0,1,3.23-2.86,8.58,8.58,0,0,1,4-.92,8,8,0,0,1,4,1,6.1,6.1,0,0,1,2.6,2.72,6.58,6.58,0,0,1,.72,2.22,22.83,22.83,0,0,1,.16,3v10.42a3.7,3.7,0,0,1-.77,2.55,2.57,2.57,0,0,1-2,.86,2.61,2.61,0,0,1-2-.88,3.7,3.7,0,0,1-.78-2.53v-9.33a9.35,9.35,0,0,0-.76-4.23,3.14,3.14,0,0,0-3.07-1.47,4.57,4.57,0,0,0-2.73.89,5.12,5.12,0,0,0-1.8,2.45,17.35,17.35,0,0,0-.41,4.68v7a3.68,3.68,0,0,1-.79,2.56,2.69,2.69,0,0,1-2,.85,2.56,2.56,0,0,1-2-.88,3.7,3.7,0,0,1-.78-2.53V629.5a3.52,3.52,0,0,1,.7-2.39,2.42,2.42,0,0,1,1.9-.79,2.65,2.65,0,0,1,1.34.35,2.5,2.5,0,0,1,1,1.05A3.65,3.65,0,0,1,788.83,629.42Z"/><path d="M829.19,642.16a4.8,4.8,0,0,1-.63,2.23,7.58,7.58,0,0,1-1.91,2.27,10,10,0,0,1-3.23,1.73,13.57,13.57,0,0,1-4.38.66q-5.19,0-8.1-3a11.17,11.17,0,0,1-2.92-8.11,13.32,13.32,0,0,1,1.34-6.09,9.57,9.57,0,0,1,3.85-4.09,13.06,13.06,0,0,1,10-.81,10.34,10.34,0,0,1,3.08,1.64,7.75,7.75,0,0,1,1.92,2.14,4.21,4.21,0,0,1,.67,2.12,2.26,2.26,0,0,1-.75,1.71,2.57,2.57,0,0,1-1.81.69,1.83,1.83,0,0,1-1.16-.36,5.57,5.57,0,0,1-1-1.15,8.5,8.5,0,0,0-2.14-2.34,4.86,4.86,0,0,0-2.84-.78,4.81,4.81,0,0,0-4,1.94,8.39,8.39,0,0,0-1.52,5.3,10.22,10.22,0,0,0,.39,2.9,6.75,6.75,0,0,0,1.13,2.26,4.85,4.85,0,0,0,1.78,1.41,5.48,5.48,0,0,0,2.3.48,5.17,5.17,0,0,0,2.88-.78,6.85,6.85,0,0,0,2.13-2.38,5.57,5.57,0,0,1,1.1-1.47,2.09,2.09,0,0,1,1.46-.54,2.16,2.16,0,0,1,1.7.78A2.52,2.52,0,0,1,829.19,642.16Z"/><path d="M836.9,623.72a2.94,2.94,0,0,1-2-.72,2.54,2.54,0,0,1-.83-2,2.52,2.52,0,0,1,.85-2,2.88,2.88,0,0,1,2-.77,3,3,0,0,1,1.93.7,2.49,2.49,0,0,1,.84,2,2.59,2.59,0,0,1-.82,2A2.83,2.83,0,0,1,836.9,623.72Zm2.77,5.78v16.18a3.66,3.66,0,0,1-.8,2.55,2.67,2.67,0,0,1-2,.86,2.55,2.55,0,0,1-2-.88,3.7,3.7,0,0,1-.77-2.53v-16a3.58,3.58,0,0,1,.77-2.51,2.58,2.58,0,0,1,2-.84,2.69,2.69,0,0,1,2,.84A3.27,3.27,0,0,1,839.67,629.5Z"/><path d="M860.79,645.89v-.56a13.49,13.49,0,0,1-2.23,2.11,8.36,8.36,0,0,1-2.37,1.23,9,9,0,0,1-2.8.42,8.4,8.4,0,0,1-3.73-.85,8.81,8.81,0,0,1-3-2.43,11.18,11.18,0,0,1-1.9-3.72,15.86,15.86,0,0,1-.64-4.61q0-5.25,2.56-8.18a8.52,8.52,0,0,1,6.75-2.94,9.13,9.13,0,0,1,4.08.83,11.42,11.42,0,0,1,3.24,2.56v-8.27a4.16,4.16,0,0,1,.69-2.6,2.33,2.33,0,0,1,2-.88,2.41,2.41,0,0,1,1.95.81,3.59,3.59,0,0,1,.69,2.39v24.69a3.46,3.46,0,0,1-.74,2.4,2.48,2.48,0,0,1-1.9.8,2.46,2.46,0,0,1-1.9-.83A3.44,3.44,0,0,1,860.79,645.89Zm-11-8.23a9.61,9.61,0,0,0,.7,3.88,5.44,5.44,0,0,0,1.94,2.41,4.8,4.8,0,0,0,2.69.81,5,5,0,0,0,2.7-.77,5.25,5.25,0,0,0,1.94-2.36,9.45,9.45,0,0,0,.73-4,9.17,9.17,0,0,0-.73-3.84,5.75,5.75,0,0,0-2-2.46,4.71,4.71,0,0,0-2.72-.85,4.59,4.59,0,0,0-2.75.87,5.59,5.59,0,0,0-1.88,2.5A10,10,0,0,0,849.78,637.66Z"/><path d="M886.24,645.93v-.72a12.17,12.17,0,0,1-2.11,2.13,8,8,0,0,1-2.42,1.29,9.88,9.88,0,0,1-3,.42,7.78,7.78,0,0,1-3.64-.84,6.27,6.27,0,0,1-2.49-2.32,10.24,10.24,0,0,1-1-5.13V629.67a3.67,3.67,0,0,1,.75-2.52,2.62,2.62,0,0,1,2-.83,2.68,2.68,0,0,1,2.06.84,3.58,3.58,0,0,1,.77,2.51v9a13.73,13.73,0,0,0,.33,3.27,3.93,3.93,0,0,0,1.18,2.07,3.38,3.38,0,0,0,2.31.75,4.73,4.73,0,0,0,2.67-.84,4.88,4.88,0,0,0,1.82-2.2,17.82,17.82,0,0,0,.47-5.21v-6.8a3.58,3.58,0,0,1,.78-2.51,2.65,2.65,0,0,1,2-.84,2.59,2.59,0,0,1,2,.83,3.62,3.62,0,0,1,.76,2.52v16.22a3.46,3.46,0,0,1-.73,2.4,2.42,2.42,0,0,1-1.87.8,2.46,2.46,0,0,1-1.9-.83A3.36,3.36,0,0,1,886.24,645.93Z"/><path d="M902.15,629.42v.68a9.83,9.83,0,0,1,3.23-2.86,8.61,8.61,0,0,1,4-.92,8,8,0,0,1,4,1A6.18,6.18,0,0,1,916,630a6.56,6.56,0,0,1,.71,2.22,22.59,22.59,0,0,1,.17,3v10.42a3.75,3.75,0,0,1-.77,2.55,2.57,2.57,0,0,1-2,.86,2.61,2.61,0,0,1-2-.88,3.7,3.7,0,0,1-.78-2.53v-9.33a9.33,9.33,0,0,0-.77-4.23,3.12,3.12,0,0,0-3.06-1.47,4.57,4.57,0,0,0-2.73.89,5.2,5.2,0,0,0-1.81,2.45,17.78,17.78,0,0,0-.41,4.68v7a3.63,3.63,0,0,1-.79,2.56,2.66,2.66,0,0,1-2,.85,2.57,2.57,0,0,1-2-.88,3.7,3.7,0,0,1-.78-2.53V629.5a3.57,3.57,0,0,1,.7-2.39,2.44,2.44,0,0,1,1.91-.79,2.59,2.59,0,0,1,1.33.35,2.46,2.46,0,0,1,1,1.05A3.79,3.79,0,0,1,902.15,629.42Z"/><path d="M922.74,626.82h.62v-3.37c0-.9,0-1.61.07-2.12a3.15,3.15,0,0,1,.4-1.32,2.49,2.49,0,0,1,.94-.94,2.68,2.68,0,0,1,1.38-.36,2.8,2.8,0,0,1,1.93.8,2.37,2.37,0,0,1,.72,1.31A11.07,11.07,0,0,1,929,623v3.82h2a2.58,2.58,0,0,1,1.81.56,1.85,1.85,0,0,1,.63,1.45,1.61,1.61,0,0,1-.89,1.57,5.69,5.69,0,0,1-2.56.46h-1v10.29a17,17,0,0,0,.09,2,2.12,2.12,0,0,0,.49,1.15,1.7,1.7,0,0,0,1.3.44,6.79,6.79,0,0,0,1.34-.18,7.41,7.41,0,0,1,1.31-.17,1.69,1.69,0,0,1,1.22.54,1.85,1.85,0,0,1,.54,1.35,2.25,2.25,0,0,1-1.47,2.07,10,10,0,0,1-4.25.72,7.43,7.43,0,0,1-4-.88,4.12,4.12,0,0,1-1.77-2.45,16.48,16.48,0,0,1-.42-4.16V630.86h-.74a2.65,2.65,0,0,1-1.84-.58,1.85,1.85,0,0,1-.64-1.45,1.79,1.79,0,0,1,.67-1.45A2.89,2.89,0,0,1,922.74,626.82Z"/><path d="M962.34,645.93v-.72a12.17,12.17,0,0,1-2.11,2.13,7.85,7.85,0,0,1-2.42,1.29,9.77,9.77,0,0,1-3,.42,7.72,7.72,0,0,1-3.64-.84,6.14,6.14,0,0,1-2.49-2.32,10.23,10.23,0,0,1-1.05-5.13V629.67a3.62,3.62,0,0,1,.76-2.52,2.62,2.62,0,0,1,2-.83,2.66,2.66,0,0,1,2.05.84,3.58,3.58,0,0,1,.78,2.51v9a13.73,13.73,0,0,0,.33,3.27,3.93,3.93,0,0,0,1.18,2.07,3.34,3.34,0,0,0,2.3.75,4.69,4.69,0,0,0,2.67-.84,4.88,4.88,0,0,0,1.82-2.2,17.34,17.34,0,0,0,.48-5.21v-6.8a3.58,3.58,0,0,1,.78-2.51,2.86,2.86,0,0,1,4,0,3.67,3.67,0,0,1,.75,2.52v16.22a3.51,3.51,0,0,1-.72,2.4,2.6,2.6,0,0,1-3.78,0A3.36,3.36,0,0,1,962.34,645.93Z"/><path d="M973.48,626.82h.62v-3.37c0-.9,0-1.61.07-2.12a3,3,0,0,1,.4-1.32,2.49,2.49,0,0,1,.94-.94,2.67,2.67,0,0,1,1.37-.36,2.76,2.76,0,0,1,1.93.8,2.33,2.33,0,0,1,.73,1.31,12.08,12.08,0,0,1,.15,2.18v3.82h2.06a2.6,2.6,0,0,1,1.81.56,1.85,1.85,0,0,1,.63,1.45,1.6,1.6,0,0,1-.9,1.57,5.61,5.61,0,0,1-2.55.46h-1v10.29a14.79,14.79,0,0,0,.1,2,2,2,0,0,0,.49,1.15,1.68,1.68,0,0,0,1.3.44,6.71,6.71,0,0,0,1.33-.18,7.39,7.39,0,0,1,1.32-.17,1.71,1.71,0,0,1,1.22.54,1.85,1.85,0,0,1,.54,1.35,2.25,2.25,0,0,1-1.48,2.07,9.93,9.93,0,0,1-4.24.72,7.41,7.41,0,0,1-4-.88,4.12,4.12,0,0,1-1.77-2.45,16.48,16.48,0,0,1-.42-4.16V630.86h-.74a2.7,2.7,0,0,1-1.85-.58,1.88,1.88,0,0,1-.63-1.45,1.81,1.81,0,0,1,.66-1.45A2.92,2.92,0,0,1,973.48,626.82Z"/><path d="M998.54,645.68V621.4a3.76,3.76,0,0,1,.75-2.54,2.52,2.52,0,0,1,2-.86,2.63,2.63,0,0,1,2.05.85,3.67,3.67,0,0,1,.78,2.55v24.28a3.63,3.63,0,0,1-.79,2.56,2.69,2.69,0,0,1-2,.85,2.55,2.55,0,0,1-2-.88A3.75,3.75,0,0,1,998.54,645.68Z"/><path d="M1024.07,645.93a17.57,17.57,0,0,1-3.92,2.37,11.15,11.15,0,0,1-4.26.79,8.13,8.13,0,0,1-3.78-.85,6.27,6.27,0,0,1-2.52-2.31,6,6,0,0,1-.88-3.16,5.67,5.67,0,0,1,1.46-3.92,7.27,7.27,0,0,1,4-2.17c.35-.08,1.24-.27,2.64-.55s2.62-.55,3.62-.79,2.1-.53,3.27-.88a5.76,5.76,0,0,0-.89-3.25c-.52-.69-1.61-1-3.27-1a6.92,6.92,0,0,0-3.21.59,5.15,5.15,0,0,0-1.84,1.79c-.52.79-.88,1.31-1.09,1.57a1.79,1.79,0,0,1-1.36.38,2.43,2.43,0,0,1-1.64-.61,2,2,0,0,1-.68-1.55,4.78,4.78,0,0,1,1-2.87,7.6,7.6,0,0,1,3.26-2.3,14.76,14.76,0,0,1,5.52-.9,15.59,15.59,0,0,1,5.8.87,5.39,5.39,0,0,1,3,2.76,12.11,12.11,0,0,1,.87,5c0,1.31,0,2.42,0,3.34s0,1.93,0,3a11.27,11.27,0,0,0,.52,3.3,10.43,10.43,0,0,1,.53,2.2,2.08,2.08,0,0,1-.82,1.57,2.72,2.72,0,0,1-1.83.71,2.48,2.48,0,0,1-1.7-.81A12.27,12.27,0,0,1,1024.07,645.93Zm-.37-8.1a27.63,27.63,0,0,1-3.57.95c-1.57.34-2.65.58-3.25.74a4.42,4.42,0,0,0-1.73.92,2.39,2.39,0,0,0-.82,1.92,2.8,2.8,0,0,0,1,2.16,3.54,3.54,0,0,0,2.52.9,6.58,6.58,0,0,0,3.06-.73,4.89,4.89,0,0,0,2.07-1.88,8.65,8.65,0,0,0,.75-4.18Z"/><path d="M1055.84,637.71a13.24,13.24,0,0,1-.78,4.61,10.1,10.1,0,0,1-2.26,3.63,10,10,0,0,1-3.52,2.33,12.51,12.51,0,0,1-4.62.81,12.24,12.24,0,0,1-4.57-.82,10.22,10.22,0,0,1-3.52-2.35,10.11,10.11,0,0,1-2.25-3.61,13,13,0,0,1-.77-4.6,13.36,13.36,0,0,1,.78-4.66,10.14,10.14,0,0,1,2.23-3.61,9.85,9.85,0,0,1,3.53-2.31,13.36,13.36,0,0,1,9.19,0,9.9,9.9,0,0,1,5.79,6A13.37,13.37,0,0,1,1055.84,637.71Zm-5.62,0a8.38,8.38,0,0,0-1.51-5.34,4.88,4.88,0,0,0-4-1.9,5,5,0,0,0-2.89.85,5.36,5.36,0,0,0-1.93,2.51,11.51,11.51,0,0,0,0,7.71,5.53,5.53,0,0,0,1.91,2.51,5,5,0,0,0,2.92.87,4.89,4.89,0,0,0,4-1.91A8.35,8.35,0,0,0,1050.22,637.71Z"/><path d="M1065.81,641v4.67a3.64,3.64,0,0,1-.8,2.56,2.7,2.7,0,0,1-2,.85,2.57,2.57,0,0,1-2-.86,3.71,3.71,0,0,1-.78-2.55V630.1q0-3.78,2.73-3.78a2.28,2.28,0,0,1,2,.89,4.82,4.82,0,0,1,.67,2.6,9.7,9.7,0,0,1,2.06-2.6,4.27,4.27,0,0,1,2.82-.89,7.22,7.22,0,0,1,3.43.89,2.61,2.61,0,0,1,1.66,2.33,2.21,2.21,0,0,1-.71,1.69,2.17,2.17,0,0,1-1.53.67,7.23,7.23,0,0,1-1.48-.38,7,7,0,0,0-2.08-.38,3,3,0,0,0-2,.65,4.08,4.08,0,0,0-1.21,1.92,13.1,13.1,0,0,0-.6,3C1065.86,637.9,1065.81,639.33,1065.81,641Z"/><path d="M1093.23,639.08h-11a7.49,7.49,0,0,0,.77,3.36,5.41,5.41,0,0,0,2,2.2,5.29,5.29,0,0,0,2.74.74,6.66,6.66,0,0,0,1.84-.24,6,6,0,0,0,1.61-.74,11.16,11.16,0,0,0,1.43-1.08c.44-.38,1-.9,1.7-1.55a1.83,1.83,0,0,1,1.23-.37,2,2,0,0,1,1.4.47,1.7,1.7,0,0,1,.53,1.33,3.65,3.65,0,0,1-.59,1.77,7,7,0,0,1-1.8,1.95,10.24,10.24,0,0,1-3,1.55,13,13,0,0,1-4.18.62c-3.59,0-6.39-1-8.38-3.08a11.44,11.44,0,0,1-3-8.35,14,14,0,0,1,.74-4.6,10.1,10.1,0,0,1,2.15-3.64,9.44,9.44,0,0,1,3.49-2.33,12.5,12.5,0,0,1,4.59-.81,10.81,10.81,0,0,1,5.63,1.39,9,9,0,0,1,3.52,3.58,9.38,9.38,0,0,1,1.17,4.47c0,1.4-.4,2.32-1.21,2.73A7.49,7.49,0,0,1,1093.23,639.08Zm-11-3.18h10.16a6.88,6.88,0,0,0-1.55-4.3,4.65,4.65,0,0,0-3.54-1.42,4.51,4.51,0,0,0-3.44,1.44A7.3,7.3,0,0,0,1082.27,635.9Z"/><path d="M1118.18,639.08h-11a7.49,7.49,0,0,0,.77,3.36,5.15,5.15,0,0,0,4.73,2.94,6.54,6.54,0,0,0,1.83-.24,5.84,5.84,0,0,0,1.61-.74,11.27,11.27,0,0,0,1.44-1.08c.44-.38,1-.9,1.7-1.55a1.83,1.83,0,0,1,1.23-.37,2,2,0,0,1,1.4.47,1.7,1.7,0,0,1,.53,1.33,3.65,3.65,0,0,1-.59,1.77,7,7,0,0,1-1.8,1.95,10.24,10.24,0,0,1-3,1.55,13,13,0,0,1-4.18.62q-5.39,0-8.39-3.08a11.48,11.48,0,0,1-3-8.35,14,14,0,0,1,.74-4.6,10.1,10.1,0,0,1,2.15-3.64,9.44,9.44,0,0,1,3.49-2.33,12.5,12.5,0,0,1,4.59-.81,10.81,10.81,0,0,1,5.63,1.39,9,9,0,0,1,3.52,3.58,9.38,9.38,0,0,1,1.17,4.47c0,1.4-.41,2.32-1.21,2.73A7.51,7.51,0,0,1,1118.18,639.08Zm-11-3.18h10.15a6.76,6.76,0,0,0-1.55-4.3,4.61,4.61,0,0,0-3.53-1.42,4.5,4.5,0,0,0-3.44,1.44A7.24,7.24,0,0,0,1107.23,635.9Z"/><path d="M1127.82,626.82h.62v-3.37c0-.9,0-1.61.07-2.12a3.15,3.15,0,0,1,.4-1.32,2.49,2.49,0,0,1,.94-.94,2.68,2.68,0,0,1,1.38-.36,2.76,2.76,0,0,1,1.92.8,2.33,2.33,0,0,1,.73,1.31A11.91,11.91,0,0,1,1134,623v3.82h2a2.6,2.6,0,0,1,1.81.56,1.85,1.85,0,0,1,.63,1.45,1.6,1.6,0,0,1-.9,1.57,5.61,5.61,0,0,1-2.55.46h-1v10.29a17,17,0,0,0,.09,2,2,2,0,0,0,.49,1.15,1.7,1.7,0,0,0,1.3.44,6.79,6.79,0,0,0,1.34-.18,7.3,7.3,0,0,1,1.31-.17,1.69,1.69,0,0,1,1.22.54,1.85,1.85,0,0,1,.54,1.35,2.25,2.25,0,0,1-1.47,2.07,10,10,0,0,1-4.25.72,7.41,7.41,0,0,1-4-.88,4.12,4.12,0,0,1-1.77-2.45,16.48,16.48,0,0,1-.42-4.16V630.86h-.74a2.7,2.7,0,0,1-1.85-.58,1.88,1.88,0,0,1-.63-1.45,1.81,1.81,0,0,1,.66-1.45A2.92,2.92,0,0,1,1127.82,626.82Z"/><path d="M1168.22,645.89v-.56a13.87,13.87,0,0,1-2.22,2.11,8.42,8.42,0,0,1-2.38,1.23,9,9,0,0,1-2.8.42,8.33,8.33,0,0,1-3.72-.85,8.85,8.85,0,0,1-3-2.43,11.16,11.16,0,0,1-1.89-3.72,15.85,15.85,0,0,1-.65-4.61c0-3.5.86-6.23,2.56-8.18a8.52,8.52,0,0,1,6.75-2.94,9.1,9.1,0,0,1,4.08.83,11.42,11.42,0,0,1,3.24,2.56v-8.27a4.16,4.16,0,0,1,.69-2.6,2.33,2.33,0,0,1,2-.88,2.43,2.43,0,0,1,2,.81,3.64,3.64,0,0,1,.68,2.39v24.69a3.46,3.46,0,0,1-.73,2.4,2.51,2.51,0,0,1-1.91.8,2.46,2.46,0,0,1-1.9-.83A3.44,3.44,0,0,1,1168.22,645.89Zm-11-8.23a9.6,9.6,0,0,0,.71,3.88,5.38,5.38,0,0,0,1.94,2.41,4.77,4.77,0,0,0,2.68.81,5,5,0,0,0,2.7-.77,5.33,5.33,0,0,0,2-2.36,9.61,9.61,0,0,0,.73-4,9.33,9.33,0,0,0-.73-3.84,5.84,5.84,0,0,0-2-2.46,4.69,4.69,0,0,0-2.72-.85,4.61,4.61,0,0,0-2.75.87,5.57,5.57,0,0,0-1.87,2.5A9.85,9.85,0,0,0,1157.21,637.66Z"/><path d="M1200.09,637.71a13.24,13.24,0,0,1-.78,4.61,10.21,10.21,0,0,1-2.25,3.63,10,10,0,0,1-3.53,2.33,12.49,12.49,0,0,1-4.61.81,12.29,12.29,0,0,1-4.58-.82,10.18,10.18,0,0,1-3.51-2.35,10,10,0,0,1-2.26-3.61,14.22,14.22,0,0,1,0-9.26,10.14,10.14,0,0,1,2.23-3.61,9.93,9.93,0,0,1,3.53-2.31,13.36,13.36,0,0,1,9.19,0,9.9,9.9,0,0,1,5.79,6A13.37,13.37,0,0,1,1200.09,637.71Zm-5.62,0a8.44,8.44,0,0,0-1.5-5.34,4.91,4.91,0,0,0-4-1.9,5,5,0,0,0-2.9.85,5.34,5.34,0,0,0-1.92,2.51,10.07,10.07,0,0,0-.68,3.88,10.2,10.2,0,0,0,.66,3.83,5.6,5.6,0,0,0,1.91,2.51,5,5,0,0,0,2.93.87,4.91,4.91,0,0,0,4-1.91A8.41,8.41,0,0,0,1194.47,637.71Z"/><path d="M1204.5,645.68V621.4a3.76,3.76,0,0,1,.75-2.54,2.52,2.52,0,0,1,2-.86,2.63,2.63,0,0,1,2,.85,3.67,3.67,0,0,1,.78,2.55v24.28a3.63,3.63,0,0,1-.79,2.56,2.69,2.69,0,0,1-2,.85,2.55,2.55,0,0,1-2-.88A3.75,3.75,0,0,1,1204.5,645.68Z"/><path d="M1236.84,637.71a13.24,13.24,0,0,1-.78,4.61,10.21,10.21,0,0,1-2.25,3.63,10,10,0,0,1-3.53,2.33,12.49,12.49,0,0,1-4.61.81,12.29,12.29,0,0,1-4.58-.82,10.18,10.18,0,0,1-3.51-2.35,10,10,0,0,1-2.26-3.61,14.22,14.22,0,0,1,0-9.26,10.14,10.14,0,0,1,2.23-3.61,9.93,9.93,0,0,1,3.53-2.31,13.36,13.36,0,0,1,9.19,0,9.9,9.9,0,0,1,5.79,6A13.37,13.37,0,0,1,1236.84,637.71Zm-5.62,0a8.44,8.44,0,0,0-1.5-5.34,4.91,4.91,0,0,0-4-1.9,5,5,0,0,0-2.9.85,5.34,5.34,0,0,0-1.92,2.51,10.07,10.07,0,0,0-.68,3.88,10.2,10.2,0,0,0,.66,3.83,5.6,5.6,0,0,0,1.91,2.51,5,5,0,0,0,2.93.87,4.91,4.91,0,0,0,4-1.91A8.41,8.41,0,0,0,1231.22,637.71Z"/><path d="M1246.81,641v4.67a3.64,3.64,0,0,1-.8,2.56,2.69,2.69,0,0,1-2,.85,2.57,2.57,0,0,1-2-.86,3.71,3.71,0,0,1-.78-2.55V630.1q0-3.78,2.73-3.78a2.28,2.28,0,0,1,2,.89,4.82,4.82,0,0,1,.67,2.6,9.52,9.52,0,0,1,2.07-2.6,4.23,4.23,0,0,1,2.81-.89,7.22,7.22,0,0,1,3.43.89,2.61,2.61,0,0,1,1.66,2.33,2.36,2.36,0,0,1-2.23,2.36,7.1,7.1,0,0,1-1.49-.38,7,7,0,0,0-2.08-.38,3.05,3.05,0,0,0-2,.65,4.08,4.08,0,0,0-1.21,1.92,13.1,13.1,0,0,0-.6,3C1246.86,637.9,1246.81,639.33,1246.81,641Z"/><path d="M1274.23,639.08h-11a7.49,7.49,0,0,0,.76,3.36,5.36,5.36,0,0,0,2,2.2,5.23,5.23,0,0,0,2.73.74,6.66,6.66,0,0,0,1.84-.24,6,6,0,0,0,1.61-.74,10.5,10.5,0,0,0,1.43-1.08c.44-.38,1-.9,1.71-1.55a1.79,1.79,0,0,1,1.23-.37,2,2,0,0,1,1.39.47,1.66,1.66,0,0,1,.53,1.33,3.55,3.55,0,0,1-.59,1.77,7.16,7.16,0,0,1-1.79,1.95,10.43,10.43,0,0,1-3,1.55,13,13,0,0,1-4.17.62q-5.4,0-8.39-3.08a11.44,11.44,0,0,1-3-8.35,14,14,0,0,1,.74-4.6,10.12,10.12,0,0,1,2.16-3.64,9.32,9.32,0,0,1,3.48-2.33,12.51,12.51,0,0,1,4.6-.81,10.86,10.86,0,0,1,5.63,1.39,9.07,9.07,0,0,1,3.51,3.58,9.38,9.38,0,0,1,1.17,4.47c0,1.4-.4,2.32-1.21,2.73A7.46,7.46,0,0,1,1274.23,639.08Zm-11-3.18h10.15a6.88,6.88,0,0,0-1.55-4.3,4.65,4.65,0,0,0-3.54-1.42,4.48,4.48,0,0,0-3.43,1.44A7.18,7.18,0,0,0,1263.28,635.9Z"/><path d="M776.11,688.51V696a3.77,3.77,0,0,1-.8,2.64,2.7,2.7,0,0,1-2.11.89,2.64,2.64,0,0,1-2.06-.89,3.82,3.82,0,0,1-.79-2.64V687a30.16,30.16,0,0,0-.14-3.28,3.63,3.63,0,0,0-.78-1.92,2.51,2.51,0,0,0-2-.75c-1.83,0-3,.63-3.62,1.89a13.32,13.32,0,0,0-.87,5.41V696a3.88,3.88,0,0,1-.79,2.63,2.64,2.64,0,0,1-2.08.9,2.69,2.69,0,0,1-2.09-.9,3.78,3.78,0,0,1-.81-2.63v-16a3.55,3.55,0,0,1,.73-2.4,2.48,2.48,0,0,1,1.92-.82,2.62,2.62,0,0,1,1.92.77,2.87,2.87,0,0,1,.77,2.12v.54a9.89,9.89,0,0,1,3.11-2.57,8.33,8.33,0,0,1,3.69-.82,7.38,7.38,0,0,1,3.63.84,6.62,6.62,0,0,1,2.51,2.55,9.77,9.77,0,0,1,3-2.56,7.81,7.81,0,0,1,3.59-.83,8.1,8.1,0,0,1,4,.91,5.73,5.73,0,0,1,2.48,2.58,11.79,11.79,0,0,1,.72,4.78V696a3.82,3.82,0,0,1-.8,2.64,2.73,2.73,0,0,1-2.11.89,2.69,2.69,0,0,1-2.09-.9,3.78,3.78,0,0,1-.81-2.63v-9.41a22.23,22.23,0,0,0-.15-2.9,3.3,3.3,0,0,0-.83-1.82,2.66,2.66,0,0,0-2-.74,3.72,3.72,0,0,0-2.1.66,4.34,4.34,0,0,0-1.55,1.76A14,14,0,0,0,776.11,688.51Z"/><path d="M808.8,696.33a17.57,17.57,0,0,1-3.92,2.37,11.15,11.15,0,0,1-4.26.79,8.1,8.1,0,0,1-3.78-.85,6.27,6.27,0,0,1-2.52-2.31,6.07,6.07,0,0,1-.88-3.16,5.67,5.67,0,0,1,1.46-3.92,7.27,7.27,0,0,1,4-2.17c.35-.08,1.23-.27,2.64-.55s2.62-.55,3.62-.79,2.1-.53,3.27-.88a5.76,5.76,0,0,0-.89-3.25c-.52-.69-1.62-1-3.27-1a6.92,6.92,0,0,0-3.21.59,5.15,5.15,0,0,0-1.84,1.79c-.52.79-.88,1.31-1.09,1.57a1.81,1.81,0,0,1-1.37.38,2.42,2.42,0,0,1-1.63-.61,2,2,0,0,1-.68-1.55,4.78,4.78,0,0,1,1-2.87,7.6,7.6,0,0,1,3.26-2.3,14.76,14.76,0,0,1,5.52-.9,15.59,15.59,0,0,1,5.8.87,5.39,5.39,0,0,1,3,2.76,12.11,12.11,0,0,1,.87,5c0,1.31,0,2.42,0,3.34s0,1.93,0,3.05a11.27,11.27,0,0,0,.52,3.3,10.16,10.16,0,0,1,.52,2.2,2.07,2.07,0,0,1-.81,1.57,2.72,2.72,0,0,1-1.83.71,2.46,2.46,0,0,1-1.7-.81A12.27,12.27,0,0,1,808.8,696.33Zm-.37-8.1a27.41,27.41,0,0,1-3.58.95c-1.56.34-2.64.58-3.25.74a4.45,4.45,0,0,0-1.72.92,2.36,2.36,0,0,0-.82,1.92,2.8,2.8,0,0,0,1,2.16,3.54,3.54,0,0,0,2.52.9,6.58,6.58,0,0,0,3.06-.73,4.8,4.8,0,0,0,2.06-1.88,8.51,8.51,0,0,0,.76-4.18Z"/><path d="M839.65,680.82v16.27a16.9,16.9,0,0,1-.6,4.8,7.59,7.59,0,0,1-1.91,3.32,8.09,8.09,0,0,1-3.43,1.95,18.89,18.89,0,0,1-5.28.63,15.37,15.37,0,0,1-5.17-.81,9,9,0,0,1-3.51-2.09,3.8,3.8,0,0,1-1.23-2.64,2.2,2.2,0,0,1,.7-1.67,2.4,2.4,0,0,1,1.68-.64,2.78,2.78,0,0,1,2.16,1.08c.3.37.61.75.93,1.12a5.43,5.43,0,0,0,1.07,1,4.16,4.16,0,0,0,1.4.59,8.24,8.24,0,0,0,1.89.2,7.65,7.65,0,0,0,3.37-.61,3.45,3.45,0,0,0,1.68-1.69,7,7,0,0,0,.57-2.33q.07-1.24.12-4a9.13,9.13,0,0,1-3,2.75,8.1,8.1,0,0,1-4,.94,8.48,8.48,0,0,1-4.92-1.43,9.27,9.27,0,0,1-3.23-4,14.82,14.82,0,0,1-1.12-6,14.08,14.08,0,0,1,.68-4.55,9.52,9.52,0,0,1,2-3.43,8.43,8.43,0,0,1,2.93-2.1,9.28,9.28,0,0,1,3.65-.71,8.8,8.8,0,0,1,4.13.92,10.07,10.07,0,0,1,3.24,2.86v-.76a3.33,3.33,0,0,1,.71-2.26,2.39,2.39,0,0,1,1.85-.8,2.17,2.17,0,0,1,2.15,1.06A6.83,6.83,0,0,1,839.65,680.82Zm-16.23,7.1a7.76,7.76,0,0,0,1.49,5.15,4.82,4.82,0,0,0,3.85,1.74,5,5,0,0,0,2.63-.75,5.49,5.49,0,0,0,2-2.25,7.91,7.91,0,0,0,.78-3.66,8.38,8.38,0,0,0-1.51-5.34,4.79,4.79,0,0,0-4-1.9,4.65,4.65,0,0,0-3.85,1.82A8.22,8.22,0,0,0,823.42,687.92Z"/><path d="M850.39,679.82v.68a9.73,9.73,0,0,1,3.23-2.86,8.58,8.58,0,0,1,4-.92,8,8,0,0,1,4,1,6.1,6.1,0,0,1,2.6,2.72,6.58,6.58,0,0,1,.72,2.22,22.59,22.59,0,0,1,.17,3v10.42a3.75,3.75,0,0,1-.77,2.55,2.76,2.76,0,0,1-4,0,3.66,3.66,0,0,1-.78-2.52v-9.33a9.33,9.33,0,0,0-.77-4.23,3.13,3.13,0,0,0-3.07-1.47,4.56,4.56,0,0,0-2.72.89,5.14,5.14,0,0,0-1.81,2.45,17.78,17.78,0,0,0-.41,4.68v7a3.63,3.63,0,0,1-.79,2.56,2.66,2.66,0,0,1-2,.85,2.53,2.53,0,0,1-2-.89,3.66,3.66,0,0,1-.78-2.52V679.9a3.55,3.55,0,0,1,.7-2.39,2.43,2.43,0,0,1,1.91-.79,2.62,2.62,0,0,1,1.33.35,2.44,2.44,0,0,1,.95,1A3.65,3.65,0,0,1,850.39,679.82Z"/><path d="M884.83,696.33a17.85,17.85,0,0,1-3.93,2.37,11.15,11.15,0,0,1-4.26.79,8.16,8.16,0,0,1-3.78-.85,6.18,6.18,0,0,1-2.51-2.31,6,6,0,0,1-.89-3.16,5.67,5.67,0,0,1,1.46-3.92,7.27,7.27,0,0,1,4-2.17c.36-.08,1.24-.27,2.65-.55s2.61-.55,3.62-.79,2.09-.53,3.27-.88a5.83,5.83,0,0,0-.9-3.25c-.52-.69-1.61-1-3.27-1a6.92,6.92,0,0,0-3.21.59,5.23,5.23,0,0,0-1.84,1.79c-.51.79-.88,1.31-1.09,1.57a1.79,1.79,0,0,1-1.36.38,2.39,2.39,0,0,1-1.63-.61,2,2,0,0,1-.69-1.55,4.73,4.73,0,0,1,1-2.87,7.48,7.48,0,0,1,3.26-2.3,14.67,14.67,0,0,1,5.51-.9,15.69,15.69,0,0,1,5.81.87,5.4,5.4,0,0,1,3,2.76,12.11,12.11,0,0,1,.87,5c0,1.31,0,2.42,0,3.34s0,1.93,0,3.05a11.61,11.61,0,0,0,.52,3.3,10.43,10.43,0,0,1,.53,2.2,2.07,2.07,0,0,1-.81,1.57,2.72,2.72,0,0,1-1.84.71,2.48,2.48,0,0,1-1.7-.81A11.88,11.88,0,0,1,884.83,696.33Zm-.37-8.1a27.86,27.86,0,0,1-3.58.95c-1.57.34-2.65.58-3.25.74a4.49,4.49,0,0,0-1.73.92,2.39,2.39,0,0,0-.82,1.92,2.84,2.84,0,0,0,1,2.16,3.54,3.54,0,0,0,2.52.9,6.65,6.65,0,0,0,3.07-.73,4.92,4.92,0,0,0,2.06-1.88,8.63,8.63,0,0,0,.76-4.18Z"/><path d="M920.28,696.33a17.57,17.57,0,0,1-3.92,2.37,11.15,11.15,0,0,1-4.26.79,8.13,8.13,0,0,1-3.78-.85,6.27,6.27,0,0,1-2.52-2.31,6.07,6.07,0,0,1-.88-3.16,5.67,5.67,0,0,1,1.46-3.92,7.27,7.27,0,0,1,4-2.17c.35-.08,1.24-.27,2.64-.55s2.62-.55,3.62-.79,2.1-.53,3.27-.88a5.76,5.76,0,0,0-.89-3.25c-.52-.69-1.61-1-3.27-1a6.92,6.92,0,0,0-3.21.59A5.15,5.15,0,0,0,910.7,683c-.52.79-.88,1.31-1.09,1.57a1.79,1.79,0,0,1-1.36.38,2.43,2.43,0,0,1-1.64-.61,2,2,0,0,1-.68-1.55,4.78,4.78,0,0,1,1-2.87,7.6,7.6,0,0,1,3.26-2.3,14.76,14.76,0,0,1,5.52-.9,15.59,15.59,0,0,1,5.8.87,5.39,5.39,0,0,1,3,2.76,12.11,12.11,0,0,1,.87,5c0,1.31,0,2.42,0,3.34s0,1.93,0,3.05a11.27,11.27,0,0,0,.52,3.3,10.43,10.43,0,0,1,.53,2.2,2.05,2.05,0,0,1-.82,1.57,2.72,2.72,0,0,1-1.83.71,2.48,2.48,0,0,1-1.7-.81A12.27,12.27,0,0,1,920.28,696.33Zm-.37-8.1a27.63,27.63,0,0,1-3.57.95c-1.57.34-2.65.58-3.26.74a4.45,4.45,0,0,0-1.72.92,2.39,2.39,0,0,0-.82,1.92,2.8,2.8,0,0,0,1,2.16,3.54,3.54,0,0,0,2.52.9,6.58,6.58,0,0,0,3.06-.73,4.89,4.89,0,0,0,2.07-1.88,8.65,8.65,0,0,0,.75-4.18Z"/><path d="M931.09,696.08V671.8a3.76,3.76,0,0,1,.75-2.54,2.52,2.52,0,0,1,2-.86,2.63,2.63,0,0,1,2,.85,3.67,3.67,0,0,1,.78,2.55v24.28a3.63,3.63,0,0,1-.79,2.56,2.69,2.69,0,0,1-2,.85,2.53,2.53,0,0,1-2-.89A3.7,3.7,0,0,1,931.09,696.08Z"/><path d="M945.3,674.12a3,3,0,0,1-2-.72,2.79,2.79,0,0,1,0-4,2.88,2.88,0,0,1,2-.77,3,3,0,0,1,1.93.7,2.48,2.48,0,0,1,.84,2,2.54,2.54,0,0,1-.82,2A2.83,2.83,0,0,1,945.3,674.12Zm2.77,5.78v16.18a3.66,3.66,0,0,1-.8,2.55,2.66,2.66,0,0,1-2,.86,2.53,2.53,0,0,1-2-.89,3.7,3.7,0,0,1-.77-2.52v-16a3.62,3.62,0,0,1,.77-2.51,2.58,2.58,0,0,1,2-.84,2.68,2.68,0,0,1,2,.84A3.27,3.27,0,0,1,948.07,679.9Z"/><path d="M969.19,704.06v-7.9a12.64,12.64,0,0,1-3.37,2.48,8.88,8.88,0,0,1-3.89.85,8.58,8.58,0,0,1-4.74-1.38,9.29,9.29,0,0,1-3.37-3.94,15.78,15.78,0,0,1,0-12.19,9,9,0,0,1,3.42-3.88,9.1,9.1,0,0,1,4.85-1.34,8.63,8.63,0,0,1,4,.94,8.23,8.23,0,0,1,3.05,2.84v-.68a3.35,3.35,0,0,1,.74-2.34,2.49,2.49,0,0,1,1.91-.8,2.53,2.53,0,0,1,1.91.79,3.34,3.34,0,0,1,.74,2.35v24.2c0,2.49-.89,3.73-2.65,3.73a2.15,2.15,0,0,1-2.14-1A6.09,6.09,0,0,1,969.19,704.06Zm-11-16A9.58,9.58,0,0,0,959,692a5.55,5.55,0,0,0,1.92,2.42,4.52,4.52,0,0,0,2.56.79,5,5,0,0,0,2.75-.79,5.59,5.59,0,0,0,2-2.41,9.33,9.33,0,0,0,.76-4,9.85,9.85,0,0,0-.44-3,6.77,6.77,0,0,0-1.2-2.25,4.94,4.94,0,0,0-3.84-1.77,4.63,4.63,0,0,0-3.75,1.86A8.27,8.27,0,0,0,958.22,688.06Z"/><path d="M994.64,696.33v-.72a12.17,12.17,0,0,1-2.11,2.13,7.64,7.64,0,0,1-2.42,1.29,9.77,9.77,0,0,1-3,.42,7.61,7.61,0,0,1-3.64-.85,6.05,6.05,0,0,1-2.49-2.31,10.23,10.23,0,0,1-1-5.13V680.07a3.62,3.62,0,0,1,.76-2.52,2.62,2.62,0,0,1,2-.83,2.66,2.66,0,0,1,2,.84,3.58,3.58,0,0,1,.78,2.51v9a13.73,13.73,0,0,0,.33,3.27,3.93,3.93,0,0,0,1.18,2.07,3.34,3.34,0,0,0,2.3.75,4.69,4.69,0,0,0,2.67-.84,4.88,4.88,0,0,0,1.82-2.2,17.34,17.34,0,0,0,.48-5.21v-6.8a3.58,3.58,0,0,1,.78-2.51,2.86,2.86,0,0,1,4,0,3.67,3.67,0,0,1,.75,2.52v16.22a3.51,3.51,0,0,1-.72,2.4,2.6,2.6,0,0,1-3.78,0A3.36,3.36,0,0,1,994.64,696.33Z"/><path d="M1019.62,696.33a17.57,17.57,0,0,1-3.92,2.37,11.15,11.15,0,0,1-4.26.79,8.1,8.1,0,0,1-3.78-.85,6.27,6.27,0,0,1-2.52-2.31,6.07,6.07,0,0,1-.88-3.16,5.67,5.67,0,0,1,1.46-3.92,7.27,7.27,0,0,1,4-2.17c.35-.08,1.24-.27,2.64-.55s2.62-.55,3.62-.79,2.1-.53,3.27-.88a5.76,5.76,0,0,0-.89-3.25c-.53-.69-1.61-1-3.27-1a6.92,6.92,0,0,0-3.21.59A5.15,5.15,0,0,0,1010,683c-.52.79-.88,1.31-1.09,1.57a1.81,1.81,0,0,1-1.37.38,2.42,2.42,0,0,1-1.63-.61,2,2,0,0,1-.68-1.55,4.78,4.78,0,0,1,1-2.87,7.6,7.6,0,0,1,3.26-2.3,14.76,14.76,0,0,1,5.52-.9,15.59,15.59,0,0,1,5.8.87,5.39,5.39,0,0,1,3,2.76,12.11,12.11,0,0,1,.87,5c0,1.31,0,2.42,0,3.34s0,1.93,0,3.05a11.27,11.27,0,0,0,.52,3.3,10.16,10.16,0,0,1,.52,2.2,2.07,2.07,0,0,1-.81,1.57,2.72,2.72,0,0,1-1.83.71,2.48,2.48,0,0,1-1.7-.81A12.27,12.27,0,0,1,1019.62,696.33Zm-.37-8.1a27.41,27.41,0,0,1-3.58.95c-1.56.34-2.64.58-3.25.74a4.45,4.45,0,0,0-1.72.92,2.39,2.39,0,0,0-.82,1.92,2.8,2.8,0,0,0,1,2.16,3.54,3.54,0,0,0,2.52.9,6.58,6.58,0,0,0,3.06-.73,4.89,4.89,0,0,0,2.07-1.88,8.65,8.65,0,0,0,.75-4.18Z"/><path d="M1049.05,688.51V696a3.77,3.77,0,0,1-.8,2.64,2.71,2.71,0,0,1-2.11.89,2.62,2.62,0,0,1-2.06-.89,3.82,3.82,0,0,1-.79-2.64V687a30.16,30.16,0,0,0-.14-3.28,3.63,3.63,0,0,0-.78-1.92,2.51,2.51,0,0,0-2-.75c-1.84,0-3,.63-3.62,1.89a13.32,13.32,0,0,0-.87,5.41V696a3.88,3.88,0,0,1-.79,2.63,2.64,2.64,0,0,1-2.09.9,2.68,2.68,0,0,1-2.08-.9,3.78,3.78,0,0,1-.81-2.63v-16a3.5,3.5,0,0,1,.73-2.4,2.48,2.48,0,0,1,1.92-.82,2.64,2.64,0,0,1,1.92.77,2.87,2.87,0,0,1,.76,2.12v.54a9.92,9.92,0,0,1,3.12-2.57,8.33,8.33,0,0,1,3.69-.82,7.38,7.38,0,0,1,3.63.84,6.69,6.69,0,0,1,2.51,2.55,9.77,9.77,0,0,1,3-2.56,7.81,7.81,0,0,1,3.59-.83,8.1,8.1,0,0,1,4,.91,5.78,5.78,0,0,1,2.48,2.58,11.79,11.79,0,0,1,.72,4.78V696a3.82,3.82,0,0,1-.8,2.64,2.73,2.73,0,0,1-2.12.89,2.68,2.68,0,0,1-2.08-.9,3.78,3.78,0,0,1-.81-2.63v-9.41a22.23,22.23,0,0,0-.15-2.9,3.3,3.3,0,0,0-.83-1.82,2.66,2.66,0,0,0-2-.74,3.78,3.78,0,0,0-2.11.66,4.39,4.39,0,0,0-1.54,1.76A14,14,0,0,0,1049.05,688.51Z"/><path d="M1093.72,689.48h-11a7.36,7.36,0,0,0,.77,3.36,5.27,5.27,0,0,0,2,2.2,5.22,5.22,0,0,0,2.73.73,6.67,6.67,0,0,0,1.84-.23,6,6,0,0,0,1.61-.74,10.5,10.5,0,0,0,1.43-1.08c.44-.38,1-.9,1.71-1.55a1.79,1.79,0,0,1,1.23-.37,2,2,0,0,1,1.39.47,1.66,1.66,0,0,1,.53,1.33,3.61,3.61,0,0,1-.59,1.78,7.28,7.28,0,0,1-1.79,1.94,10.19,10.19,0,0,1-3,1.55,13,13,0,0,1-4.17.62c-3.6,0-6.39-1-8.39-3.08a11.44,11.44,0,0,1-3-8.35,14,14,0,0,1,.74-4.6,10.12,10.12,0,0,1,2.16-3.64,9.32,9.32,0,0,1,3.48-2.33,12.51,12.51,0,0,1,4.6-.81,10.86,10.86,0,0,1,5.63,1.39,9.11,9.11,0,0,1,3.51,3.57,9.45,9.45,0,0,1,1.17,4.48c0,1.4-.4,2.32-1.21,2.73A7.46,7.46,0,0,1,1093.72,689.48Zm-11-3.18h10.15a6.88,6.88,0,0,0-1.55-4.3,4.65,4.65,0,0,0-3.54-1.42,4.48,4.48,0,0,0-3.43,1.44A7.18,7.18,0,0,0,1082.77,686.3Z"/><path d="M1108.61,691.41v4.67a3.64,3.64,0,0,1-.8,2.56,2.7,2.7,0,0,1-2,.85,2.57,2.57,0,0,1-2-.86,3.71,3.71,0,0,1-.78-2.55V680.5q0-3.78,2.73-3.78a2.31,2.31,0,0,1,2,.88,4.88,4.88,0,0,1,.67,2.61,9.93,9.93,0,0,1,2.06-2.61,4.32,4.32,0,0,1,2.82-.88,7.32,7.32,0,0,1,3.43.88,2.65,2.65,0,0,1,1.66,2.34,2.21,2.21,0,0,1-.71,1.69,2.17,2.17,0,0,1-1.53.67,7.23,7.23,0,0,1-1.48-.38,7,7,0,0,0-2.09-.38,3,3,0,0,0-2,.65,4.08,4.08,0,0,0-1.21,1.92,13.1,13.1,0,0,0-.6,3C1108.66,688.3,1108.61,689.72,1108.61,691.41Z"/><path d="M1134.55,696.33a17.4,17.4,0,0,1-3.93,2.37,11.06,11.06,0,0,1-4.25.79,8.17,8.17,0,0,1-3.79-.85,6.31,6.31,0,0,1-2.51-2.31,6,6,0,0,1-.88-3.16,5.66,5.66,0,0,1,1.45-3.92,7.34,7.34,0,0,1,4-2.17c.36-.08,1.24-.27,2.65-.55s2.61-.55,3.62-.79,2.09-.53,3.27-.88a5.92,5.92,0,0,0-.89-3.25c-.53-.69-1.62-1-3.27-1a6.86,6.86,0,0,0-3.21.59A5.17,5.17,0,0,0,1125,683a18,18,0,0,1-1.09,1.57,1.78,1.78,0,0,1-1.36.38,2.41,2.41,0,0,1-1.63-.61,2,2,0,0,1-.69-1.55,4.73,4.73,0,0,1,1-2.87,7.54,7.54,0,0,1,3.26-2.3,14.76,14.76,0,0,1,5.52-.9,15.63,15.63,0,0,1,5.8.87,5.37,5.37,0,0,1,3,2.76,12.1,12.1,0,0,1,.88,5c0,1.31,0,2.42,0,3.34s0,1.93,0,3.05a11.29,11.29,0,0,0,.53,3.3,10.16,10.16,0,0,1,.52,2.2,2.07,2.07,0,0,1-.81,1.57,2.72,2.72,0,0,1-1.83.71,2.48,2.48,0,0,1-1.71-.81A12.28,12.28,0,0,1,1134.55,696.33Zm-.37-8.1a27.41,27.41,0,0,1-3.58.95c-1.56.34-2.65.58-3.25.74a4.38,4.38,0,0,0-1.72.92,2.36,2.36,0,0,0-.82,1.92,2.83,2.83,0,0,0,1,2.16,3.54,3.54,0,0,0,2.52.9,6.65,6.65,0,0,0,3.07-.73,4.86,4.86,0,0,0,2.06-1.88,8.51,8.51,0,0,0,.76-4.18Z"/><path d="M1144.62,677.21h.61v-3.36c0-.9,0-1.61.08-2.12a3,3,0,0,1,.4-1.32,2.43,2.43,0,0,1,.94-.94,2.67,2.67,0,0,1,1.37-.36,2.78,2.78,0,0,1,1.93.8,2.39,2.39,0,0,1,.73,1.31,12.08,12.08,0,0,1,.15,2.18v3.81h2.05a2.61,2.61,0,0,1,1.82.57,1.88,1.88,0,0,1,.62,1.44,1.6,1.6,0,0,1-.89,1.58,5.77,5.77,0,0,1-2.55.45h-1.05v10.3a17.16,17.16,0,0,0,.09,2,2.13,2.13,0,0,0,.5,1.15,1.68,1.68,0,0,0,1.3.44,7.37,7.37,0,0,0,1.33-.17,6.73,6.73,0,0,1,1.31-.18,1.67,1.67,0,0,1,1.22.54,1.82,1.82,0,0,1,.55,1.35,2.25,2.25,0,0,1-1.48,2.07,9.93,9.93,0,0,1-4.24.72,7.31,7.31,0,0,1-4-.89,4.08,4.08,0,0,1-1.78-2.44,16.48,16.48,0,0,1-.42-4.16V681.25h-.73a2.68,2.68,0,0,1-1.85-.57,1.89,1.89,0,0,1-.64-1.46,1.83,1.83,0,0,1,.67-1.44A2.9,2.9,0,0,1,1144.62,677.21Z"/><path d="M1173.64,680.21l4.53,12.71,4.88-13.26a7.72,7.72,0,0,1,1.13-2.27,2.08,2.08,0,0,1,1.68-.67,2.51,2.51,0,0,1,1.81.72,2.23,2.23,0,0,1,.75,1.66,3.27,3.27,0,0,1-.13.86,7.8,7.8,0,0,1-.31.93c-.11.28-.25.61-.4,1l-5.37,13.33c-.15.38-.35.87-.58,1.46a7.76,7.76,0,0,1-.81,1.5,3.06,3.06,0,0,1-1.08,1,3.31,3.31,0,0,1-1.57.35,3,3,0,0,1-1.9-.55,3.59,3.59,0,0,1-1-1.19q-.35-.64-1.14-2.55L1168.76,682c-.13-.32-.25-.65-.38-1a8.52,8.52,0,0,1-.33-1,3.46,3.46,0,0,1-.13-.88,2.18,2.18,0,0,1,.34-1.14,2.86,2.86,0,0,1,1-.92,2.58,2.58,0,0,1,1.33-.36,2.13,2.13,0,0,1,1.92.8A13.13,13.13,0,0,1,1173.64,680.21Z"/><path d="M1212.85,688.1a13.26,13.26,0,0,1-.78,4.62,10.1,10.1,0,0,1-2.26,3.63,10,10,0,0,1-3.52,2.33,12.51,12.51,0,0,1-4.62.81,12.24,12.24,0,0,1-4.57-.82,10.06,10.06,0,0,1-5.77-6,13,13,0,0,1-.77-4.61,13.58,13.58,0,0,1,.77-4.65,10.16,10.16,0,0,1,2.24-3.61,9.85,9.85,0,0,1,3.53-2.31,12.43,12.43,0,0,1,4.57-.81,12.62,12.62,0,0,1,4.62.82,10,10,0,0,1,5.79,6A13.31,13.31,0,0,1,1212.85,688.1Zm-5.62,0a8.37,8.37,0,0,0-1.51-5.33,4.88,4.88,0,0,0-4-1.9,5,5,0,0,0-2.89.85,5.36,5.36,0,0,0-1.93,2.51,11.35,11.35,0,0,0,0,7.71,5.53,5.53,0,0,0,1.91,2.51,5,5,0,0,0,2.92.87,4.89,4.89,0,0,0,4-1.91A8.36,8.36,0,0,0,1207.23,688.1Z"/><path d="M1217.26,696.08V671.8a3.76,3.76,0,0,1,.75-2.54,2.51,2.51,0,0,1,2-.86,2.65,2.65,0,0,1,2,.85,3.67,3.67,0,0,1,.78,2.55v24.28a3.68,3.68,0,0,1-.79,2.56,2.69,2.69,0,0,1-2,.85,2.53,2.53,0,0,1-2-.89A3.65,3.65,0,0,1,1217.26,696.08Z"/><path d="M1243.18,696.33v-.72a12.53,12.53,0,0,1-2.11,2.13,7.75,7.75,0,0,1-2.42,1.29,9.88,9.88,0,0,1-3,.42,7.64,7.64,0,0,1-3.64-.85,6.18,6.18,0,0,1-2.49-2.31,10.23,10.23,0,0,1-1-5.13V680.07a3.67,3.67,0,0,1,.76-2.52,2.62,2.62,0,0,1,2-.83,2.66,2.66,0,0,1,2,.84,3.58,3.58,0,0,1,.78,2.51v9a13.73,13.73,0,0,0,.33,3.27,3.93,3.93,0,0,0,1.18,2.07,3.38,3.38,0,0,0,2.31.75,4.68,4.68,0,0,0,2.66-.84,4.83,4.83,0,0,0,1.83-2.2,17.82,17.82,0,0,0,.47-5.21v-6.8a3.58,3.58,0,0,1,.78-2.51,2.65,2.65,0,0,1,2-.84,2.62,2.62,0,0,1,2,.83,3.62,3.62,0,0,1,.76,2.52v16.22a3.46,3.46,0,0,1-.73,2.4,2.59,2.59,0,0,1-3.77,0A3.36,3.36,0,0,1,1243.18,696.33Z"/><path d="M1254.31,677.21h.62v-3.36c0-.9,0-1.61.07-2.12a3.15,3.15,0,0,1,.4-1.32,2.49,2.49,0,0,1,.94-.94,2.68,2.68,0,0,1,1.38-.36,2.8,2.8,0,0,1,1.93.8,2.45,2.45,0,0,1,.73,1.31,12.08,12.08,0,0,1,.15,2.18v3.81h2a2.59,2.59,0,0,1,1.81.57,1.86,1.86,0,0,1,.63,1.44,1.62,1.62,0,0,1-.89,1.58,5.84,5.84,0,0,1-2.56.45h-1v10.3a17.16,17.16,0,0,0,.09,2,2.12,2.12,0,0,0,.49,1.15,1.71,1.71,0,0,0,1.31.44,7.48,7.48,0,0,0,1.33-.17,6.73,6.73,0,0,1,1.31-.18,1.69,1.69,0,0,1,1.22.54,1.85,1.85,0,0,1,.54,1.35,2.25,2.25,0,0,1-1.47,2.07,10,10,0,0,1-4.25.72,7.33,7.33,0,0,1-4-.89,4.07,4.07,0,0,1-1.77-2.44,16.48,16.48,0,0,1-.42-4.16V681.25h-.74a2.65,2.65,0,0,1-1.84-.57,1.86,1.86,0,0,1-.64-1.46,1.8,1.8,0,0,1,.67-1.44A2.89,2.89,0,0,1,1254.31,677.21Z"/><path d="M1274,679.86v.68a11.21,11.21,0,0,1,3.28-2.86,8,8,0,0,1,3.86-.92,8.94,8.94,0,0,1,4.76,1.34,9.15,9.15,0,0,1,3.43,3.89,13.65,13.65,0,0,1,1.26,6.07,14.93,14.93,0,0,1-.72,4.75,10.91,10.91,0,0,1-2,3.63,8.75,8.75,0,0,1-3,2.26,8.93,8.93,0,0,1-3.72.79,7.74,7.74,0,0,1-4-1,11.42,11.42,0,0,1-3.11-2.83v8.41q0,3.69-2.68,3.69a2.18,2.18,0,0,1-2.1-.95,6,6,0,0,1-.51-2.78V679.9a3.5,3.5,0,0,1,.7-2.39,2.43,2.43,0,0,1,1.91-.79,2.51,2.51,0,0,1,1.93.81A3.31,3.31,0,0,1,1274,679.86Zm11,8.14a9.71,9.71,0,0,0-.67-3.8,5.59,5.59,0,0,0-1.88-2.44,4.45,4.45,0,0,0-2.65-.85,5,5,0,0,0-3.91,1.82,8,8,0,0,0-1.59,5.37,7.79,7.79,0,0,0,1.58,5.2,4.94,4.94,0,0,0,3.92,1.86,4.48,4.48,0,0,0,2.58-.81,5.61,5.61,0,0,0,1.91-2.43A9.64,9.64,0,0,0,1285,688Z"/><path d="M1309.28,696.33a17.85,17.85,0,0,1-3.93,2.37,11.11,11.11,0,0,1-4.26.79,8.16,8.16,0,0,1-3.78-.85,6.18,6.18,0,0,1-2.51-2.31,6,6,0,0,1-.88-3.16,5.66,5.66,0,0,1,1.45-3.92,7.27,7.27,0,0,1,4-2.17c.36-.08,1.24-.27,2.65-.55s2.61-.55,3.62-.79,2.09-.53,3.27-.88a5.83,5.83,0,0,0-.9-3.25c-.52-.69-1.61-1-3.27-1a6.92,6.92,0,0,0-3.21.59,5.23,5.23,0,0,0-1.84,1.79c-.52.79-.88,1.31-1.09,1.57a1.79,1.79,0,0,1-1.36.38,2.39,2.39,0,0,1-1.63-.61,2,2,0,0,1-.69-1.55,4.73,4.73,0,0,1,1-2.87,7.48,7.48,0,0,1,3.26-2.3,14.67,14.67,0,0,1,5.51-.9,15.69,15.69,0,0,1,5.81.87,5.37,5.37,0,0,1,3,2.76,12.11,12.11,0,0,1,.87,5c0,1.31,0,2.42,0,3.34s0,1.93,0,3.05a11.61,11.61,0,0,0,.52,3.3,10.43,10.43,0,0,1,.53,2.2,2.07,2.07,0,0,1-.81,1.57,2.72,2.72,0,0,1-1.84.71,2.48,2.48,0,0,1-1.7-.81A11.88,11.88,0,0,1,1309.28,696.33Zm-.37-8.1a27.86,27.86,0,0,1-3.58.95c-1.57.34-2.65.58-3.25.74a4.49,4.49,0,0,0-1.73.92,2.39,2.39,0,0,0-.82,1.92,2.84,2.84,0,0,0,1,2.16,3.54,3.54,0,0,0,2.52.9,6.65,6.65,0,0,0,3.07-.73,4.92,4.92,0,0,0,2.06-1.88,8.63,8.63,0,0,0,.76-4.18Z"/><path d="M1319.34,677.21h.62v-3.36c0-.9,0-1.61.07-2.12a3.15,3.15,0,0,1,.4-1.32,2.45,2.45,0,0,1,1-.94,2.64,2.64,0,0,1,1.37-.36,2.8,2.8,0,0,1,1.93.8,2.45,2.45,0,0,1,.73,1.31,12.08,12.08,0,0,1,.15,2.18v3.81h2a2.59,2.59,0,0,1,1.81.57,1.86,1.86,0,0,1,.63,1.44,1.62,1.62,0,0,1-.89,1.58,5.84,5.84,0,0,1-2.56.45h-1v10.3a17.16,17.16,0,0,0,.09,2,2.12,2.12,0,0,0,.49,1.15,1.71,1.71,0,0,0,1.31.44,7.48,7.48,0,0,0,1.33-.17,6.73,6.73,0,0,1,1.31-.18,1.69,1.69,0,0,1,1.22.54,1.85,1.85,0,0,1,.54,1.35,2.25,2.25,0,0,1-1.47,2.07,10,10,0,0,1-4.25.72,7.33,7.33,0,0,1-4-.89,4.07,4.07,0,0,1-1.77-2.44A16.48,16.48,0,0,1,1320,692V681.25h-.74a2.67,2.67,0,0,1-1.84-.57,1.86,1.86,0,0,1-.64-1.46,1.8,1.8,0,0,1,.67-1.44A2.89,2.89,0,0,1,1319.34,677.21Z"/><path d="M1337.62,699.49a3.24,3.24,0,0,1-2.2-.82,3.2,3.2,0,0,1,0-4.45,2.9,2.9,0,0,1,2.18-.91,3,3,0,0,1,2.2.9,2.89,2.89,0,0,1,.91,2.16,3,3,0,0,1-.91,2.29A3.09,3.09,0,0,1,1337.62,699.49Z"/><path d="M763.85,368.79v21.88H776.2a3.23,3.23,0,0,1,2.26.72,2.32,2.32,0,0,1,.79,1.8,2.29,2.29,0,0,1-.78,1.8,3.33,3.33,0,0,1-2.27.69H761.49a3.2,3.2,0,0,1-3.73-3.74V368.79a4.06,4.06,0,0,1,.83-2.77,2.8,2.8,0,0,1,2.18-.92A2.9,2.9,0,0,1,763,366,4,4,0,0,1,763.85,368.79Z"/><path d="M803.82,384.81a13.24,13.24,0,0,1-.78,4.61,10.1,10.1,0,0,1-2.26,3.63,10,10,0,0,1-3.52,2.33,12.51,12.51,0,0,1-4.62.81,12,12,0,0,1-4.57-.82,10.22,10.22,0,0,1-3.52-2.35,10.11,10.11,0,0,1-2.25-3.61,13,13,0,0,1-.77-4.6,13.36,13.36,0,0,1,.78-4.66,10.14,10.14,0,0,1,2.23-3.61,9.85,9.85,0,0,1,3.53-2.31,13.28,13.28,0,0,1,9.19,0,9.89,9.89,0,0,1,3.54,2.33,10,10,0,0,1,2.25,3.61A13.41,13.41,0,0,1,803.82,384.81Zm-5.62,0a8.4,8.4,0,0,0-1.51-5.34,4.88,4.88,0,0,0-4.05-1.9,5,5,0,0,0-2.89.85,5.41,5.41,0,0,0-1.93,2.51,11.51,11.51,0,0,0,0,7.71,5.48,5.48,0,0,0,1.91,2.51,5,5,0,0,0,2.92.88,4.87,4.87,0,0,0,4.05-1.92A8.35,8.35,0,0,0,798.2,384.81Z"/><path d="M813.79,388.11v4.67a3.64,3.64,0,0,1-.8,2.56,2.7,2.7,0,0,1-2,.85,2.57,2.57,0,0,1-2-.86,3.69,3.69,0,0,1-.78-2.55V377.2q0-3.78,2.73-3.78a2.27,2.27,0,0,1,2,.89,4.81,4.81,0,0,1,.68,2.6,9.7,9.7,0,0,1,2.06-2.6,4.27,4.27,0,0,1,2.82-.89,7.22,7.22,0,0,1,3.43.89,2.63,2.63,0,0,1,1.66,2.33,2.25,2.25,0,0,1-.71,1.7,2.2,2.2,0,0,1-1.53.66,6.57,6.57,0,0,1-1.48-.38,7,7,0,0,0-2.09-.38,3.05,3.05,0,0,0-2,.65,4.24,4.24,0,0,0-1.21,1.92,13.81,13.81,0,0,0-.59,3C813.84,385,813.79,386.43,813.79,388.11Z"/><path d="M841.21,386.18h-11a7.49,7.49,0,0,0,.77,3.36,5.34,5.34,0,0,0,2,2.2,5.29,5.29,0,0,0,2.74.74,6.66,6.66,0,0,0,1.84-.24,6,6,0,0,0,1.61-.74,13,13,0,0,0,1.43-1.07c.44-.39,1-.91,1.7-1.56a1.83,1.83,0,0,1,1.23-.37,2.06,2.06,0,0,1,1.4.47,1.7,1.7,0,0,1,.53,1.33,3.71,3.71,0,0,1-.59,1.78,7.16,7.16,0,0,1-1.8,1.94,10,10,0,0,1-3,1.55,13,13,0,0,1-4.18.62c-3.59,0-6.39-1-8.38-3.08a11.43,11.43,0,0,1-3-8.34,14,14,0,0,1,.74-4.61,10.19,10.19,0,0,1,2.15-3.64,9.44,9.44,0,0,1,3.49-2.33,12.5,12.5,0,0,1,4.59-.81,10.9,10.9,0,0,1,5.63,1.39,9,9,0,0,1,3.52,3.58,9.38,9.38,0,0,1,1.17,4.47c0,1.41-.4,2.32-1.21,2.74A7.64,7.64,0,0,1,841.21,386.18Zm-11-3.18h10.16a6.84,6.84,0,0,0-1.55-4.29,4.66,4.66,0,0,0-3.54-1.43,4.47,4.47,0,0,0-3.44,1.45A7.27,7.27,0,0,0,830.25,383Z"/><path d="M869.16,385.22v7.44a3.85,3.85,0,0,1-.8,2.65,2.75,2.75,0,0,1-2.11.88,2.68,2.68,0,0,1-2.07-.88,3.9,3.9,0,0,1-.79-2.65v-8.92a27.79,27.79,0,0,0-.14-3.28,3.48,3.48,0,0,0-.78-1.92,2.48,2.48,0,0,0-2-.75c-1.83,0-3,.63-3.62,1.89a13.32,13.32,0,0,0-.87,5.41v7.57a3.87,3.87,0,0,1-.79,2.64,2.66,2.66,0,0,1-2.08.89,2.69,2.69,0,0,1-2.08-.89,3.83,3.83,0,0,1-.81-2.64v-16a3.45,3.45,0,0,1,.73-2.39,2.42,2.42,0,0,1,1.91-.83,2.61,2.61,0,0,1,1.92.77,2.9,2.9,0,0,1,.77,2.13v.53a9.64,9.64,0,0,1,3.12-2.56,8.16,8.16,0,0,1,3.69-.82,7.38,7.38,0,0,1,3.63.84,6.57,6.57,0,0,1,2.5,2.54,9.62,9.62,0,0,1,3-2.55,7.64,7.64,0,0,1,3.58-.83,8.16,8.16,0,0,1,4,.9,5.68,5.68,0,0,1,2.48,2.58,11.82,11.82,0,0,1,.72,4.78v10.93a3.8,3.8,0,0,1-.8,2.65,2.74,2.74,0,0,1-2.11.88,2.69,2.69,0,0,1-2.08-.89,3.83,3.83,0,0,1-.81-2.64v-9.41a20.1,20.1,0,0,0-.16-2.89,3.3,3.3,0,0,0-.83-1.83,2.65,2.65,0,0,0-2.05-.74,3.72,3.72,0,0,0-2.1.66,4.49,4.49,0,0,0-1.55,1.76A14.08,14.08,0,0,0,869.16,385.22Z"/><path d="M901,370.82a2.94,2.94,0,0,1-2-.72,2.79,2.79,0,0,1,0-4,2.85,2.85,0,0,1,2-.77,3,3,0,0,1,1.92.7,2.49,2.49,0,0,1,.84,2,2.54,2.54,0,0,1-.82,2A2.79,2.79,0,0,1,901,370.82Zm2.76,5.78v16.18a3.64,3.64,0,0,1-.79,2.55,2.68,2.68,0,0,1-2,.86,2.53,2.53,0,0,1-2-.88,3.7,3.7,0,0,1-.77-2.53v-16a3.55,3.55,0,0,1,.77-2.5,2.57,2.57,0,0,1,2-.85,2.71,2.71,0,0,1,2,.85A3.26,3.26,0,0,1,903.79,376.6Z"/><path d="M914.75,376.56v.68a11,11,0,0,1,3.28-2.86,8,8,0,0,1,3.85-.91,8.91,8.91,0,0,1,4.76,1.33,9.26,9.26,0,0,1,3.44,3.9,13.59,13.59,0,0,1,1.26,6.07,14.91,14.91,0,0,1-.73,4.74,10.55,10.55,0,0,1-2,3.63,8.77,8.77,0,0,1-6.73,3.05,7.74,7.74,0,0,1-4-1,11.4,11.4,0,0,1-3.1-2.83v8.41q0,3.69-2.69,3.69a2.14,2.14,0,0,1-2.09-.95,6,6,0,0,1-.51-2.78V376.6a3.57,3.57,0,0,1,.69-2.39,2.44,2.44,0,0,1,1.91-.79,2.53,2.53,0,0,1,1.94.81A3.31,3.31,0,0,1,914.75,376.56Zm11,8.14a9.7,9.7,0,0,0-.68-3.8,5.59,5.59,0,0,0-1.88-2.44,4.45,4.45,0,0,0-2.65-.85,5,5,0,0,0-3.91,1.82,8,8,0,0,0-1.59,5.38,7.8,7.8,0,0,0,1.58,5.2,5,5,0,0,0,3.92,1.85,4.48,4.48,0,0,0,2.58-.81,5.53,5.53,0,0,0,1.91-2.43A9.6,9.6,0,0,0,925.72,384.7Z"/><path d="M953.85,388.87a6.46,6.46,0,0,1-4.46,6.47,15.07,15.07,0,0,1-5.36.85,13.2,13.2,0,0,1-5.17-.92,7.68,7.68,0,0,1-3.18-2.31,4.66,4.66,0,0,1-1-2.78,2.15,2.15,0,0,1,.66-1.58,2.23,2.23,0,0,1,1.66-.66,1.92,1.92,0,0,1,1.35.44,4.63,4.63,0,0,1,.9,1.2,6.16,6.16,0,0,0,2.06,2.24,6.23,6.23,0,0,0,3.27.74,4.71,4.71,0,0,0,2.76-.75,2.11,2.11,0,0,0,1.08-1.71,2.34,2.34,0,0,0-1.12-2.16,13.78,13.78,0,0,0-3.68-1.29,31.46,31.46,0,0,1-4.71-1.5,7.86,7.86,0,0,1-2.9-2.09,4.79,4.79,0,0,1-1.08-3.18,5.56,5.56,0,0,1,1-3.17,6.87,6.87,0,0,1,3-2.39,11.28,11.28,0,0,1,4.73-.9,15.6,15.6,0,0,1,3.91.46,9.64,9.64,0,0,1,2.89,1.21,5.81,5.81,0,0,1,1.76,1.68,3.21,3.21,0,0,1,.61,1.8,2.1,2.1,0,0,1-.65,1.58,2.55,2.55,0,0,1-1.83.62,2.24,2.24,0,0,1-1.47-.5,9.68,9.68,0,0,1-1.38-1.47,5,5,0,0,0-1.5-1.31,4.73,4.73,0,0,0-2.34-.5,4.58,4.58,0,0,0-2.52.65,1.89,1.89,0,0,0-1,1.61,1.73,1.73,0,0,0,.74,1.44,6.15,6.15,0,0,0,2,.94q1.25.36,3.45.9a18.17,18.17,0,0,1,4.25,1.52,7,7,0,0,1,2.5,2.08A4.59,4.59,0,0,1,953.85,388.87Z"/><path d="M973.13,393v-.72a12.6,12.6,0,0,1-2.11,2.14,7.94,7.94,0,0,1-2.42,1.28,9.82,9.82,0,0,1-3,.42,7.72,7.72,0,0,1-3.64-.84,6.17,6.17,0,0,1-2.5-2.32,10.35,10.35,0,0,1-1-5.13V376.77a3.59,3.59,0,0,1,.76-2.51,2.56,2.56,0,0,1,2-.84,2.68,2.68,0,0,1,2,.85,3.55,3.55,0,0,1,.78,2.5v9a14.33,14.33,0,0,0,.32,3.27,4,4,0,0,0,1.18,2.07,3.38,3.38,0,0,0,2.31.75,4.73,4.73,0,0,0,2.67-.84,4.9,4.9,0,0,0,1.82-2.19,17.5,17.5,0,0,0,.47-5.21v-6.81a3.55,3.55,0,0,1,.78-2.5,2.66,2.66,0,0,1,2-.85,2.56,2.56,0,0,1,2,.84,3.59,3.59,0,0,1,.76,2.51V393a3.43,3.43,0,0,1-.73,2.4,2.42,2.42,0,0,1-1.87.8,2.46,2.46,0,0,1-1.9-.83A3.36,3.36,0,0,1,973.13,393Z"/><path d="M1002.58,385.22v7.44a3.85,3.85,0,0,1-.8,2.65,2.74,2.74,0,0,1-2.11.88,2.65,2.65,0,0,1-2.06-.88,3.85,3.85,0,0,1-.79-2.65v-8.92a27.38,27.38,0,0,0-.15-3.28,3.54,3.54,0,0,0-.77-1.92,2.51,2.51,0,0,0-2-.75c-1.84,0-3,.63-3.62,1.89a13.13,13.13,0,0,0-.88,5.41v7.57a3.93,3.93,0,0,1-.78,2.64,2.89,2.89,0,0,1-4.17,0,3.83,3.83,0,0,1-.81-2.64v-16a3.45,3.45,0,0,1,.73-2.39,2.43,2.43,0,0,1,1.92-.83,2.64,2.64,0,0,1,1.92.77,2.89,2.89,0,0,1,.76,2.13v.53a9.64,9.64,0,0,1,3.12-2.56,8.19,8.19,0,0,1,3.69-.82,7.38,7.38,0,0,1,3.63.84,6.5,6.5,0,0,1,2.5,2.54,9.73,9.73,0,0,1,3-2.55,7.68,7.68,0,0,1,3.59-.83,8.21,8.21,0,0,1,4,.9A5.78,5.78,0,0,1,1015,377a11.82,11.82,0,0,1,.72,4.78v10.93a3.85,3.85,0,0,1-.8,2.65,2.76,2.76,0,0,1-2.12.88,2.71,2.71,0,0,1-2.08-.89,3.83,3.83,0,0,1-.81-2.64v-9.41a22,22,0,0,0-.15-2.89,3.3,3.3,0,0,0-.83-1.83,2.66,2.66,0,0,0-2-.74,3.78,3.78,0,0,0-2.11.66,4.46,4.46,0,0,0-1.54,1.76A14,14,0,0,0,1002.58,385.22Z"/><path d="M1047,393v-.55a13.83,13.83,0,0,1-2.23,2.1,8.36,8.36,0,0,1-2.37,1.23,9,9,0,0,1-2.8.42,8.4,8.4,0,0,1-3.73-.85,8.81,8.81,0,0,1-3-2.43,11.23,11.23,0,0,1-1.9-3.71,15.92,15.92,0,0,1-.64-4.62q0-5.25,2.56-8.18a8.52,8.52,0,0,1,6.75-2.93,9,9,0,0,1,4.08.83,11.2,11.2,0,0,1,3.24,2.55v-8.27a4.18,4.18,0,0,1,.69-2.6,2.32,2.32,0,0,1,2-.88,2.41,2.41,0,0,1,2,.81,3.61,3.61,0,0,1,.69,2.39V393a3.43,3.43,0,0,1-.74,2.4,2.48,2.48,0,0,1-1.9.8,2.46,2.46,0,0,1-1.9-.83A3.44,3.44,0,0,1,1047,393Zm-11-8.22a9.56,9.56,0,0,0,.7,3.87,5.44,5.44,0,0,0,1.94,2.41,4.8,4.8,0,0,0,2.69.81,5,5,0,0,0,2.7-.77,5.25,5.25,0,0,0,1.94-2.36,9.43,9.43,0,0,0,.73-4,9.22,9.22,0,0,0-.73-3.85,5.81,5.81,0,0,0-2-2.46,4.71,4.71,0,0,0-2.72-.85,4.59,4.59,0,0,0-2.75.87,5.64,5.64,0,0,0-1.88,2.5A10.06,10.06,0,0,0,1036,384.77Z"/><path d="M1078.83,384.81a13.24,13.24,0,0,1-.78,4.61,10.1,10.1,0,0,1-2.26,3.63,10,10,0,0,1-3.52,2.33,12.51,12.51,0,0,1-4.62.81,12,12,0,0,1-4.57-.82,10.22,10.22,0,0,1-3.52-2.35,10.11,10.11,0,0,1-2.25-3.61,13,13,0,0,1-.77-4.6,13.36,13.36,0,0,1,.78-4.66,10.14,10.14,0,0,1,2.23-3.61,9.85,9.85,0,0,1,3.53-2.31,13.28,13.28,0,0,1,9.19,0,9.89,9.89,0,0,1,3.54,2.33,10,10,0,0,1,2.25,3.61A13.41,13.41,0,0,1,1078.83,384.81Zm-5.62,0a8.4,8.4,0,0,0-1.51-5.34,4.88,4.88,0,0,0-4-1.9,5,5,0,0,0-2.89.85,5.41,5.41,0,0,0-1.93,2.51,11.51,11.51,0,0,0,0,7.71,5.48,5.48,0,0,0,1.91,2.51,5,5,0,0,0,2.92.88,4.87,4.87,0,0,0,4-1.92A8.35,8.35,0,0,0,1073.21,384.81Z"/><path d="M1083.24,392.78V368.5A3.76,3.76,0,0,1,1084,366a2.55,2.55,0,0,1,2-.86,2.65,2.65,0,0,1,2,.85,3.67,3.67,0,0,1,.78,2.55v24.28a3.68,3.68,0,0,1-.79,2.56,2.69,2.69,0,0,1-2,.85,2.55,2.55,0,0,1-2-.88A3.75,3.75,0,0,1,1083.24,392.78Z"/><path d="M1115.58,384.81a13.24,13.24,0,0,1-.78,4.61,10.1,10.1,0,0,1-2.26,3.63,10,10,0,0,1-3.52,2.33,12.51,12.51,0,0,1-4.62.81,12,12,0,0,1-4.57-.82,10.22,10.22,0,0,1-3.52-2.35,10.11,10.11,0,0,1-2.25-3.61,13,13,0,0,1-.77-4.6,13.36,13.36,0,0,1,.78-4.66,10.14,10.14,0,0,1,2.23-3.61,9.85,9.85,0,0,1,3.53-2.31,13.28,13.28,0,0,1,9.19,0,9.89,9.89,0,0,1,3.54,2.33,10,10,0,0,1,2.25,3.61A13.41,13.41,0,0,1,1115.58,384.81Zm-5.62,0a8.4,8.4,0,0,0-1.51-5.34,4.88,4.88,0,0,0-4-1.9,5,5,0,0,0-2.89.85,5.41,5.41,0,0,0-1.93,2.51,11.51,11.51,0,0,0,0,7.71,5.48,5.48,0,0,0,1.91,2.51,5,5,0,0,0,2.92.88,4.87,4.87,0,0,0,4-1.92A8.35,8.35,0,0,0,1110,384.81Z"/><path d="M1125.55,388.11v4.67a3.64,3.64,0,0,1-.8,2.56,2.7,2.7,0,0,1-2,.85,2.57,2.57,0,0,1-2-.86,3.69,3.69,0,0,1-.78-2.55V377.2q0-3.78,2.72-3.78a2.28,2.28,0,0,1,2,.89,4.81,4.81,0,0,1,.68,2.6,9.7,9.7,0,0,1,2.06-2.6,4.27,4.27,0,0,1,2.82-.89,7.22,7.22,0,0,1,3.43.89,2.63,2.63,0,0,1,1.66,2.33,2.25,2.25,0,0,1-.71,1.7,2.2,2.2,0,0,1-1.53.66,6.57,6.57,0,0,1-1.48-.38,7,7,0,0,0-2.09-.38,3.05,3.05,0,0,0-2,.65,4.24,4.24,0,0,0-1.21,1.92,13.81,13.81,0,0,0-.59,3C1125.6,385,1125.55,386.43,1125.55,388.11Z"/><path d="M1166.91,388.87a6.5,6.5,0,0,1-4.46,6.47,15.1,15.1,0,0,1-5.36.85,13.17,13.17,0,0,1-5.17-.92,7.55,7.55,0,0,1-3.18-2.31,4.68,4.68,0,0,1-1-2.78,2.15,2.15,0,0,1,.66-1.58,2.25,2.25,0,0,1,1.66-.66,2,2,0,0,1,1.36.44,4.86,4.86,0,0,1,.9,1.2,6.08,6.08,0,0,0,2.06,2.24,6.23,6.23,0,0,0,3.27.74,4.73,4.73,0,0,0,2.76-.75,2.11,2.11,0,0,0,1.08-1.71,2.36,2.36,0,0,0-1.12-2.16,13.92,13.92,0,0,0-3.68-1.29,31.46,31.46,0,0,1-4.71-1.5,7.78,7.78,0,0,1-2.9-2.09,4.74,4.74,0,0,1-1.09-3.18,5.57,5.57,0,0,1,1-3.17,6.81,6.81,0,0,1,3-2.39,11.24,11.24,0,0,1,4.73-.9,15.46,15.46,0,0,1,3.9.46,9.7,9.7,0,0,1,2.9,1.21,5.93,5.93,0,0,1,1.76,1.68,3.28,3.28,0,0,1,.6,1.8,2.09,2.09,0,0,1-.64,1.58,2.58,2.58,0,0,1-1.84.62,2.23,2.23,0,0,1-1.46-.5,9.19,9.19,0,0,1-1.39-1.47,4.8,4.8,0,0,0-1.5-1.31,4.66,4.66,0,0,0-2.33-.5,4.59,4.59,0,0,0-2.53.65,1.88,1.88,0,0,0-1,1.61,1.73,1.73,0,0,0,.74,1.44,6,6,0,0,0,2,.94c.83.24,2,.54,3.44.9a18.1,18.1,0,0,1,4.26,1.52,7.11,7.11,0,0,1,2.5,2.08A4.59,4.59,0,0,1,1166.91,388.87Z"/><path d="M1174.48,370.82a2.94,2.94,0,0,1-2-.72,2.79,2.79,0,0,1,0-4,2.88,2.88,0,0,1,2-.77,3,3,0,0,1,1.93.7,2.49,2.49,0,0,1,.84,2,2.58,2.58,0,0,1-.82,2A2.83,2.83,0,0,1,1174.48,370.82Zm2.77,5.78v16.18a3.64,3.64,0,0,1-.8,2.55,2.67,2.67,0,0,1-2,.86,2.55,2.55,0,0,1-2-.88,3.7,3.7,0,0,1-.77-2.53v-16a3.55,3.55,0,0,1,.77-2.5,2.59,2.59,0,0,1,2-.85,2.7,2.7,0,0,1,2,.85A3.26,3.26,0,0,1,1177.25,376.6Z"/><path d="M1183.34,373.92h.61v-3.37c0-.9,0-1.61.07-2.12a3.3,3.3,0,0,1,.4-1.32,2.5,2.5,0,0,1,.95-.93,2.67,2.67,0,0,1,1.37-.36,2.75,2.75,0,0,1,1.93.8,2.42,2.42,0,0,1,.73,1.3,12.08,12.08,0,0,1,.15,2.18v3.82h2a2.63,2.63,0,0,1,1.82.56,1.89,1.89,0,0,1,.62,1.45,1.61,1.61,0,0,1-.89,1.58,5.79,5.79,0,0,1-2.55.45h-1v10.29a17,17,0,0,0,.09,2,2,2,0,0,0,.5,1.15,1.68,1.68,0,0,0,1.3.44,7.37,7.37,0,0,0,1.33-.17,6.73,6.73,0,0,1,1.31-.18,1.66,1.66,0,0,1,1.22.55,1.8,1.8,0,0,1,.55,1.34,2.26,2.26,0,0,1-1.48,2.07,9.93,9.93,0,0,1-4.24.72,7.41,7.41,0,0,1-4-.88,4.07,4.07,0,0,1-1.78-2.44,16.62,16.62,0,0,1-.42-4.17V378h-.74a2.62,2.62,0,0,1-1.84-.58,1.85,1.85,0,0,1-.64-1.45,1.81,1.81,0,0,1,.67-1.45A2.9,2.9,0,0,1,1183.34,373.92Z"/><path d="M1222.55,393a17.85,17.85,0,0,1-3.93,2.37,10.88,10.88,0,0,1-4.25.79,8.17,8.17,0,0,1-3.79-.85,6.24,6.24,0,0,1-2.51-2.31,6,6,0,0,1-.88-3.16,5.64,5.64,0,0,1,1.45-3.91,7.31,7.31,0,0,1,4-2.18c.36-.08,1.24-.27,2.65-.55s2.61-.55,3.62-.79,2.09-.53,3.27-.87a5.89,5.89,0,0,0-.89-3.25c-.53-.69-1.62-1-3.27-1a6.72,6.72,0,0,0-3.21.6,5.14,5.14,0,0,0-1.85,1.78,18.65,18.65,0,0,1-1.09,1.57,1.78,1.78,0,0,1-1.36.38,2.36,2.36,0,0,1-1.63-.61,2,2,0,0,1-.69-1.55,4.73,4.73,0,0,1,1-2.87,7.45,7.45,0,0,1,3.26-2.29,14.51,14.51,0,0,1,5.52-.91,15.4,15.4,0,0,1,5.8.88,5.39,5.39,0,0,1,3,2.75,12.11,12.11,0,0,1,.87,5c0,1.31,0,2.42,0,3.34s0,1.93,0,3.06a11.23,11.23,0,0,0,.53,3.29,10.16,10.16,0,0,1,.52,2.2,2.05,2.05,0,0,1-.81,1.57,2.72,2.72,0,0,1-1.84.71,2.48,2.48,0,0,1-1.7-.81A12,12,0,0,1,1222.55,393Zm-.37-8.1a27.41,27.41,0,0,1-3.58.95c-1.57.34-2.65.58-3.25.74a4.51,4.51,0,0,0-1.72.92,2.36,2.36,0,0,0-.82,1.92,2.86,2.86,0,0,0,1,2.17,3.57,3.57,0,0,0,2.52.89,6.65,6.65,0,0,0,3.07-.73,4.92,4.92,0,0,0,2.06-1.88,8.49,8.49,0,0,0,.76-4.18Z"/><path d="M1252,385.22v7.44a3.85,3.85,0,0,1-.8,2.65,2.76,2.76,0,0,1-2.12.88,2.68,2.68,0,0,1-2.06-.88,3.9,3.9,0,0,1-.79-2.65v-8.92a27.79,27.79,0,0,0-.14-3.28,3.63,3.63,0,0,0-.78-1.92,2.48,2.48,0,0,0-2-.75c-1.83,0-3,.63-3.62,1.89a13.32,13.32,0,0,0-.87,5.41v7.57a3.87,3.87,0,0,1-.79,2.64,2.66,2.66,0,0,1-2.08.89,2.69,2.69,0,0,1-2.08-.89,3.83,3.83,0,0,1-.81-2.64v-16a3.5,3.5,0,0,1,.72-2.39,2.45,2.45,0,0,1,1.92-.83,2.61,2.61,0,0,1,1.92.77,2.9,2.9,0,0,1,.77,2.13v.53a9.64,9.64,0,0,1,3.12-2.56,8.13,8.13,0,0,1,3.69-.82,7.38,7.38,0,0,1,3.63.84,6.57,6.57,0,0,1,2.5,2.54,9.6,9.6,0,0,1,3-2.55,7.71,7.71,0,0,1,3.59-.83,8.19,8.19,0,0,1,4,.9,5.68,5.68,0,0,1,2.48,2.58,11.82,11.82,0,0,1,.72,4.78v10.93a3.85,3.85,0,0,1-.8,2.65,2.74,2.74,0,0,1-2.11.88,2.69,2.69,0,0,1-2.08-.89,3.83,3.83,0,0,1-.81-2.64v-9.41a20.1,20.1,0,0,0-.16-2.89,3.3,3.3,0,0,0-.83-1.83,2.65,2.65,0,0,0-2-.74,3.72,3.72,0,0,0-2.1.66,4.49,4.49,0,0,0-1.55,1.76A14.08,14.08,0,0,0,1252,385.22Z"/><path d="M1286.14,386.18h-11a7.49,7.49,0,0,0,.77,3.36,5.15,5.15,0,0,0,4.73,2.94,6.54,6.54,0,0,0,1.83-.24,5.84,5.84,0,0,0,1.61-.74,12.23,12.23,0,0,0,1.44-1.07c.44-.39,1-.91,1.7-1.56a1.83,1.83,0,0,1,1.23-.37,2.06,2.06,0,0,1,1.4.47,1.7,1.7,0,0,1,.53,1.33,3.64,3.64,0,0,1-.6,1.78A7,7,0,0,1,1288,394a10,10,0,0,1-3,1.55,12.93,12.93,0,0,1-4.17.62q-5.38,0-8.39-3.08a11.47,11.47,0,0,1-3-8.34,14,14,0,0,1,.74-4.61,10.19,10.19,0,0,1,2.15-3.64,9.36,9.36,0,0,1,3.49-2.33,12.5,12.5,0,0,1,4.59-.81,10.93,10.93,0,0,1,5.63,1.39,9,9,0,0,1,3.52,3.58,9.38,9.38,0,0,1,1.17,4.47c0,1.41-.41,2.32-1.21,2.74A7.66,7.66,0,0,1,1286.14,386.18Zm-11-3.18h10.15a6.73,6.73,0,0,0-1.55-4.29,4.62,4.62,0,0,0-3.53-1.43,4.47,4.47,0,0,0-3.44,1.45A7.21,7.21,0,0,0,1275.19,383Z"/><path d="M1295.78,373.92h.62v-3.37c0-.9,0-1.61.07-2.12a3.15,3.15,0,0,1,.4-1.32,2.47,2.47,0,0,1,.94-.93,2.68,2.68,0,0,1,1.38-.36,2.71,2.71,0,0,1,1.92.8,2.3,2.3,0,0,1,.73,1.3,11.91,11.91,0,0,1,.16,2.18v3.82h2a2.6,2.6,0,0,1,1.81.56,1.86,1.86,0,0,1,.63,1.45,1.62,1.62,0,0,1-.9,1.58,5.77,5.77,0,0,1-2.55.45h-1v10.29a17,17,0,0,0,.09,2,2,2,0,0,0,.49,1.15,1.7,1.7,0,0,0,1.3.44,7.37,7.37,0,0,0,1.33-.17,6.81,6.81,0,0,1,1.32-.18,1.68,1.68,0,0,1,1.22.55,1.82,1.82,0,0,1,.54,1.34,2.25,2.25,0,0,1-1.48,2.07,9.9,9.9,0,0,1-4.24.72,7.41,7.41,0,0,1-4-.88,4.1,4.1,0,0,1-1.77-2.44,16.62,16.62,0,0,1-.42-4.17V378h-.74a2.65,2.65,0,0,1-1.85-.58,1.88,1.88,0,0,1-.63-1.45,1.83,1.83,0,0,1,.66-1.45A2.92,2.92,0,0,1,1295.78,373.92Z"/><path d="M1314.14,396.23a3.51,3.51,0,0,1-2.34-.83,2.87,2.87,0,0,1-1-2.33,2.81,2.81,0,0,1,1-2.17,3.24,3.24,0,0,1,2.27-.88,3.13,3.13,0,0,1,1.79.53,3.49,3.49,0,0,1,1.25,1.57,6.4,6.4,0,0,1,.45,2.55,8.71,8.71,0,0,1-.86,3.81,8.47,8.47,0,0,1-2.1,2.8,3.65,3.65,0,0,1-2.25,1,1.4,1.4,0,0,1-1.43-1.39,1.55,1.55,0,0,1,.84-1.36C1313.34,398.68,1314.14,397.57,1314.14,396.23Z"/><path d="M777.57,439.66a4.8,4.8,0,0,1-.63,2.23,7.56,7.56,0,0,1-1.9,2.27,9.9,9.9,0,0,1-3.23,1.73,13.68,13.68,0,0,1-4.39.66q-5.19,0-8.1-3a11.2,11.2,0,0,1-2.91-8.11,13.35,13.35,0,0,1,1.33-6.09,9.57,9.57,0,0,1,3.85-4.09,13.06,13.06,0,0,1,10-.81,10.34,10.34,0,0,1,3.08,1.64,8,8,0,0,1,1.93,2.14,4.29,4.29,0,0,1,.66,2.13,2.24,2.24,0,0,1-.75,1.7,2.58,2.58,0,0,1-1.81.7,1.83,1.83,0,0,1-1.16-.36,6,6,0,0,1-1-1.16,8.35,8.35,0,0,0-2.14-2.34,5.26,5.26,0,0,0-6.84,1.16,8.39,8.39,0,0,0-1.52,5.3,10.22,10.22,0,0,0,.39,2.9,6.66,6.66,0,0,0,1.13,2.26,4.8,4.8,0,0,0,1.79,1.41,5.4,5.4,0,0,0,2.29.48,5.16,5.16,0,0,0,2.88-.77,6.94,6.94,0,0,0,2.13-2.38,5.64,5.64,0,0,1,1.1-1.48,2.1,2.1,0,0,1,1.46-.53,2.16,2.16,0,0,1,1.7.78A2.5,2.5,0,0,1,777.57,439.66Z"/><path d="M803.41,435.21a13.2,13.2,0,0,1-.78,4.61,10.1,10.1,0,0,1-2.26,3.63,10,10,0,0,1-3.52,2.33,12.51,12.51,0,0,1-4.62.81,12,12,0,0,1-4.57-.82,10.22,10.22,0,0,1-3.52-2.35,10.11,10.11,0,0,1-2.25-3.61,13,13,0,0,1-.77-4.6,13.36,13.36,0,0,1,.78-4.66,10.14,10.14,0,0,1,2.23-3.61,9.82,9.82,0,0,1,3.53-2.3,13.36,13.36,0,0,1,9.19,0,9.89,9.89,0,0,1,3.54,2.33,10.11,10.11,0,0,1,2.25,3.61A13.41,13.41,0,0,1,803.41,435.21Zm-5.62,0a8.35,8.35,0,0,0-1.51-5.33,4.86,4.86,0,0,0-4-1.91,5,5,0,0,0-2.89.85,5.41,5.41,0,0,0-1.93,2.51,11.51,11.51,0,0,0,0,7.71,5.48,5.48,0,0,0,1.91,2.51,5.25,5.25,0,0,0,7-1A8.35,8.35,0,0,0,797.79,435.21Z"/><path d="M812.9,426.92v.68a10,10,0,0,1,3.23-2.86,8.61,8.61,0,0,1,4-.91,8.06,8.06,0,0,1,4,1,6.15,6.15,0,0,1,2.61,2.73,6.44,6.44,0,0,1,.71,2.21,22.76,22.76,0,0,1,.17,3v10.41a3.74,3.74,0,0,1-.77,2.55,2.57,2.57,0,0,1-2,.86,2.61,2.61,0,0,1-2-.88,3.7,3.7,0,0,1-.78-2.53v-9.33a9.36,9.36,0,0,0-.77-4.23,3.12,3.12,0,0,0-3.06-1.47,4.57,4.57,0,0,0-2.73.89,5.23,5.23,0,0,0-1.81,2.46,17.64,17.64,0,0,0-.41,4.67v7a3.63,3.63,0,0,1-.79,2.56,2.63,2.63,0,0,1-2,.85,2.57,2.57,0,0,1-2-.88,3.7,3.7,0,0,1-.78-2.53V427a3.57,3.57,0,0,1,.7-2.39,2.44,2.44,0,0,1,1.91-.78,2.58,2.58,0,0,1,1.33.34,2.52,2.52,0,0,1,1,1.05A3.79,3.79,0,0,1,812.9,426.92Z"/><path d="M851.21,439.27a6.82,6.82,0,0,1-1.13,4,6.9,6.9,0,0,1-3.33,2.5,14.85,14.85,0,0,1-5.36.85,13.2,13.2,0,0,1-5.17-.92,7.68,7.68,0,0,1-3.18-2.31,4.66,4.66,0,0,1-1-2.78,2.17,2.17,0,0,1,.65-1.58,2.26,2.26,0,0,1,1.66-.66,2,2,0,0,1,1.36.44,4.75,4.75,0,0,1,.9,1.21,5.38,5.38,0,0,0,5.33,3,4.73,4.73,0,0,0,2.76-.75,2.11,2.11,0,0,0,1.08-1.71,2.34,2.34,0,0,0-1.12-2.16,13.78,13.78,0,0,0-3.68-1.29,31.46,31.46,0,0,1-4.71-1.5,7.75,7.75,0,0,1-2.9-2.09,4.79,4.79,0,0,1-1.09-3.17,5.58,5.58,0,0,1,1-3.18,6.87,6.87,0,0,1,3-2.39,11.28,11.28,0,0,1,4.73-.89,15.62,15.62,0,0,1,3.91.45,9.75,9.75,0,0,1,2.89,1.21,5.81,5.81,0,0,1,1.76,1.68,3.29,3.29,0,0,1,.61,1.8,2.08,2.08,0,0,1-.65,1.58,2.56,2.56,0,0,1-1.84.62,2.23,2.23,0,0,1-1.46-.5,9.19,9.19,0,0,1-1.39-1.47,4.88,4.88,0,0,0-1.49-1.31,4.73,4.73,0,0,0-2.34-.5,4.58,4.58,0,0,0-2.52.65,1.89,1.89,0,0,0-1,1.61,1.76,1.76,0,0,0,.74,1.45,6.36,6.36,0,0,0,2,.93c.83.24,2,.55,3.44.9a18.1,18.1,0,0,1,4.26,1.52,7.11,7.11,0,0,1,2.5,2.08A4.59,4.59,0,0,1,851.21,439.27Z"/><path d="M871.58,436.58h-11a7.36,7.36,0,0,0,.77,3.36,5.2,5.2,0,0,0,2,2.2,5.29,5.29,0,0,0,2.74.74,6.66,6.66,0,0,0,1.84-.24,6,6,0,0,0,1.61-.74,11.33,11.33,0,0,0,1.43-1.07q.66-.58,1.71-1.56a1.79,1.79,0,0,1,1.23-.37,2.05,2.05,0,0,1,1.39.47,1.66,1.66,0,0,1,.53,1.33,3.61,3.61,0,0,1-.59,1.78,7.34,7.34,0,0,1-1.8,1.95,10.23,10.23,0,0,1-3,1.54,13,13,0,0,1-4.17.62q-5.4,0-8.39-3.08a11.43,11.43,0,0,1-3-8.34,14,14,0,0,1,.74-4.61,10.07,10.07,0,0,1,2.16-3.64,9.32,9.32,0,0,1,3.48-2.33,12.51,12.51,0,0,1,4.6-.81,11,11,0,0,1,5.63,1.39,9.07,9.07,0,0,1,3.51,3.58,9.38,9.38,0,0,1,1.17,4.47c0,1.41-.4,2.32-1.21,2.74A7.64,7.64,0,0,1,871.58,436.58Zm-11-3.18h10.15a6.84,6.84,0,0,0-1.55-4.29,4.66,4.66,0,0,0-3.54-1.43,4.45,4.45,0,0,0-3.43,1.45A7.14,7.14,0,0,0,860.63,433.4Z"/><path d="M901,439.66a4.8,4.8,0,0,1-.63,2.23,7.61,7.61,0,0,1-1.91,2.27,9.8,9.8,0,0,1-3.23,1.73,13.63,13.63,0,0,1-4.39.66c-3.45,0-6.16-1-8.1-3a11.2,11.2,0,0,1-2.91-8.11,13.48,13.48,0,0,1,1.33-6.09,9.59,9.59,0,0,1,3.86-4.09,12,12,0,0,1,6-1.45,12.1,12.1,0,0,1,4,.64,10.28,10.28,0,0,1,3.07,1.64A7.79,7.79,0,0,1,900,428.2a4.21,4.21,0,0,1,.67,2.13A2.24,2.24,0,0,1,900,432a2.59,2.59,0,0,1-1.82.7,1.8,1.8,0,0,1-1.15-.36,5.66,5.66,0,0,1-1-1.16,8.5,8.5,0,0,0-2.14-2.34A5.26,5.26,0,0,0,887,430a8.39,8.39,0,0,0-1.52,5.3,10.22,10.22,0,0,0,.39,2.9,6.66,6.66,0,0,0,1.13,2.26,4.77,4.77,0,0,0,1.78,1.41,5.48,5.48,0,0,0,2.3.48,5.16,5.16,0,0,0,2.88-.77,6.82,6.82,0,0,0,2.12-2.38,5.44,5.44,0,0,1,1.11-1.48,2.09,2.09,0,0,1,1.46-.53,2.16,2.16,0,0,1,1.7.78A2.5,2.5,0,0,1,901,439.66Z"/><path d="M906.17,424.32h.62V421c0-.9,0-1.61.07-2.12a3.15,3.15,0,0,1,.4-1.32,2.47,2.47,0,0,1,.94-.93,2.68,2.68,0,0,1,1.38-.36,2.75,2.75,0,0,1,1.93.8,2.34,2.34,0,0,1,.72,1.3,11.07,11.07,0,0,1,.16,2.18v3.82h2.05a2.63,2.63,0,0,1,1.81.56,1.86,1.86,0,0,1,.63,1.45,1.63,1.63,0,0,1-.89,1.58,5.84,5.84,0,0,1-2.56.45h-1v10.29a17,17,0,0,0,.09,2,2.09,2.09,0,0,0,.49,1.15,1.7,1.7,0,0,0,1.3.44,7.46,7.46,0,0,0,1.34-.17,6.73,6.73,0,0,1,1.31-.18,1.66,1.66,0,0,1,1.22.55,1.82,1.82,0,0,1,.54,1.34,2.25,2.25,0,0,1-1.47,2.07,10,10,0,0,1-4.25.72,7.43,7.43,0,0,1-4-.88,4.1,4.1,0,0,1-1.77-2.44,16.62,16.62,0,0,1-.42-4.17V428.36h-.74a2.6,2.6,0,0,1-1.84-.58,1.84,1.84,0,0,1-.64-1.45,1.81,1.81,0,0,1,.67-1.45A2.94,2.94,0,0,1,906.17,424.32Z"/><path d="M936.36,436.58h-11a7.36,7.36,0,0,0,.77,3.36,5.22,5.22,0,0,0,2,2.2,5.29,5.29,0,0,0,2.74.74,6.54,6.54,0,0,0,1.83-.24,5.84,5.84,0,0,0,1.61-.74,12.23,12.23,0,0,0,1.44-1.07l1.7-1.56a1.83,1.83,0,0,1,1.23-.37,2,2,0,0,1,1.39.47,1.67,1.67,0,0,1,.54,1.33,3.64,3.64,0,0,1-.6,1.78,7.12,7.12,0,0,1-1.79,1.95,10.29,10.29,0,0,1-3,1.54,13,13,0,0,1-4.17.62c-3.6,0-6.39-1-8.39-3.08a11.47,11.47,0,0,1-3-8.34,13.76,13.76,0,0,1,.74-4.61,10.19,10.19,0,0,1,2.15-3.64,9.36,9.36,0,0,1,3.49-2.33,12.5,12.5,0,0,1,4.59-.81,10.93,10.93,0,0,1,5.63,1.39,9.09,9.09,0,0,1,3.52,3.58,9.38,9.38,0,0,1,1.17,4.47c0,1.41-.41,2.32-1.21,2.74A7.69,7.69,0,0,1,936.36,436.58Zm-11-3.18h10.15a6.79,6.79,0,0,0-1.55-4.29,4.62,4.62,0,0,0-3.53-1.43,4.47,4.47,0,0,0-3.44,1.45A7.21,7.21,0,0,0,925.41,433.4Z"/><path d="M946,424.32h.62V421c0-.9,0-1.61.07-2.12a3,3,0,0,1,.4-1.32,2.47,2.47,0,0,1,.94-.93,2.67,2.67,0,0,1,1.37-.36,2.72,2.72,0,0,1,1.93.8,2.36,2.36,0,0,1,.73,1.3,12.08,12.08,0,0,1,.15,2.18v3.82h2a2.66,2.66,0,0,1,1.82.56,1.86,1.86,0,0,1,.63,1.45,1.62,1.62,0,0,1-.9,1.58,5.77,5.77,0,0,1-2.55.45h-1v10.29a14.79,14.79,0,0,0,.1,2,2,2,0,0,0,.49,1.15,1.68,1.68,0,0,0,1.3.44,7.37,7.37,0,0,0,1.33-.17,6.72,6.72,0,0,1,1.32-.18,1.68,1.68,0,0,1,1.22.55,1.82,1.82,0,0,1,.54,1.34,2.25,2.25,0,0,1-1.48,2.07,9.93,9.93,0,0,1-4.24.72,7.41,7.41,0,0,1-4-.88,4.1,4.1,0,0,1-1.77-2.44,16.62,16.62,0,0,1-.42-4.17V428.36h-.74a2.65,2.65,0,0,1-1.85-.58,1.86,1.86,0,0,1-.63-1.45,1.83,1.83,0,0,1,.66-1.45A3,3,0,0,1,946,424.32Z"/><path d="M975.1,443.43v-.72a12.6,12.6,0,0,1-2.11,2.14,7.94,7.94,0,0,1-2.42,1.28,9.84,9.84,0,0,1-3,.42,7.78,7.78,0,0,1-3.64-.84,6.2,6.2,0,0,1-2.49-2.32,10.35,10.35,0,0,1-1-5.13V427.17a3.59,3.59,0,0,1,.76-2.51,2.55,2.55,0,0,1,2-.83,2.68,2.68,0,0,1,2.05.84,3.55,3.55,0,0,1,.78,2.5v9a13.78,13.78,0,0,0,.32,3.27,3.93,3.93,0,0,0,1.18,2.07,3.38,3.38,0,0,0,2.31.75,4.73,4.73,0,0,0,2.67-.84,4.9,4.9,0,0,0,1.82-2.19,17.5,17.5,0,0,0,.47-5.21v-6.81a3.55,3.55,0,0,1,.78-2.5,2.65,2.65,0,0,1,2-.84,2.55,2.55,0,0,1,2,.83,3.59,3.59,0,0,1,.76,2.51v16.22a3.43,3.43,0,0,1-.73,2.4,2.42,2.42,0,0,1-1.87.8,2.46,2.46,0,0,1-1.9-.83A3.36,3.36,0,0,1,975.1,443.43Z"/><path d="M1001.56,436.58h-11a7.49,7.49,0,0,0,.77,3.36,5.15,5.15,0,0,0,4.73,2.94,6.66,6.66,0,0,0,1.84-.24,6,6,0,0,0,1.61-.74,12.1,12.1,0,0,0,1.43-1.07c.44-.39,1-.91,1.7-1.56a1.83,1.83,0,0,1,1.23-.37,2.06,2.06,0,0,1,1.4.47,1.7,1.7,0,0,1,.53,1.33,3.71,3.71,0,0,1-.59,1.78,7.34,7.34,0,0,1-1.8,1.95,10.23,10.23,0,0,1-3,1.54,13,13,0,0,1-4.18.62c-3.59,0-6.39-1-8.38-3.08a11.43,11.43,0,0,1-3-8.34,14,14,0,0,1,.74-4.61,10.19,10.19,0,0,1,2.15-3.64,9.44,9.44,0,0,1,3.49-2.33,12.5,12.5,0,0,1,4.59-.81,10.9,10.9,0,0,1,5.63,1.39,9,9,0,0,1,3.52,3.58,9.38,9.38,0,0,1,1.17,4.47c0,1.41-.4,2.32-1.21,2.74A7.64,7.64,0,0,1,1001.56,436.58Zm-11-3.18h10.16a6.84,6.84,0,0,0-1.55-4.29,4.66,4.66,0,0,0-3.54-1.43,4.49,4.49,0,0,0-3.44,1.45A7.27,7.27,0,0,0,990.6,433.4Z"/><path d="M1016.44,438.51v4.67a3.59,3.59,0,0,1-.8,2.56,2.65,2.65,0,0,1-2,.85,2.55,2.55,0,0,1-2-.86,3.69,3.69,0,0,1-.78-2.55V427.6c0-2.52.9-3.77,2.72-3.77a2.27,2.27,0,0,1,2,.88,4.81,4.81,0,0,1,.68,2.6,9.7,9.7,0,0,1,2.06-2.6,4.23,4.23,0,0,1,2.82-.88,7.21,7.21,0,0,1,3.43.88,2.63,2.63,0,0,1,1.66,2.33,2.25,2.25,0,0,1-.71,1.7,2.2,2.2,0,0,1-1.53.66,6.74,6.74,0,0,1-1.49-.38,7,7,0,0,0-2.08-.38,3.05,3.05,0,0,0-2,.65,4.16,4.16,0,0,0-1.21,1.92,13.81,13.81,0,0,0-.59,3C1016.5,435.4,1016.44,436.83,1016.44,438.51Z"/><path d="M1053.93,443.43a17.57,17.57,0,0,1-3.92,2.37,11,11,0,0,1-4.26.79,8,8,0,0,1-3.78-.85,6.27,6.27,0,0,1-2.52-2.31,6,6,0,0,1-.88-3.16,5.65,5.65,0,0,1,1.46-3.91,7.28,7.28,0,0,1,4-2.18l2.64-.55c1.41-.29,2.62-.55,3.62-.79s2.1-.53,3.27-.87a5.73,5.73,0,0,0-.89-3.25c-.53-.69-1.62-1-3.27-1a6.78,6.78,0,0,0-3.21.6,5.11,5.11,0,0,0-1.84,1.78c-.52.79-.88,1.32-1.09,1.57a1.81,1.81,0,0,1-1.37.38,2.38,2.38,0,0,1-1.63-.61,2,2,0,0,1-.68-1.55,4.78,4.78,0,0,1,1-2.87,7.51,7.51,0,0,1,3.26-2.29,14.55,14.55,0,0,1,5.52-.91,15.36,15.36,0,0,1,5.8.88,5.41,5.41,0,0,1,3,2.75,12.11,12.11,0,0,1,.87,5c0,1.31,0,2.42,0,3.34s0,1.94,0,3.06a11.2,11.2,0,0,0,.52,3.29,10.16,10.16,0,0,1,.52,2.2,2.05,2.05,0,0,1-.81,1.57,2.72,2.72,0,0,1-1.83.71,2.46,2.46,0,0,1-1.7-.81A12,12,0,0,1,1053.93,443.43Zm-.37-8.1a27.41,27.41,0,0,1-3.58.95c-1.56.34-2.64.58-3.25.74a4.59,4.59,0,0,0-1.72.92,2.36,2.36,0,0,0-.82,1.92,2.84,2.84,0,0,0,1,2.17,3.57,3.57,0,0,0,2.52.89,6.46,6.46,0,0,0,3.06-.73,4.8,4.8,0,0,0,2.06-1.88,8.49,8.49,0,0,0,.76-4.18Z"/><path d="M1080.08,443.39v-.55a13.83,13.83,0,0,1-2.23,2.1,8.36,8.36,0,0,1-2.37,1.23,9,9,0,0,1-2.8.42,8.27,8.27,0,0,1-3.73-.85,8.81,8.81,0,0,1-3-2.43,11.23,11.23,0,0,1-1.9-3.71,15.92,15.92,0,0,1-.64-4.62q0-5.25,2.56-8.18a8.52,8.52,0,0,1,6.75-2.93,9,9,0,0,1,4.08.83,11.2,11.2,0,0,1,3.24,2.55V419a4.19,4.19,0,0,1,.69-2.61,2.32,2.32,0,0,1,2-.88,2.41,2.41,0,0,1,2,.81,3.61,3.61,0,0,1,.69,2.39v24.69a3.38,3.38,0,0,1-.74,2.4,2.48,2.48,0,0,1-1.9.8,2.46,2.46,0,0,1-1.9-.83A3.42,3.42,0,0,1,1080.08,443.39Zm-11-8.22a9.56,9.56,0,0,0,.7,3.87,5.44,5.44,0,0,0,1.94,2.41,4.8,4.8,0,0,0,2.69.81,4.93,4.93,0,0,0,2.7-.77,5.25,5.25,0,0,0,1.94-2.36,9.43,9.43,0,0,0,.73-4,9.22,9.22,0,0,0-.73-3.85,5.81,5.81,0,0,0-2-2.46,4.71,4.71,0,0,0-2.72-.85,4.59,4.59,0,0,0-2.75.87,5.64,5.64,0,0,0-1.88,2.5A10.06,10.06,0,0,0,1069.07,435.17Z"/><path d="M1093.82,421.22a2.94,2.94,0,0,1-2-.72,2.79,2.79,0,0,1,0-4,2.87,2.87,0,0,1,2-.76,3,3,0,0,1,1.93.69,2.49,2.49,0,0,1,.84,2,2.54,2.54,0,0,1-.82,2A2.83,2.83,0,0,1,1093.82,421.22Zm2.77,5.78v16.18a3.64,3.64,0,0,1-.8,2.55,2.66,2.66,0,0,1-2,.86,2.55,2.55,0,0,1-2-.88,3.75,3.75,0,0,1-.77-2.53v-16a3.6,3.6,0,0,1,.77-2.5,2.58,2.58,0,0,1,2-.84,2.68,2.68,0,0,1,2,.84A3.26,3.26,0,0,1,1096.59,427Z"/><path d="M1107.54,427v.68a11.08,11.08,0,0,1,3.28-2.86,8,8,0,0,1,3.86-.91,8.87,8.87,0,0,1,4.75,1.33,9.19,9.19,0,0,1,3.44,3.9,13.59,13.59,0,0,1,1.26,6.07,14.64,14.64,0,0,1-.73,4.74,10.39,10.39,0,0,1-2,3.63,8.72,8.72,0,0,1-3,2.26,8.84,8.84,0,0,1-3.72.79,7.81,7.81,0,0,1-4-1,11.49,11.49,0,0,1-3.11-2.84v8.41q0,3.69-2.69,3.69a2.14,2.14,0,0,1-2.09-.95,6,6,0,0,1-.51-2.78V427a3.52,3.52,0,0,1,.7-2.39,2.42,2.42,0,0,1,1.9-.78,2.51,2.51,0,0,1,1.94.81A3.29,3.29,0,0,1,1107.54,427Zm11,8.14a9.52,9.52,0,0,0-.68-3.8,5.57,5.57,0,0,0-1.87-2.44,4.48,4.48,0,0,0-2.66-.85,5,5,0,0,0-3.9,1.82,8,8,0,0,0-1.59,5.38,7.75,7.75,0,0,0,1.58,5.2,4.94,4.94,0,0,0,3.91,1.85,4.53,4.53,0,0,0,2.59-.81,5.52,5.52,0,0,0,1.9-2.43A9.6,9.6,0,0,0,1118.51,435.1Z"/><path d="M1131.45,421.22a3,3,0,0,1-2-.72,2.79,2.79,0,0,1,0-4,2.87,2.87,0,0,1,2-.76,3,3,0,0,1,1.93.69,2.49,2.49,0,0,1,.84,2,2.54,2.54,0,0,1-.82,2A2.83,2.83,0,0,1,1131.45,421.22Zm2.77,5.78v16.18a3.64,3.64,0,0,1-.8,2.55,2.66,2.66,0,0,1-2,.86,2.55,2.55,0,0,1-2-.88,3.75,3.75,0,0,1-.77-2.53v-16a3.6,3.6,0,0,1,.77-2.5,2.58,2.58,0,0,1,2-.84,2.68,2.68,0,0,1,2,.84A3.26,3.26,0,0,1,1134.22,427Z"/><path d="M1158,439.27a6.5,6.5,0,0,1-4.46,6.47,14.88,14.88,0,0,1-5.36.85,13.17,13.17,0,0,1-5.17-.92,7.55,7.55,0,0,1-3.18-2.31,4.68,4.68,0,0,1-1-2.78,2.15,2.15,0,0,1,.66-1.58,2.25,2.25,0,0,1,1.66-.66,2,2,0,0,1,1.36.44,4.75,4.75,0,0,1,.9,1.21,6.12,6.12,0,0,0,2.06,2.23,6.23,6.23,0,0,0,3.27.74,4.73,4.73,0,0,0,2.76-.75,2.11,2.11,0,0,0,1.08-1.71,2.36,2.36,0,0,0-1.12-2.16,13.92,13.92,0,0,0-3.68-1.29,31.46,31.46,0,0,1-4.71-1.5,7.67,7.67,0,0,1-2.9-2.09,4.73,4.73,0,0,1-1.09-3.17,5.58,5.58,0,0,1,1-3.18,6.81,6.81,0,0,1,3-2.39,11.25,11.25,0,0,1,4.73-.89,15.48,15.48,0,0,1,3.9.45,9.7,9.7,0,0,1,2.9,1.21,5.93,5.93,0,0,1,1.76,1.68,3.28,3.28,0,0,1,.6,1.8,2.07,2.07,0,0,1-.64,1.58,2.58,2.58,0,0,1-1.84.62,2.23,2.23,0,0,1-1.46-.5,9.19,9.19,0,0,1-1.39-1.47,4.8,4.8,0,0,0-1.5-1.31,4.66,4.66,0,0,0-2.33-.5,4.59,4.59,0,0,0-2.53.65,1.88,1.88,0,0,0-1,1.61,1.76,1.76,0,0,0,.74,1.45,6.26,6.26,0,0,0,2,.93c.83.24,2,.55,3.44.9a18.1,18.1,0,0,1,4.26,1.52,7.11,7.11,0,0,1,2.5,2.08A4.59,4.59,0,0,1,1158,439.27Z"/><path d="M1182.84,439.66a4.78,4.78,0,0,1-.62,2.23,7.61,7.61,0,0,1-1.91,2.27,9.8,9.8,0,0,1-3.23,1.73,13.63,13.63,0,0,1-4.39.66q-5.19,0-8.1-3a11.2,11.2,0,0,1-2.91-8.11,13.48,13.48,0,0,1,1.33-6.09,9.59,9.59,0,0,1,3.86-4.09,12,12,0,0,1,6-1.45,12.1,12.1,0,0,1,4,.64,10.28,10.28,0,0,1,3.07,1.64,7.79,7.79,0,0,1,1.93,2.14,4.31,4.31,0,0,1,.67,2.13,2.24,2.24,0,0,1-.75,1.7,2.59,2.59,0,0,1-1.82.7,1.84,1.84,0,0,1-1.16-.36,6,6,0,0,1-1-1.16,8.5,8.5,0,0,0-2.14-2.34,5.26,5.26,0,0,0-6.84,1.16,8.39,8.39,0,0,0-1.52,5.3,10.22,10.22,0,0,0,.39,2.9,6.66,6.66,0,0,0,1.13,2.26,4.77,4.77,0,0,0,1.78,1.41,5.44,5.44,0,0,0,2.3.48,5.16,5.16,0,0,0,2.88-.77,6.82,6.82,0,0,0,2.12-2.38,5.44,5.44,0,0,1,1.11-1.48,2.09,2.09,0,0,1,1.46-.53,2.16,2.16,0,0,1,1.7.78A2.49,2.49,0,0,1,1182.84,439.66Z"/><path d="M1190.56,421.22a2.94,2.94,0,0,1-2-.72,2.79,2.79,0,0,1,0-4,2.84,2.84,0,0,1,2-.76,2.94,2.94,0,0,1,1.92.69,2.49,2.49,0,0,1,.84,2,2.54,2.54,0,0,1-.82,2A2.79,2.79,0,0,1,1190.56,421.22Zm2.76,5.78v16.18a3.6,3.6,0,0,1-.8,2.55,2.66,2.66,0,0,1-2,.86,2.56,2.56,0,0,1-2-.88,3.75,3.75,0,0,1-.76-2.53v-16a3.6,3.6,0,0,1,.76-2.5,2.6,2.6,0,0,1,2-.84,2.68,2.68,0,0,1,2,.84A3.22,3.22,0,0,1,1193.32,427Z"/><path d="M1204.19,426.92v.68a9.85,9.85,0,0,1,3.23-2.86,8.61,8.61,0,0,1,4-.91,8.06,8.06,0,0,1,4,1,6.15,6.15,0,0,1,2.61,2.73,6.66,6.66,0,0,1,.71,2.21,22.76,22.76,0,0,1,.17,3v10.41a3.74,3.74,0,0,1-.77,2.55,2.57,2.57,0,0,1-2,.86,2.6,2.6,0,0,1-2-.88,3.7,3.7,0,0,1-.78-2.53v-9.33a9.36,9.36,0,0,0-.77-4.23c-.51-1-1.53-1.47-3.07-1.47a4.56,4.56,0,0,0-2.72.89,5.17,5.17,0,0,0-1.81,2.46,17.64,17.64,0,0,0-.41,4.67v7a3.63,3.63,0,0,1-.79,2.56,2.63,2.63,0,0,1-2,.85,2.57,2.57,0,0,1-2-.88,3.7,3.7,0,0,1-.78-2.53V427a3.57,3.57,0,0,1,.7-2.39,2.44,2.44,0,0,1,1.91-.78,2.61,2.61,0,0,1,1.33.34,2.5,2.5,0,0,1,.95,1.05A3.65,3.65,0,0,1,1204.19,426.92Z"/><path d="M1245.07,427.93v16.26a16.9,16.9,0,0,1-.6,4.8,7.63,7.63,0,0,1-1.91,3.32,8,8,0,0,1-3.43,1.95,18.89,18.89,0,0,1-5.28.63,15.37,15.37,0,0,1-5.17-.81,8.85,8.85,0,0,1-3.51-2.09,3.8,3.8,0,0,1-1.23-2.63,2.15,2.15,0,0,1,.7-1.67,2.39,2.39,0,0,1,1.68-.65,2.73,2.73,0,0,1,2.15,1.09l.94,1.11a5.38,5.38,0,0,0,1.06,1,4.11,4.11,0,0,0,1.41.59,8.18,8.18,0,0,0,1.89.2,7.54,7.54,0,0,0,3.37-.61,3.41,3.41,0,0,0,1.68-1.69,6.69,6.69,0,0,0,.56-2.33c.06-.82.1-2.15.13-4a9.13,9.13,0,0,1-3,2.75,8.12,8.12,0,0,1-4,.95,8.48,8.48,0,0,1-4.91-1.44,9.2,9.2,0,0,1-3.23-4,14.82,14.82,0,0,1-1.13-6,14.07,14.07,0,0,1,.69-4.55,9.56,9.56,0,0,1,2-3.42,8.59,8.59,0,0,1,2.93-2.11,9.28,9.28,0,0,1,3.65-.7,8.8,8.8,0,0,1,4.13.91,10.07,10.07,0,0,1,3.24,2.86v-.76a3.23,3.23,0,0,1,.71-2.25,2.36,2.36,0,0,1,1.85-.8,2.17,2.17,0,0,1,2.15,1.05A6.88,6.88,0,0,1,1245.07,427.93ZM1228.84,435a7.76,7.76,0,0,0,1.49,5.15,4.82,4.82,0,0,0,3.85,1.74,5,5,0,0,0,2.63-.75,5.43,5.43,0,0,0,2-2.25,7.91,7.91,0,0,0,.78-3.66,8.35,8.35,0,0,0-1.51-5.33,4.78,4.78,0,0,0-4-1.91,4.67,4.67,0,0,0-3.84,1.82A8.22,8.22,0,0,0,1228.84,435Z"/><path d="M1276.85,436.58H1265.9a7.49,7.49,0,0,0,.77,3.36,5.22,5.22,0,0,0,2,2.2,5.29,5.29,0,0,0,2.74.74,6.54,6.54,0,0,0,1.83-.24,5.84,5.84,0,0,0,1.61-.74,12.23,12.23,0,0,0,1.44-1.07c.44-.39,1-.91,1.7-1.56a1.83,1.83,0,0,1,1.23-.37,2.06,2.06,0,0,1,1.4.47,1.7,1.7,0,0,1,.53,1.33,3.64,3.64,0,0,1-.6,1.78,7.12,7.12,0,0,1-1.79,1.95,10.17,10.17,0,0,1-3,1.54,12.93,12.93,0,0,1-4.17.62q-5.38,0-8.39-3.08a11.47,11.47,0,0,1-3-8.34,14,14,0,0,1,.74-4.61,10.19,10.19,0,0,1,2.15-3.64,9.36,9.36,0,0,1,3.49-2.33,12.5,12.5,0,0,1,4.59-.81,10.93,10.93,0,0,1,5.63,1.39,9,9,0,0,1,3.52,3.58,9.38,9.38,0,0,1,1.17,4.47c0,1.41-.41,2.32-1.21,2.74A7.66,7.66,0,0,1,1276.85,436.58Zm-10.95-3.18h10.15a6.73,6.73,0,0,0-1.55-4.29,4.62,4.62,0,0,0-3.53-1.43,4.47,4.47,0,0,0-3.44,1.45A7.21,7.21,0,0,0,1265.9,433.4Z"/><path d="M1286.18,443.18V418.9a3.76,3.76,0,0,1,.75-2.54,2.55,2.55,0,0,1,2-.86,2.63,2.63,0,0,1,2,.85,3.67,3.67,0,0,1,.78,2.55v24.28a3.63,3.63,0,0,1-.79,2.56,2.63,2.63,0,0,1-2,.85,2.56,2.56,0,0,1-2-.88A3.75,3.75,0,0,1,1286.18,443.18Z"/><path d="M1300.4,421.22a2.94,2.94,0,0,1-2-.72,2.79,2.79,0,0,1,0-4,2.84,2.84,0,0,1,2-.76,2.94,2.94,0,0,1,1.92.69,2.49,2.49,0,0,1,.84,2,2.54,2.54,0,0,1-.82,2A2.79,2.79,0,0,1,1300.4,421.22Zm2.76,5.78v16.18a3.6,3.6,0,0,1-.8,2.55,2.66,2.66,0,0,1-2,.86,2.56,2.56,0,0,1-2-.88,3.75,3.75,0,0,1-.76-2.53v-16a3.6,3.6,0,0,1,.76-2.5,2.6,2.6,0,0,1,2-.84,2.68,2.68,0,0,1,2,.84A3.22,3.22,0,0,1,1303.16,427Z"/><path d="M1309.25,424.32h.62V421c0-.9,0-1.61.07-2.12a3.15,3.15,0,0,1,.4-1.32,2.5,2.5,0,0,1,1-.93,2.64,2.64,0,0,1,1.37-.36,2.75,2.75,0,0,1,1.93.8,2.42,2.42,0,0,1,.73,1.3,12.08,12.08,0,0,1,.15,2.18v3.82h2a2.63,2.63,0,0,1,1.81.56,1.86,1.86,0,0,1,.63,1.45,1.63,1.63,0,0,1-.89,1.58,5.84,5.84,0,0,1-2.56.45h-1v10.29a17,17,0,0,0,.09,2,2.09,2.09,0,0,0,.49,1.15,1.71,1.71,0,0,0,1.31.44,7.48,7.48,0,0,0,1.33-.17,6.73,6.73,0,0,1,1.31-.18,1.66,1.66,0,0,1,1.22.55,1.82,1.82,0,0,1,.54,1.34,2.25,2.25,0,0,1-1.47,2.07,10,10,0,0,1-4.25.72,7.43,7.43,0,0,1-4-.88,4.1,4.1,0,0,1-1.77-2.44,16.62,16.62,0,0,1-.42-4.17V428.36h-.74a2.62,2.62,0,0,1-1.84-.58,1.84,1.84,0,0,1-.64-1.45,1.81,1.81,0,0,1,.67-1.45A2.94,2.94,0,0,1,1309.25,424.32Z"/><path d="M1327.61,446.63a3.54,3.54,0,0,1-2.34-.83,2.89,2.89,0,0,1-1-2.33,2.83,2.83,0,0,1,1-2.17,3.25,3.25,0,0,1,2.28-.88,3.1,3.1,0,0,1,1.78.53,3.49,3.49,0,0,1,1.25,1.57,6.4,6.4,0,0,1,.45,2.55,8.57,8.57,0,0,1-.86,3.81,8.35,8.35,0,0,1-2.1,2.81,3.69,3.69,0,0,1-2.25,1,1.36,1.36,0,0,1-1-.42,1.35,1.35,0,0,1-.4-1,1.55,1.55,0,0,1,.84-1.36C1326.81,449.08,1327.61,448,1327.61,446.63Z"/><path d="M775.52,489.67a6.5,6.5,0,0,1-4.46,6.47,14.88,14.88,0,0,1-5.36.85,13.17,13.17,0,0,1-5.17-.92,7.55,7.55,0,0,1-3.18-2.31,4.68,4.68,0,0,1-1-2.78,2.15,2.15,0,0,1,.66-1.58,2.25,2.25,0,0,1,1.66-.66,1.91,1.91,0,0,1,1.35.44,4.54,4.54,0,0,1,.91,1.21,6.12,6.12,0,0,0,2.06,2.23,6.23,6.23,0,0,0,3.27.74,4.73,4.73,0,0,0,2.76-.75,2.12,2.12,0,0,0,1.07-1.71,2.35,2.35,0,0,0-1.11-2.16,14,14,0,0,0-3.69-1.29,31.67,31.67,0,0,1-4.7-1.5,7.67,7.67,0,0,1-2.9-2.09,4.73,4.73,0,0,1-1.09-3.17,5.56,5.56,0,0,1,1-3.18,6.84,6.84,0,0,1,3-2.39,11.23,11.23,0,0,1,4.72-.89,15.56,15.56,0,0,1,3.91.45,9.53,9.53,0,0,1,2.89,1.21,5.85,5.85,0,0,1,1.77,1.68,3.28,3.28,0,0,1,.6,1.8,2.07,2.07,0,0,1-.64,1.58,2.59,2.59,0,0,1-1.84.62,2.28,2.28,0,0,1-1.47-.5,9.68,9.68,0,0,1-1.38-1.47,4.8,4.8,0,0,0-1.5-1.31,4.67,4.67,0,0,0-2.34-.5,4.58,4.58,0,0,0-2.52.65,1.88,1.88,0,0,0-1,1.61,1.73,1.73,0,0,0,.74,1.45,6.3,6.3,0,0,0,2,.93c.84.24,2,.55,3.45.9a18.27,18.27,0,0,1,4.26,1.52,7.11,7.11,0,0,1,2.5,2.08A4.66,4.66,0,0,1,775.52,489.67Z"/><path d="M795.88,487h-11a7.49,7.49,0,0,0,.77,3.36,5.15,5.15,0,0,0,4.73,2.94,6.54,6.54,0,0,0,1.83-.24,5.84,5.84,0,0,0,1.61-.74,12.23,12.23,0,0,0,1.44-1.07c.44-.39,1-.91,1.7-1.56a1.83,1.83,0,0,1,1.23-.37,2.06,2.06,0,0,1,1.4.47,1.7,1.7,0,0,1,.53,1.33,3.64,3.64,0,0,1-.6,1.78,7.12,7.12,0,0,1-1.79,1.95,10.23,10.23,0,0,1-3,1.54,13,13,0,0,1-4.18.62q-5.39,0-8.39-3.08a11.47,11.47,0,0,1-3-8.34A14,14,0,0,1,780,481a10.19,10.19,0,0,1,2.15-3.64,9.36,9.36,0,0,1,3.49-2.33,12.5,12.5,0,0,1,4.59-.81,10.9,10.9,0,0,1,5.63,1.39,9,9,0,0,1,3.52,3.58,9.38,9.38,0,0,1,1.17,4.47c0,1.41-.41,2.32-1.21,2.74A7.66,7.66,0,0,1,795.88,487Zm-11-3.18h10.15a6.73,6.73,0,0,0-1.55-4.29,4.62,4.62,0,0,0-3.53-1.43,4.47,4.47,0,0,0-3.44,1.45A7.21,7.21,0,0,0,784.93,483.8Z"/><path d="M820.55,493.79v-.55a14.23,14.23,0,0,1-2.22,2.1,8.42,8.42,0,0,1-2.38,1.23,8.94,8.94,0,0,1-2.8.42,8.2,8.2,0,0,1-3.72-.85,8.85,8.85,0,0,1-3-2.43,11.21,11.21,0,0,1-1.89-3.71,15.92,15.92,0,0,1-.65-4.62q0-5.25,2.57-8.18a8.48,8.48,0,0,1,6.74-2.93,8.93,8.93,0,0,1,4.08.83,11.2,11.2,0,0,1,3.24,2.55v-8.26a4.19,4.19,0,0,1,.69-2.61,2.33,2.33,0,0,1,2-.88,2.43,2.43,0,0,1,2,.81,3.61,3.61,0,0,1,.68,2.39v24.69a3.43,3.43,0,0,1-.73,2.4,2.51,2.51,0,0,1-1.91.8,2.46,2.46,0,0,1-1.9-.83A3.44,3.44,0,0,1,820.55,493.79Zm-11-8.22a9.55,9.55,0,0,0,.71,3.87,5.38,5.38,0,0,0,1.94,2.41,4.77,4.77,0,0,0,2.68.81,4.89,4.89,0,0,0,2.7-.77,5.33,5.33,0,0,0,1.95-2.36,9.59,9.59,0,0,0,.73-4,9.38,9.38,0,0,0-.73-3.85,5.83,5.83,0,0,0-2-2.46,4.69,4.69,0,0,0-2.72-.85,4.61,4.61,0,0,0-2.75.87,5.63,5.63,0,0,0-1.87,2.5A9.86,9.86,0,0,0,809.54,485.57Z"/><path d="M857.3,493.79v-.55a14.23,14.23,0,0,1-2.22,2.1,8.42,8.42,0,0,1-2.38,1.23,8.94,8.94,0,0,1-2.8.42,8.2,8.2,0,0,1-3.72-.85,8.85,8.85,0,0,1-3-2.43,11.21,11.21,0,0,1-1.89-3.71,15.92,15.92,0,0,1-.65-4.62q0-5.25,2.57-8.18a8.48,8.48,0,0,1,6.74-2.93,8.93,8.93,0,0,1,4.08.83,11.2,11.2,0,0,1,3.24,2.55v-8.26a4.19,4.19,0,0,1,.69-2.61,2.33,2.33,0,0,1,2-.88,2.43,2.43,0,0,1,2,.81,3.61,3.61,0,0,1,.68,2.39v24.69a3.43,3.43,0,0,1-.73,2.4,2.51,2.51,0,0,1-1.91.8,2.46,2.46,0,0,1-1.9-.83A3.44,3.44,0,0,1,857.3,493.79Zm-11-8.22a9.55,9.55,0,0,0,.71,3.87,5.38,5.38,0,0,0,1.94,2.41,4.77,4.77,0,0,0,2.68.81,4.89,4.89,0,0,0,2.7-.77,5.33,5.33,0,0,0,1.95-2.36,9.59,9.59,0,0,0,.73-4,9.38,9.38,0,0,0-.73-3.85,5.83,5.83,0,0,0-2-2.46,4.69,4.69,0,0,0-2.72-.85,4.61,4.61,0,0,0-2.75.87,5.63,5.63,0,0,0-1.87,2.5A9.86,9.86,0,0,0,846.29,485.57Z"/><path d="M871,471.62a3,3,0,0,1-2-.72,2.79,2.79,0,0,1,0-4,2.87,2.87,0,0,1,2-.76,3,3,0,0,1,1.93.69,2.49,2.49,0,0,1,.84,2,2.54,2.54,0,0,1-.82,2A2.8,2.8,0,0,1,871,471.62Zm2.77,5.78v16.18a3.6,3.6,0,0,1-.8,2.55,2.66,2.66,0,0,1-2,.86,2.56,2.56,0,0,1-2-.88,3.75,3.75,0,0,1-.77-2.53v-16a3.6,3.6,0,0,1,.77-2.5,2.6,2.6,0,0,1,2-.84,2.68,2.68,0,0,1,2,.84A3.22,3.22,0,0,1,873.81,477.4Z"/><path d="M893.75,493.83a17.85,17.85,0,0,1-3.93,2.37,10.93,10.93,0,0,1-4.26.79,8,8,0,0,1-3.78-.85,6.24,6.24,0,0,1-2.51-2.31,6,6,0,0,1-.88-3.16,5.64,5.64,0,0,1,1.45-3.91,7.31,7.31,0,0,1,4-2.18c.36-.08,1.24-.27,2.65-.55s2.61-.55,3.62-.79,2.09-.53,3.27-.87a5.81,5.81,0,0,0-.9-3.25c-.52-.69-1.61-1-3.27-1a6.78,6.78,0,0,0-3.21.6,5.19,5.19,0,0,0-1.84,1.78,18.65,18.65,0,0,1-1.09,1.57,1.78,1.78,0,0,1-1.36.38,2.36,2.36,0,0,1-1.63-.61,2,2,0,0,1-.69-1.55,4.73,4.73,0,0,1,1.05-2.87,7.39,7.39,0,0,1,3.26-2.29,14.46,14.46,0,0,1,5.51-.91,15.46,15.46,0,0,1,5.81.88,5.39,5.39,0,0,1,3,2.75,12.11,12.11,0,0,1,.87,5c0,1.31,0,2.42,0,3.34s0,1.94,0,3.06a11.54,11.54,0,0,0,.52,3.29,10.43,10.43,0,0,1,.53,2.2,2.05,2.05,0,0,1-.81,1.57,2.72,2.72,0,0,1-1.84.71,2.48,2.48,0,0,1-1.7-.81A12,12,0,0,1,893.75,493.83Zm-.37-8.1a27.86,27.86,0,0,1-3.58.95c-1.57.34-2.65.58-3.25.74a4.51,4.51,0,0,0-1.72.92,2.37,2.37,0,0,0-.83,1.92,2.87,2.87,0,0,0,1,2.17,3.57,3.57,0,0,0,2.52.89,6.53,6.53,0,0,0,3.07-.73,4.92,4.92,0,0,0,2.06-1.88,8.6,8.6,0,0,0,.76-4.18Z"/><path d="M923.17,486v7.44a3.85,3.85,0,0,1-.79,2.65,2.76,2.76,0,0,1-2.12.88,2.68,2.68,0,0,1-2.06-.88,3.9,3.9,0,0,1-.79-2.65v-8.92a30.16,30.16,0,0,0-.14-3.28,3.63,3.63,0,0,0-.78-1.92,2.48,2.48,0,0,0-2-.75c-1.83,0-3,.63-3.62,1.89a13.32,13.32,0,0,0-.87,5.41v7.57a3.87,3.87,0,0,1-.79,2.64,2.66,2.66,0,0,1-2.08.89,2.69,2.69,0,0,1-2.08-.89,3.83,3.83,0,0,1-.81-2.64v-16a3.5,3.5,0,0,1,.72-2.39,2.45,2.45,0,0,1,1.92-.82,2.6,2.6,0,0,1,1.92.76,2.9,2.9,0,0,1,.77,2.13v.53a9.71,9.71,0,0,1,3.11-2.56,8.21,8.21,0,0,1,3.7-.82,7.43,7.43,0,0,1,3.63.84,6.64,6.64,0,0,1,2.5,2.54,9.6,9.6,0,0,1,3-2.55,7.68,7.68,0,0,1,3.59-.83,8.21,8.21,0,0,1,4,.9,5.73,5.73,0,0,1,2.48,2.58,11.82,11.82,0,0,1,.72,4.78v10.93a3.85,3.85,0,0,1-.8,2.65,2.74,2.74,0,0,1-2.11.88,2.69,2.69,0,0,1-2.08-.89,3.83,3.83,0,0,1-.81-2.64v-9.41a21.79,21.79,0,0,0-.16-2.89,3.3,3.3,0,0,0-.83-1.83,2.65,2.65,0,0,0-2-.74,3.72,3.72,0,0,0-2.1.66,4.49,4.49,0,0,0-1.55,1.76A14,14,0,0,0,923.17,486Z"/><path d="M945.43,497a3.2,3.2,0,0,1-2.2-.82,3.11,3.11,0,0,1,2.13-5.35,3,3,0,0,1,2.21.89,2.89,2.89,0,0,1,.91,2.16,3,3,0,0,1-.91,2.29A3.09,3.09,0,0,1,945.43,497Z"/></svg>
