<svg id="Layer_1" data-name="Layer 1" xmlns="http://www.w3.org/2000/svg" width="125" height="115" viewBox="0 0 125 115"><defs><style>.cls-1{fill:#c6a279;}</style></defs><title>taktikvalg_knap_a</title><path d="M118.6,54.57c-.65-4.72-1.77-13-4.35-17.71l-.19-.09c-4.27-4.18-4.66-9.89-7.43-14.9-3.07-5.53-7.59-6.73-13.87-8.1-6.62-1.43-10.3-2.12-15.82-6.16-4-2.95-9-4.15-13.95-4.37-10.79-.49-18.32,8-28.6,9.07-5.7.58-11-.41-13.32,6.42-2,5.87,3,13,.88,18.71S12.71,42,9.31,46.32C6.37,50.09,4.14,58.41,5,63.24,7,74.4,17.66,82.7,23,92.1c2.88,5.05,4.78,8.21,10.18,10.72,6.25,2.89,10.48,3.24,17.14,4.13,10.06,1.36,33.92,9.58,41-1.18,2-3.11,1.11-6.89,3-9.87,1.76-2.72,6.8-4.85,9.53-6.39,8.92-5,11.12-5.33,13.32-15.66C118.58,67.45,119.51,61.23,118.6,54.57Z"/><path class="cls-1" d="M56,22c-3.17,4.13-3.74,11.08-5.38,16-1.29,3.86-2.8,7.27-4.13,11.07C44.1,56,41.38,63.56,39,70c-1.41,3.84-7.75,13.77-4.21,17.51,2.87,3,7.51,0,9.32-2.12,2.08-2.42,2.86-6.85,5-8.92,3.74-3.65,15-6.41,20.41-6.93C72.85,74.22,74.85,88.74,83,86c2.55-.87,5.33-5.31,5.57-8C89,73,84.38,71.55,82.37,67.53,75.79,54.37,78,38.06,71.13,25.07c-1.53-2.88-2.54-5.83-5.6-7.43C60.69,15.13,55.39,20.67,56,22Z"/><path d="M52,62c5.37.72,12.64-3.47,16.57-6.48C64.24,50,64,41.47,63.83,34.59c-4.5-.48-6,11.73-6.73,14.76C56.29,52.55,51.2,60.44,52,62Z"/></svg>
