<svg id="vælg_taktik" data-name="vælg taktik" xmlns="http://www.w3.org/2000/svg" width="1920" height="1080" viewBox="0 0 1920 1080"><defs><style>.cls-1{fill:#c6a279;}.cls-2{fill:#42210b;}.cls-3{font-size:90px;font-family:ArialRoundedMTBold, Arial Rounded MT Bold;}</style></defs><title>valg</title><path class="cls-1" d="M406.3,175.1q164.64,3.59,329.27,6.83,218.85,4.33,437.65,7.82c56.86.85,113.72,1.66,170.55,2,18.44.11,63.74-2.25,82.19-.64,12.87,1.13,36.27-3.48,44.83,8.44,6.71,9.36,7.83,23.25,10.35,34.18,4,17.41-33.05,19.28-46.55,21.27,8.83,2.37,40.76,3.26,47.15,9.92,4.12,4.29,4.72,15.68,4.5,21.84-.15,4.5-2.18,7.38-1.3,12s7,7.78,5.34,13.12c-2.77,8.83-23.65,7.31-30.78,7.85,7.87.82,21.35,2.3,27.8,6-1.66,7.42,1.61,20.19-3,25.73,15.81,8.38-7.49,15.92-14.8,17.1-24.9,4.05-84.91,5.88-110.39,5.91,24.87-.22,51.81-.48,76.39,3.17,9.06,1.35,26,3.26,33.65,7,.21,5,10.13,8.49,13.08,12.41,2.42,3.2,9.62,4.08,10.07,8.89.6,6.46-23,15.36-28.3,12.72,6.89,3.41,14.43,4.76,21.93,7.08,11.08,3.41,12.35,3.8,9,14.59-4.07,13.21-.23,20.56-.48,33.93-11.56,4.91-45.51,7.43-53.61,14,8.55.52,28.09.4,36.31,1.21s17.34,5.54,25.39,4.83c-4.63,14.44-2.43,24.52-3.54,38.13-.36,4.33-3.76,7.81-4.76,13-.71,3.7-.87,5.53,3,7.45-2.29,4.53-7.34,8.41-7.81,13.6-.1,1.1,3,6.29,3.23,8.92.19,2.17-3.24,4-2.94,5.74s2.5,4.55,2.59,5.27c1,7.74,1.55,6.07-7.64,8.71-6.75,1.94-33.62,3.81-40.36,5.8-15,4.45-30,9.08-45.2,13.07-25.22,6.64-57.11,16-82.89,7.1,29.36,10,61.15,10,91.81,9.68,15.56-.16,42-.63,57.52-.23,8.39.22,32.65.51,24.81,16.92,8.76,1.57,4.28,6.94,2.72,12.12-2.8,9.3-3.81,7,2,16.23.92,1.49.45,4.91,1.23,5.87.94,1.15,6.73,3.24,6.92,4,1,3.75-3.12,12.66-5.67,16-9.3,12.07-27.75,8.25-37.77,16.83,12,3.17,25.23.68,37.43,3.9,0,1.19.37,2.68.26,3.88a18.93,18.93,0,0,1,10,6.23c-3,3.12-1.84,6.65-4.14,9.45-2.7,3.28-7,5.34-9.92,8.36,3.62,5.47,4.58,52.28,6,52.48-9.43-1.32-14.08,7.4-23.64,6.18,13.07,5,20-3.17,25.31,11.11,12.85,34.38-17.84,23.84-40.07,25-37.2,1.9-85.28,2-122.51,1.33-74.32-1.37-148.56-5.73-222.91-5-107.28,1-214.54,3.09-321.36,8.4-80.18,4-159.5,18.66-240,19.19-13.32.09-45.43.25-58.56-2.26-6.37-1.22-13.1-2-16.59-7.6-2.36-3.77-.62-8.23-2.24-11.87-1.73-3.87-8.65-7.65-9.31-9.54-4.84-13.77,2.69-25-1.42-40,5.34-3.69,10.91-5.32,16.43-7.73-12.94-5.17-10.87-4.46-13.46-16.29-3.89-17.77-.84-34.35-3.07-52.32,8.08-4,15.75-3.29,25-3.88h.25c7.8-.55,8-12,.26-13-13.93-1.69-30.41-1.42-37.44-2.94,1.94-2.69,1.3-3.07,4.95-4.19.79-5.13-.85-9.9-.62-15,.08-1.78,2-4.11,1.82-5.91-.33-4.12-3.79-7.07-4.06-10.47-.65-8.18,4.37-14.53,2.9-23.72-2.27-14.22,4.23-21.59,7.25-35.74,12.14,2,36.27,6,45.62-2.94-14.19-4.42-27.18-11.21-41.22-15.88-13.77-4.58-18-3.57-18.52-17.93-.54-16,13.78-31.87,10.1-47.36-1.89-8-7.61-15.29-7.63-23.14,9.78.48,22.25,1.53,31.86-.76-6.65-3.17-13.58-4.87-20.2-8.07,8.72-11.79,32.13-8,43.78-16.78-10.09-8.23-26.65-9.52-38.89-12.95-6.28-1.76-24.56-5.71-26.82-11.33s2.36-19.86,2.59-26c.29-7.35.14-15.5.7-22.82,12.63-1.34,25.25-1.37,37.38-5.9-7-2.83-16.93-2.23-22.47-8.2-5.36-5.77-8-20-9-27.29,24.63,1,53.52,2.31,77.91-1-15.64-4.43-30.2-8.81-46.27-11.66-17-3-28-3.52-35.37-20.44-12.88-29.44-4.68-90.73-4.68-90.73,0,6.19,38.67-4,60.06-1.5,25.54,3,52,1.52,77.62-.67-10.32-7.21-41.42-7.64-53.27-9.09-23.55-2.88-47.27-5.07-70.36-10.76-10-2.48-23.38-3.91-32.31-9-11.21-6.36-17.16-19.68-21.29-31.3"/><path class="cls-2" d="M718.31,272.7v25.4h-3.56l-9.54,74H688.54l-10.34-74h-4.29V272.7H696v25.4h-4.22l7.86,51.61,5.53-51.61h-5.53V272.7Z"/><path class="cls-2" d="M783.1,272.7v39.67H770.65V298.1H760.24v18.2h12.38v9.83H760.24v19.36h10.41V330.42H783.1v41.64H742V345.49h5.75V331.81h-8.73l-3.71,13.68h4.51v26.57H719.77V345.49h4.73L744,272.7Zm-35.31,48.92v-27.3L741,321.62Z"/><path class="cls-2" d="M829.9,326.13v45.93h-41V345.49h4.95V298.1h-4.95V272.7h24.09v25.4H807.7v47.39h9.76V326.13Z"/><path class="cls-2" d="M872.49,272.7v39.74h-13.1l.21-8.22q0-5.82-4.36-5.82-5.84,0-5.83,25.69,0,20.75,5.54,20.75c2.95,0,4.44-3.3,4.44-9.9v-3.28H854.8V317.25h23.08v14.41h-5.39v40.4h-6.7l-2.76-8.3-.44,1.1q-3.65,8.81-12.09,8.8-9.39,0-12.44-7T835,338.36v-28.1q0-22.86,3.13-31T850,271.1q7.86,0,10,6.69V272.7Z"/><path class="cls-2" d="M968.36,272.7v43.89h-8.45V298.1h-6.4v47.39h4.73v26.57h-24.1V345.49h5.46V298.1h-6.69v18.49h-8.45V272.7Z"/><path class="cls-2" d="M1017.86,345.49v26.57h-24.1V345.49h5.17L997.4,332H986.63L985,345.49h5.6v26.57H970.54V345.49h4.59L985,272.7h18.34l10.19,72.79ZM996,321.83l-4-30.57-4.14,30.57Z"/><path class="cls-2" d="M1067.72,272.7v25.4h-5.31l-9.32,15.65,12.08,31.74h4v26.57h-21.55V345.49h3.86l-7.5-19.8-3.42,7v12.81H1044v26.57h-22.13V345.49h4.81V298.1h-4.81V272.7H1044v25.4h-3.42v18.35l11.64-18.35h-4.58V272.7Z"/><path class="cls-2" d="M1115.84,272.7v43.89h-8.45V298.1H1101v47.39h4.73v26.57h-24.1V345.49h5.46V298.1h-6.69v18.49h-8.45V272.7Z"/><path class="cls-2" d="M1143.93,272.7v25.4h-5.24v47.39h5.24v26.57h-24.09V345.49h5V298.1h-5V272.7Z"/><path class="cls-2" d="M1195.54,272.7v25.4h-5.31l-9.32,15.65L1193,345.49h4v26.57h-21.55V345.49h3.86l-7.5-19.8-3.42,7v12.81h3.42v26.57h-22.13V345.49h4.81V298.1h-4.81V272.7h22.13v25.4h-3.42v18.35L1180,298.1h-4.59V272.7Z"/><path d="M658.38,431.71v31.87h18a4.74,4.74,0,0,1,3.3,1.05,3.42,3.42,0,0,1,1.15,2.63,3.3,3.3,0,0,1-1.14,2.61,4.83,4.83,0,0,1-3.31,1H655a4.64,4.64,0,0,1-5.44-5.43V431.71a5.83,5.83,0,0,1,1.21-4,4.08,4.08,0,0,1,3.18-1.35,4.23,4.23,0,0,1,3.24,1.33A5.76,5.76,0,0,1,658.38,431.71Z"/><path d="M716.61,455a19.19,19.19,0,0,1-1.14,6.72,14.8,14.8,0,0,1-3.29,5.29,14.55,14.55,0,0,1-5.13,3.39,18.17,18.17,0,0,1-6.73,1.18,17.76,17.76,0,0,1-6.66-1.19,14.72,14.72,0,0,1-8.41-8.68,20.7,20.7,0,0,1,0-13.49,14.78,14.78,0,0,1,3.25-5.26,14.52,14.52,0,0,1,5.14-3.36,19.43,19.43,0,0,1,13.39,0,14.43,14.43,0,0,1,8.43,8.66A19.26,19.26,0,0,1,716.61,455Zm-8.19,0q0-5-2.2-7.77a7.12,7.12,0,0,0-5.9-2.77,7.29,7.29,0,0,0-4.21,1.24,7.86,7.86,0,0,0-2.81,3.65,15.09,15.09,0,0,0-1,5.65,14.77,14.77,0,0,0,1,5.59,8,8,0,0,0,2.78,3.66,7.24,7.24,0,0,0,4.25,1.27,7.1,7.1,0,0,0,5.9-2.8Q708.43,460,708.42,455Z"/><path d="M731.12,459.85v6.81a5.25,5.25,0,0,1-1.16,3.72,3.87,3.87,0,0,1-3,1.24,3.77,3.77,0,0,1-2.9-1.25,5.42,5.42,0,0,1-1.13-3.71V444q0-5.5,4-5.5a3.31,3.31,0,0,1,2.93,1.29,7,7,0,0,1,1,3.79,14,14,0,0,1,3-3.79,6.16,6.16,0,0,1,4.1-1.29,10.45,10.45,0,0,1,5,1.29,3.82,3.82,0,0,1,2.42,3.4,3.42,3.42,0,0,1-3.25,3.44A10.43,10.43,0,0,1,740,446a10.32,10.32,0,0,0-3-.55,4.48,4.48,0,0,0-2.93.94,6,6,0,0,0-1.76,2.8,19.34,19.34,0,0,0-.87,4.4Q731.12,456.17,731.12,459.85Z"/><path d="M771.06,457H755.11a10.79,10.79,0,0,0,1.12,4.9,7.48,7.48,0,0,0,6.89,4.27,9.76,9.76,0,0,0,2.67-.34,8.72,8.72,0,0,0,2.35-1.08,18.62,18.62,0,0,0,2.09-1.56c.63-.56,1.46-1.32,2.48-2.27a2.66,2.66,0,0,1,1.79-.54,2.94,2.94,0,0,1,2,.69,2.43,2.43,0,0,1,.78,1.94,5.28,5.28,0,0,1-.87,2.58,10.35,10.35,0,0,1-2.61,2.84,14.7,14.7,0,0,1-4.39,2.25,18.88,18.88,0,0,1-6.08.9q-7.86,0-12.22-4.48T746.78,455a20.52,20.52,0,0,1,1.07-6.71A15,15,0,0,1,751,443a13.67,13.67,0,0,1,5.08-3.39,18.35,18.35,0,0,1,6.69-1.18,15.8,15.8,0,0,1,8.2,2,13.2,13.2,0,0,1,5.12,5.21,13.65,13.65,0,0,1,1.71,6.51q0,3.08-1.77,4A10.94,10.94,0,0,1,771.06,457Zm-15.95-4.63H769.9c-.2-2.79-.95-4.87-2.26-6.26a6.75,6.75,0,0,0-5.15-2.07,6.52,6.52,0,0,0-5,2.1A10.47,10.47,0,0,0,755.11,452.41Z"/><path d="M811.78,455.64v10.84a5.62,5.62,0,0,1-1.16,3.86,4,4,0,0,1-3.08,1.28,3.83,3.83,0,0,1-3-1.28,5.62,5.62,0,0,1-1.15-3.86v-13a41.5,41.5,0,0,0-.21-4.78,5.19,5.19,0,0,0-1.14-2.8,3.65,3.65,0,0,0-2.92-1.09q-4,0-5.28,2.75a19.53,19.53,0,0,0-1.27,7.89v11a5.61,5.61,0,0,1-1.15,3.84,3.82,3.82,0,0,1-3,1.3,3.91,3.91,0,0,1-3-1.3,5.52,5.52,0,0,1-1.18-3.84V443.15a5.08,5.08,0,0,1,1.06-3.49,3.55,3.55,0,0,1,2.79-1.2,3.75,3.75,0,0,1,2.79,1.12,4.18,4.18,0,0,1,1.13,3.09v.78a14,14,0,0,1,4.54-3.73,11.9,11.9,0,0,1,5.37-1.2,10.72,10.72,0,0,1,5.29,1.23,9.62,9.62,0,0,1,3.65,3.7,14.14,14.14,0,0,1,4.42-3.72,11.21,11.21,0,0,1,5.22-1.21,11.88,11.88,0,0,1,5.77,1.32,8.31,8.31,0,0,1,3.61,3.76,17.16,17.16,0,0,1,1,7v15.92a5.62,5.62,0,0,1-1.16,3.86,4,4,0,0,1-3.08,1.28,3.88,3.88,0,0,1-3-1.3,5.52,5.52,0,0,1-1.18-3.84V452.77a31.09,31.09,0,0,0-.23-4.21A4.82,4.82,0,0,0,821,445.9a3.84,3.84,0,0,0-3-1.08,5.47,5.47,0,0,0-3.06,1,6.53,6.53,0,0,0-2.25,2.57Q811.78,450.41,811.78,455.64Z"/><path d="M858.2,434.67a4.3,4.3,0,0,1-2.91-1.05,4.06,4.06,0,0,1,0-5.81,4.16,4.16,0,0,1,2.88-1.12,4.25,4.25,0,0,1,2.81,1,3.6,3.6,0,0,1,1.23,3,3.74,3.74,0,0,1-1.2,2.95A4.17,4.17,0,0,1,858.2,434.67Zm4,8.42v23.57a5.28,5.28,0,0,1-1.17,3.71,3.87,3.87,0,0,1-3,1.25,3.71,3.71,0,0,1-2.91-1.28,5.42,5.42,0,0,1-1.12-3.68V443.33a5.2,5.2,0,0,1,1.12-3.64,3.76,3.76,0,0,1,2.91-1.23,3.89,3.89,0,0,1,3,1.23A4.71,4.71,0,0,1,862.24,443.09Z"/><path d="M878.19,443v1a16.2,16.2,0,0,1,4.78-4.17,11.64,11.64,0,0,1,5.62-1.33,13.09,13.09,0,0,1,6.93,1.94,13.45,13.45,0,0,1,5,5.68,19.9,19.9,0,0,1,1.84,8.84,21.79,21.79,0,0,1-1.06,6.92,15.43,15.43,0,0,1-2.92,5.28,12.65,12.65,0,0,1-4.37,3.29,12.89,12.89,0,0,1-5.42,1.15,11.45,11.45,0,0,1-5.88-1.4,16.73,16.73,0,0,1-4.52-4.13v12.25c0,3.59-1.31,5.38-3.91,5.38-1.54,0-2.55-.46-3-1.39a8.74,8.74,0,0,1-.75-4.05V443.09a5.13,5.13,0,0,1,1-3.48,3.49,3.49,0,0,1,2.78-1.15,3.66,3.66,0,0,1,2.82,1.18A4.81,4.81,0,0,1,878.19,443Zm16,11.86a14.22,14.22,0,0,0-1-5.54,8.09,8.09,0,0,0-2.74-3.55,6.49,6.49,0,0,0-3.87-1.24,7.27,7.27,0,0,0-5.69,2.65q-2.31,2.67-2.31,7.83c0,3.25.76,5.77,2.3,7.57a7.17,7.17,0,0,0,5.7,2.71,6.62,6.62,0,0,0,3.77-1.18,8.21,8.21,0,0,0,2.78-3.54A14.21,14.21,0,0,0,894.17,454.89Z"/><path d="M935.16,461a9.47,9.47,0,0,1-6.5,9.42,21.69,21.69,0,0,1-7.81,1.24,19.16,19.16,0,0,1-7.53-1.34,11,11,0,0,1-4.63-3.36,6.77,6.77,0,0,1-1.49-4.05,3.1,3.1,0,0,1,.95-2.3,3.29,3.29,0,0,1,2.42-1,2.81,2.81,0,0,1,2,.63,6.83,6.83,0,0,1,1.32,1.76,8.83,8.83,0,0,0,3,3.26,9.1,9.1,0,0,0,4.76,1.07,6.84,6.84,0,0,0,4-1.09,3.05,3.05,0,0,0,1.57-2.49,3.39,3.39,0,0,0-1.63-3.14,20,20,0,0,0-5.36-1.88,44.64,44.64,0,0,1-6.86-2.2,11.1,11.1,0,0,1-4.22-3,6.92,6.92,0,0,1-1.59-4.63,8.14,8.14,0,0,1,1.47-4.63,10,10,0,0,1,4.31-3.48,16.52,16.52,0,0,1,6.89-1.3,22.51,22.51,0,0,1,5.69.66,14.12,14.12,0,0,1,4.21,1.76,8.55,8.55,0,0,1,2.57,2.45,4.77,4.77,0,0,1,.88,2.63,3,3,0,0,1-.94,2.3,3.7,3.7,0,0,1-2.67.9,3.28,3.28,0,0,1-2.14-.72,14.51,14.51,0,0,1-2-2.15,7.31,7.31,0,0,0-2.18-1.91,6.89,6.89,0,0,0-3.41-.72,6.63,6.63,0,0,0-3.67.94,2.75,2.75,0,0,0-1.47,2.35,2.54,2.54,0,0,0,1.08,2.1,8.81,8.81,0,0,0,2.9,1.36q1.82.54,5,1.31a26.68,26.68,0,0,1,6.2,2.22,10.18,10.18,0,0,1,3.65,3A6.75,6.75,0,0,1,935.16,461Z"/><path d="M963.24,467v-1a18.16,18.16,0,0,1-3.08,3.11,11.27,11.27,0,0,1-3.52,1.87,14.29,14.29,0,0,1-4.37.61,11.37,11.37,0,0,1-5.3-1.22,9.05,9.05,0,0,1-3.63-3.38q-1.51-2.59-1.52-7.47V443.33a5.32,5.32,0,0,1,1.1-3.66,3.78,3.78,0,0,1,2.93-1.21,3.88,3.88,0,0,1,3,1.23,5.16,5.16,0,0,1,1.13,3.64v13.06a20,20,0,0,0,.48,4.76,5.75,5.75,0,0,0,1.72,3,5,5,0,0,0,3.36,1.09,6.81,6.81,0,0,0,3.88-1.23,7.11,7.11,0,0,0,2.66-3.19q.69-1.74.69-7.59v-9.92a5.16,5.16,0,0,1,1.14-3.64,3.82,3.82,0,0,1,3-1.23,3.77,3.77,0,0,1,2.93,1.21,5.27,5.27,0,0,1,1.11,3.66V467a5.05,5.05,0,0,1-1.07,3.5,3.77,3.77,0,0,1-5.49,0A4.88,4.88,0,0,1,963.24,467Z"/><path d="M1006.14,455.64v10.84a5.57,5.57,0,0,1-1.17,3.86,4,4,0,0,1-3.08,1.28,3.86,3.86,0,0,1-3-1.28,5.62,5.62,0,0,1-1.15-3.86v-13a41.5,41.5,0,0,0-.21-4.78,5.25,5.25,0,0,0-1.13-2.8,3.67,3.67,0,0,0-2.93-1.09q-4,0-5.27,2.75a19.36,19.36,0,0,0-1.27,7.89v11a5.66,5.66,0,0,1-1.15,3.84,3.85,3.85,0,0,1-3,1.3,3.91,3.91,0,0,1-3-1.3,5.57,5.57,0,0,1-1.18-3.84V443.15a5.13,5.13,0,0,1,1.06-3.49,3.56,3.56,0,0,1,2.8-1.2,3.78,3.78,0,0,1,2.79,1.12,4.17,4.17,0,0,1,1.12,3.09v.78a14.11,14.11,0,0,1,4.54-3.73,11.94,11.94,0,0,1,5.38-1.2,10.74,10.74,0,0,1,5.29,1.23,9.59,9.59,0,0,1,3.64,3.7,14.25,14.25,0,0,1,4.42-3.72,11.25,11.25,0,0,1,5.23-1.21,11.84,11.84,0,0,1,5.76,1.32,8.33,8.33,0,0,1,3.62,3.76c.7,1.47,1,3.79,1,7v15.92a5.57,5.57,0,0,1-1.16,3.86,4,4,0,0,1-3.08,1.28,3.91,3.91,0,0,1-3-1.3,5.52,5.52,0,0,1-1.18-3.84V452.77a31.35,31.35,0,0,0-.22-4.21,4.89,4.89,0,0,0-1.21-2.66,3.86,3.86,0,0,0-3-1.08,5.42,5.42,0,0,0-3.06,1,6.48,6.48,0,0,0-2.26,2.57C1006.43,449.72,1006.14,452.15,1006.14,455.64Z"/><path d="M1070.78,467v-.81a20.71,20.71,0,0,1-3.24,3.07,12.43,12.43,0,0,1-3.47,1.79,12.91,12.91,0,0,1-4.07.61,12,12,0,0,1-5.43-1.24,12.7,12.7,0,0,1-4.31-3.54,16,16,0,0,1-2.77-5.41,23.32,23.32,0,0,1-.94-6.72q0-7.65,3.74-11.92a12.44,12.44,0,0,1,9.83-4.27,13.13,13.13,0,0,1,5.94,1.21,16.69,16.69,0,0,1,4.72,3.72v-12a6.06,6.06,0,0,1,1-3.79,3.4,3.4,0,0,1,2.85-1.29,3.57,3.57,0,0,1,2.86,1.18,5.31,5.31,0,0,1,1,3.48v36a5,5,0,0,1-1.08,3.5,3.61,3.61,0,0,1-2.78,1.16,3.55,3.55,0,0,1-2.76-1.21A5,5,0,0,1,1070.78,467Zm-16-12a13.91,13.91,0,0,0,1,5.65,8,8,0,0,0,2.82,3.51,7,7,0,0,0,3.92,1.18,7.25,7.25,0,0,0,3.92-1.12,7.62,7.62,0,0,0,2.84-3.44,13.82,13.82,0,0,0,1.06-5.78,13.45,13.45,0,0,0-1.06-5.6,8.3,8.3,0,0,0-2.87-3.58,6.8,6.8,0,0,0-4-1.24,6.67,6.67,0,0,0-4,1.27,8.17,8.17,0,0,0-2.73,3.64A14.42,14.42,0,0,0,1054.74,455Z"/><path d="M1117.2,455a19.19,19.19,0,0,1-1.13,6.72,14.8,14.8,0,0,1-3.29,5.29,14.5,14.5,0,0,1-5.14,3.39,18.08,18.08,0,0,1-6.72,1.18,17.76,17.76,0,0,1-6.66-1.19,14.72,14.72,0,0,1-8.41-8.68,19.16,19.16,0,0,1-1.12-6.71,19.37,19.37,0,0,1,1.14-6.78,14.78,14.78,0,0,1,3.25-5.26,14.52,14.52,0,0,1,5.14-3.36,19.4,19.4,0,0,1,13.38,0,14.47,14.47,0,0,1,5.17,3.4,14.61,14.61,0,0,1,3.27,5.26A19.26,19.26,0,0,1,1117.2,455Zm-8.18,0q0-5-2.2-7.77a7.12,7.12,0,0,0-5.9-2.77,7.29,7.29,0,0,0-4.21,1.24,7.86,7.86,0,0,0-2.81,3.65,15.09,15.09,0,0,0-1,5.65,14.77,14.77,0,0,0,1,5.59,8,8,0,0,0,2.78,3.66,7.24,7.24,0,0,0,4.25,1.27,7.1,7.1,0,0,0,5.9-2.8Q1109,460,1109,455Z"/><path d="M1123.63,466.66V431.29a5.47,5.47,0,0,1,1.09-3.7,3.67,3.67,0,0,1,2.94-1.26,3.9,3.9,0,0,1,3,1.24,5.39,5.39,0,0,1,1.13,3.72v35.37a5.3,5.3,0,0,1-1.15,3.72,3.85,3.85,0,0,1-3,1.24,3.68,3.68,0,0,1-2.91-1.28A5.42,5.42,0,0,1,1123.63,466.66Z"/><path d="M1170.74,455a19.19,19.19,0,0,1-1.14,6.72,14.92,14.92,0,0,1-3.28,5.29,14.68,14.68,0,0,1-5.14,3.39,18.12,18.12,0,0,1-6.72,1.18,17.85,17.85,0,0,1-6.67-1.19,14.72,14.72,0,0,1-8.41-8.68,20.7,20.7,0,0,1,0-13.49,14.8,14.8,0,0,1,3.26-5.26,14.39,14.39,0,0,1,5.13-3.36,19.43,19.43,0,0,1,13.39,0,14.64,14.64,0,0,1,5.17,3.4,14.89,14.89,0,0,1,3.27,5.26A19.49,19.49,0,0,1,1170.74,455Zm-8.19,0q0-5-2.19-7.77a7.14,7.14,0,0,0-5.9-2.77,7.3,7.3,0,0,0-4.22,1.24,7.78,7.78,0,0,0-2.8,3.65,16.6,16.6,0,0,0,0,11.24,8,8,0,0,0,2.78,3.66,7.25,7.25,0,0,0,4.26,1.27,7.11,7.11,0,0,0,5.9-2.8Q1162.55,460,1162.55,455Z"/><path d="M1185.25,459.85v6.81a5.25,5.25,0,0,1-1.16,3.72,3.87,3.87,0,0,1-3,1.24,3.77,3.77,0,0,1-2.9-1.25,5.42,5.42,0,0,1-1.13-3.71V444q0-5.5,4-5.5a3.31,3.31,0,0,1,2.93,1.29,7,7,0,0,1,1,3.79,14,14,0,0,1,3-3.79,6.17,6.17,0,0,1,4.11-1.29,10.44,10.44,0,0,1,5,1.29,3.82,3.82,0,0,1,2.42,3.4,3.42,3.42,0,0,1-3.25,3.44,10.43,10.43,0,0,1-2.17-.56,10.27,10.27,0,0,0-3-.55,4.5,4.5,0,0,0-2.93.94,6.11,6.11,0,0,0-1.76,2.8,19.34,19.34,0,0,0-.87,4.4Q1185.25,456.17,1185.25,459.85Z"/><path d="M1245.51,461a9.44,9.44,0,0,1-6.5,9.42,21.65,21.65,0,0,1-7.81,1.24,19.16,19.16,0,0,1-7.53-1.34,11.07,11.07,0,0,1-4.63-3.36,6.83,6.83,0,0,1-1.49-4.05,3.14,3.14,0,0,1,1-2.3,3.29,3.29,0,0,1,2.42-1,2.84,2.84,0,0,1,2,.63,7.06,7.06,0,0,1,1.31,1.76,9,9,0,0,0,3,3.26,9.14,9.14,0,0,0,4.77,1.07,6.83,6.83,0,0,0,4-1.09,3.05,3.05,0,0,0,1.57-2.49,3.39,3.39,0,0,0-1.63-3.14,20,20,0,0,0-5.36-1.88,44.11,44.11,0,0,1-6.85-2.2,11.06,11.06,0,0,1-4.23-3,6.92,6.92,0,0,1-1.58-4.63,8.13,8.13,0,0,1,1.46-4.63,10.08,10.08,0,0,1,4.32-3.48,16.43,16.43,0,0,1,6.88-1.3,22.51,22.51,0,0,1,5.69.66,14.18,14.18,0,0,1,4.22,1.76,8.62,8.62,0,0,1,2.56,2.45,4.79,4.79,0,0,1,.89,2.63,3,3,0,0,1-1,2.3,3.69,3.69,0,0,1-2.67.9,3.28,3.28,0,0,1-2.14-.72,14.51,14.51,0,0,1-2-2.15,7.31,7.31,0,0,0-2.18-1.91,6.86,6.86,0,0,0-3.41-.72,6.63,6.63,0,0,0-3.67.94,2.75,2.75,0,0,0-1.47,2.35,2.54,2.54,0,0,0,1.08,2.1,8.9,8.9,0,0,0,2.9,1.36q1.81.54,5,1.31a26.58,26.58,0,0,1,6.19,2.22,10.18,10.18,0,0,1,3.65,3A6.68,6.68,0,0,1,1245.51,461Z"/><path d="M1256.53,434.67a4.3,4.3,0,0,1-2.91-1.05,4.06,4.06,0,0,1,0-5.81,4.16,4.16,0,0,1,2.88-1.12,4.27,4.27,0,0,1,2.81,1,3.6,3.6,0,0,1,1.23,3,3.74,3.74,0,0,1-1.2,2.95A4.17,4.17,0,0,1,1256.53,434.67Zm4,8.42v23.57a5.28,5.28,0,0,1-1.17,3.71,3.88,3.88,0,0,1-3,1.25,3.71,3.71,0,0,1-2.91-1.28,5.42,5.42,0,0,1-1.12-3.68V443.33a5.2,5.2,0,0,1,1.12-3.64,3.76,3.76,0,0,1,2.91-1.23,3.9,3.9,0,0,1,3,1.23A4.71,4.71,0,0,1,1260.57,443.09Z"/><path d="M1269.44,439.18h.89v-4.9c0-1.32,0-2.35.11-3.09a4.56,4.56,0,0,1,.58-1.93,3.72,3.72,0,0,1,1.37-1.36,3.91,3.91,0,0,1,2-.52,4,4,0,0,1,2.8,1.16,3.38,3.38,0,0,1,1.06,1.9,17.12,17.12,0,0,1,.23,3.18v5.56h3a3.81,3.81,0,0,1,2.64.82,2.7,2.7,0,0,1,.91,2.11,2.36,2.36,0,0,1-1.3,2.3,8.56,8.56,0,0,1-3.72.65h-1.52v15a24.47,24.47,0,0,0,.13,2.94,3,3,0,0,0,.72,1.67,2.45,2.45,0,0,0,1.9.65,10.18,10.18,0,0,0,1.94-.26,10,10,0,0,1,1.91-.25,2.45,2.45,0,0,1,1.78.79,2.65,2.65,0,0,1,.79,2,3.27,3.27,0,0,1-2.15,3,14.48,14.48,0,0,1-6.18,1.05,10.75,10.75,0,0,1-5.8-1.28,6,6,0,0,1-2.58-3.56,23.93,23.93,0,0,1-.62-6.06V445.06h-1.07a3.92,3.92,0,0,1-2.69-.83,2.74,2.74,0,0,1-.93-2.12,2.66,2.66,0,0,1,1-2.11A4.27,4.27,0,0,1,1269.44,439.18Z"/><path d="M669.73,540.44a25.29,25.29,0,0,1-5.72,3.45,16.07,16.07,0,0,1-6.19,1.15,11.85,11.85,0,0,1-5.52-1.24,9.17,9.17,0,0,1-3.66-3.36,8.8,8.8,0,0,1-1.28-4.6,8.26,8.26,0,0,1,2.12-5.71,10.64,10.64,0,0,1,5.83-3.17c.51-.12,1.8-.38,3.85-.8s3.81-.8,5.27-1.15,3.05-.77,4.77-1.27a8.6,8.6,0,0,0-1.3-4.74c-.77-1-2.36-1.51-4.77-1.51a9.86,9.86,0,0,0-4.67.87,7.57,7.57,0,0,0-2.69,2.6c-.75,1.15-1.28,1.92-1.58,2.28a2.61,2.61,0,0,1-2,.56,3.52,3.52,0,0,1-2.38-.88,2.9,2.9,0,0,1-1-2.26,6.87,6.87,0,0,1,1.53-4.18,10.86,10.86,0,0,1,4.75-3.35,21.52,21.52,0,0,1,8-1.31,22.72,22.72,0,0,1,8.46,1.27,7.78,7.78,0,0,1,4.34,4,17.48,17.48,0,0,1,1.27,7.28c0,1.92,0,3.54,0,4.87s0,2.82-.05,4.46a16.63,16.63,0,0,0,.76,4.79,15.15,15.15,0,0,1,.77,3.21,3,3,0,0,1-1.18,2.29,4,4,0,0,1-2.68,1,3.65,3.65,0,0,1-2.48-1.18A18.15,18.15,0,0,1,669.73,540.44Zm-.53-11.8A41.5,41.5,0,0,1,664,530c-2.28.48-3.86.84-4.73,1.07a6.44,6.44,0,0,0-2.51,1.35,3.41,3.41,0,0,0-1.2,2.79,4.14,4.14,0,0,0,1.41,3.15,5.16,5.16,0,0,0,3.67,1.3,9.51,9.51,0,0,0,4.47-1.06,7.16,7.16,0,0,0,3-2.73q1.11-1.86,1.11-6.1Z"/><path d="M712.6,529.05V539.9a5.59,5.59,0,0,1-1.16,3.85,4,4,0,0,1-3.08,1.29,3.82,3.82,0,0,1-3-1.29,5.59,5.59,0,0,1-1.15-3.85v-13a41.62,41.62,0,0,0-.21-4.78,5.18,5.18,0,0,0-1.14-2.79,3.6,3.6,0,0,0-2.92-1.09q-4,0-5.28,2.75a19.49,19.49,0,0,0-1.27,7.89v11a5.63,5.63,0,0,1-1.15,3.84,3.85,3.85,0,0,1-3,1.3,3.94,3.94,0,0,1-3-1.3A5.53,5.53,0,0,1,685,539.9V516.57a5.1,5.1,0,0,1,1.06-3.5,3.58,3.58,0,0,1,2.79-1.19,3.79,3.79,0,0,1,2.8,1.12,4.2,4.2,0,0,1,1.12,3.09v.78a14,14,0,0,1,4.54-3.74,12,12,0,0,1,5.37-1.19,10.8,10.8,0,0,1,5.29,1.22,9.58,9.58,0,0,1,3.65,3.71,13.87,13.87,0,0,1,4.42-3.72,11.22,11.22,0,0,1,5.23-1.21,12,12,0,0,1,5.76,1.31,8.41,8.41,0,0,1,3.62,3.77,17.36,17.36,0,0,1,1,7V539.9a5.59,5.59,0,0,1-1.16,3.85,4,4,0,0,1-3.08,1.29,3.91,3.91,0,0,1-3-1.3,5.53,5.53,0,0,1-1.18-3.84V526.19A31,31,0,0,0,723,522a4.78,4.78,0,0,0-1.21-2.66,3.83,3.83,0,0,0-3-1.08,5.48,5.48,0,0,0-3.07,1,6.46,6.46,0,0,0-2.25,2.57Q712.6,523.83,712.6,529.05Z"/><path d="M762.37,530.46h-16a10.82,10.82,0,0,0,1.12,4.9,7.53,7.53,0,0,0,6.88,4.27,9.78,9.78,0,0,0,2.68-.34,8.66,8.66,0,0,0,2.34-1.08,17,17,0,0,0,2.09-1.57c.64-.55,1.47-1.31,2.48-2.27a2.69,2.69,0,0,1,1.8-.54,3,3,0,0,1,2,.69,2.45,2.45,0,0,1,.77,1.94,5.28,5.28,0,0,1-.86,2.59,10.39,10.39,0,0,1-2.62,2.84,14.92,14.92,0,0,1-4.39,2.25,18.84,18.84,0,0,1-6.08.9c-5.23,0-9.31-1.5-12.21-4.48s-4.37-7-4.37-12.16a20.22,20.22,0,0,1,1.08-6.71,14.72,14.72,0,0,1,3.14-5.3,13.4,13.4,0,0,1,5.07-3.39,18.24,18.24,0,0,1,6.7-1.18,15.92,15.92,0,0,1,8.2,2,13.35,13.35,0,0,1,5.12,5.22,13.64,13.64,0,0,1,1.7,6.51c0,2.05-.59,3.38-1.76,4A11,11,0,0,1,762.37,530.46Zm-16-4.63h14.79a10,10,0,0,0-2.26-6.26,6.76,6.76,0,0,0-5.15-2.08,6.57,6.57,0,0,0-5,2.11A10.5,10.5,0,0,0,746.42,525.83Z"/><path d="M776.41,512.59h.9V507.7c0-1.32,0-2.35.1-3.1a4.66,4.66,0,0,1,.58-1.92,3.68,3.68,0,0,1,1.38-1.36,3.88,3.88,0,0,1,2-.53,4,4,0,0,1,2.81,1.17,3.44,3.44,0,0,1,1.06,1.9,17.13,17.13,0,0,1,.22,3.18v5.55h3a3.78,3.78,0,0,1,2.64.83,2.69,2.69,0,0,1,.92,2.1,2.37,2.37,0,0,1-1.3,2.3,8.43,8.43,0,0,1-3.72.66h-1.53v15a24.07,24.07,0,0,0,.14,2.94,3,3,0,0,0,.71,1.67,2.45,2.45,0,0,0,1.9.64,9.93,9.93,0,0,0,1.94-.25,10,10,0,0,1,1.92-.25,2.45,2.45,0,0,1,1.77.79,2.65,2.65,0,0,1,.79,2,3.26,3.26,0,0,1-2.15,3,14.45,14.45,0,0,1-6.18,1,10.68,10.68,0,0,1-5.8-1.29,6,6,0,0,1-2.58-3.55,24.13,24.13,0,0,1-.61-6.07V518.48h-1.08a3.89,3.89,0,0,1-2.69-.84,2.73,2.73,0,0,1-.92-2.12,2.61,2.61,0,0,1,1-2.1A4.25,4.25,0,0,1,776.41,512.59Z"/><path d="M803.15,545.1a5.15,5.15,0,0,1-3.41-1.21,4.22,4.22,0,0,1-1.43-3.39,4.14,4.14,0,0,1,1.4-3.17,4.74,4.74,0,0,1,3.32-1.28,4.58,4.58,0,0,1,2.6.77,5.16,5.16,0,0,1,1.82,2.29,9.24,9.24,0,0,1,.66,3.72,12.47,12.47,0,0,1-1.26,5.54,12.16,12.16,0,0,1-3.06,4.09,5.36,5.36,0,0,1-3.27,1.51,2,2,0,0,1-1.51-.61,2,2,0,0,1-.58-1.42,2.23,2.23,0,0,1,1.22-2Q803.15,548,803.15,545.1Z"/><path d="M861.31,534.94a7,7,0,0,1-.91,3.26,11.27,11.27,0,0,1-2.78,3.3,14.45,14.45,0,0,1-4.7,2.52,20,20,0,0,1-6.4,1q-7.56,0-11.8-4.41t-4.24-11.81a19.54,19.54,0,0,1,1.94-8.88,14,14,0,0,1,5.62-6,17.42,17.42,0,0,1,8.78-2.1,17.66,17.66,0,0,1,5.81.92,15.34,15.34,0,0,1,4.48,2.39,11.44,11.44,0,0,1,2.81,3.13,6.12,6.12,0,0,1,1,3.09,3.26,3.26,0,0,1-1.09,2.48,3.77,3.77,0,0,1-2.64,1,2.66,2.66,0,0,1-1.69-.52,8.27,8.27,0,0,1-1.51-1.69,12.12,12.12,0,0,0-3.12-3.4,7.66,7.66,0,0,0-10,1.68c-1.48,1.89-2.21,4.46-2.21,7.73a15.17,15.17,0,0,0,.56,4.22,9.6,9.6,0,0,0,1.65,3.29,6.93,6.93,0,0,0,2.6,2.06,7.84,7.84,0,0,0,3.34.7,7.59,7.59,0,0,0,4.2-1.13,9.9,9.9,0,0,0,3.09-3.47,8.31,8.31,0,0,1,1.61-2.15,3.07,3.07,0,0,1,2.13-.77,3.14,3.14,0,0,1,2.48,1.13A3.66,3.66,0,0,1,861.31,534.94Z"/><path d="M899,528.46a19.42,19.42,0,0,1-1.13,6.72,15,15,0,0,1-3.29,5.29,14.59,14.59,0,0,1-5.14,3.39,18.29,18.29,0,0,1-6.72,1.18,17.56,17.56,0,0,1-6.66-1.2,14.65,14.65,0,0,1-8.41-8.68,19.11,19.11,0,0,1-1.12-6.7,19.6,19.6,0,0,1,1.13-6.78,14.85,14.85,0,0,1,3.26-5.26,14.17,14.17,0,0,1,5.14-3.36,19.48,19.48,0,0,1,13.38,0,14.46,14.46,0,0,1,8.44,8.67A19.26,19.26,0,0,1,899,528.46Zm-8.18,0c0-3.33-.74-5.92-2.2-7.77a7.13,7.13,0,0,0-5.9-2.78,7.35,7.35,0,0,0-4.21,1.24,7.88,7.88,0,0,0-2.81,3.66,16.58,16.58,0,0,0,0,11.23,8,8,0,0,0,2.78,3.66,7.22,7.22,0,0,0,4.26,1.27,7.11,7.11,0,0,0,5.9-2.79C890,534.32,890.77,531.74,890.77,528.46Z"/><path d="M912.78,516.39v1a14.2,14.2,0,0,1,4.71-4.16,12.48,12.48,0,0,1,5.87-1.33,11.75,11.75,0,0,1,5.76,1.4,8.94,8.94,0,0,1,3.8,4,9.71,9.71,0,0,1,1,3.23,33.35,33.35,0,0,1,.24,4.42v15.18a5.37,5.37,0,0,1-1.12,3.7,4,4,0,0,1-5.87,0,5.34,5.34,0,0,1-1.13-3.67V526.49a13.67,13.67,0,0,0-1.12-6.17q-1.12-2.15-4.47-2.14a6.58,6.58,0,0,0-4,1.3,7.42,7.42,0,0,0-2.63,3.57,25.49,25.49,0,0,0-.6,6.81v10.22a5.3,5.3,0,0,1-1.15,3.72,3.9,3.9,0,0,1-3,1.24,3.69,3.69,0,0,1-2.9-1.29,5.34,5.34,0,0,1-1.14-3.67V516.51a5.09,5.09,0,0,1,1-3.48,3.51,3.51,0,0,1,2.78-1.15,3.75,3.75,0,0,1,1.94.51,3.56,3.56,0,0,1,1.39,1.52A5.35,5.35,0,0,1,912.78,516.39Z"/><path d="M968.59,534.37a9.49,9.49,0,0,1-6.5,9.43,21.91,21.91,0,0,1-7.81,1.24,19,19,0,0,1-7.53-1.35,10.83,10.83,0,0,1-4.63-3.36,6.74,6.74,0,0,1-1.5-4.05,3.14,3.14,0,0,1,1-2.3,3.3,3.3,0,0,1,2.42-1,2.81,2.81,0,0,1,2,.63,6.66,6.66,0,0,1,1.32,1.76,8.79,8.79,0,0,0,3,3.25,9,9,0,0,0,4.76,1.08,6.86,6.86,0,0,0,4-1.09,3.07,3.07,0,0,0,1.57-2.5A3.38,3.38,0,0,0,959,533a19.82,19.82,0,0,0-5.36-1.88,44.28,44.28,0,0,1-6.86-2.2,11.32,11.32,0,0,1-4.22-3,6.94,6.94,0,0,1-1.59-4.63,8.14,8.14,0,0,1,1.47-4.63,9.91,9.91,0,0,1,4.31-3.48,16.48,16.48,0,0,1,6.89-1.3,23,23,0,0,1,5.69.65,14.12,14.12,0,0,1,4.21,1.77,8.54,8.54,0,0,1,2.57,2.45,4.75,4.75,0,0,1,.88,2.63,3,3,0,0,1-.94,2.3,3.76,3.76,0,0,1-2.67.89,3.32,3.32,0,0,1-2.14-.71,13.68,13.68,0,0,1-2-2.16,7.51,7.51,0,0,0-2.19-1.91,6.82,6.82,0,0,0-3.4-.71A6.66,6.66,0,0,0,950,518a2.74,2.74,0,0,0-1.46,2.34,2.54,2.54,0,0,0,1.08,2.11,8.84,8.84,0,0,0,2.89,1.36c1.22.36,2.89.79,5,1.31a27.18,27.18,0,0,1,6.2,2.21,10.47,10.47,0,0,1,3.65,3A6.79,6.79,0,0,1,968.59,534.37Z"/><path d="M998.25,530.46h-16a10.82,10.82,0,0,0,1.12,4.9,7.5,7.5,0,0,0,6.88,4.27,9.78,9.78,0,0,0,2.68-.34,8.8,8.8,0,0,0,2.34-1.08,17,17,0,0,0,2.09-1.57c.64-.55,1.47-1.31,2.48-2.27a2.68,2.68,0,0,1,1.79-.54,3,3,0,0,1,2,.69,2.49,2.49,0,0,1,.77,1.94,5.39,5.39,0,0,1-.86,2.59,10.39,10.39,0,0,1-2.62,2.84,15.05,15.05,0,0,1-4.39,2.25,18.84,18.84,0,0,1-6.08.9q-7.86,0-12.22-4.48T974,528.4a20.22,20.22,0,0,1,1.08-6.71,14.7,14.7,0,0,1,3.13-5.3,13.51,13.51,0,0,1,5.08-3.39,18.15,18.15,0,0,1,6.69-1.18,15.9,15.9,0,0,1,8.2,2,13.38,13.38,0,0,1,5.13,5.22,13.75,13.75,0,0,1,1.7,6.51c0,2.05-.59,3.38-1.76,4A11,11,0,0,1,998.25,530.46Zm-16-4.63h14.78c-.2-2.79-1-4.87-2.25-6.26a6.77,6.77,0,0,0-5.15-2.08,6.55,6.55,0,0,0-5,2.11A10.5,10.5,0,0,0,982.3,525.83Z"/><path d="M1041.09,534.94a7.14,7.14,0,0,1-.91,3.26,11.43,11.43,0,0,1-2.78,3.3,14.61,14.61,0,0,1-4.71,2.52,19.86,19.86,0,0,1-6.39,1q-7.56,0-11.8-4.41t-4.24-11.81a19.54,19.54,0,0,1,1.94-8.88,14,14,0,0,1,5.62-6,17.4,17.4,0,0,1,8.78-2.1,17.66,17.66,0,0,1,5.81.92,15.47,15.47,0,0,1,4.48,2.39,11.61,11.61,0,0,1,2.81,3.13,6.22,6.22,0,0,1,1,3.09,3.26,3.26,0,0,1-1.09,2.48,3.78,3.78,0,0,1-2.65,1,2.63,2.63,0,0,1-1.68-.52,8.27,8.27,0,0,1-1.51-1.69,12.42,12.42,0,0,0-3.12-3.4,7.67,7.67,0,0,0-10,1.68,12.27,12.27,0,0,0-2.21,7.73,14.8,14.8,0,0,0,.57,4.22,9.76,9.76,0,0,0,1.64,3.29,7.08,7.08,0,0,0,2.6,2.06,7.88,7.88,0,0,0,3.35.7,7.62,7.62,0,0,0,4.2-1.13,10,10,0,0,0,3.09-3.47,8.09,8.09,0,0,1,1.61-2.15,3.06,3.06,0,0,1,2.12-.77,3.13,3.13,0,0,1,2.48,1.13A3.63,3.63,0,0,1,1041.09,534.94Z"/><path d="M1063.49,540.08V504.71a5.51,5.51,0,0,1,1.09-3.71,3.73,3.73,0,0,1,3-1.25,3.83,3.83,0,0,1,3,1.24,5.34,5.34,0,0,1,1.14,3.72v35.37a5.34,5.34,0,0,1-1.15,3.72,3.9,3.9,0,0,1-3,1.24,3.69,3.69,0,0,1-2.92-1.29A5.44,5.44,0,0,1,1063.49,540.08Z"/><path d="M1110.6,528.46a19.42,19.42,0,0,1-1.13,6.72,15,15,0,0,1-3.29,5.29,14.59,14.59,0,0,1-5.14,3.39,18.29,18.29,0,0,1-6.72,1.18,17.56,17.56,0,0,1-6.66-1.2,14.72,14.72,0,0,1-8.41-8.68,19.11,19.11,0,0,1-1.12-6.7,19.37,19.37,0,0,1,1.14-6.78,14.69,14.69,0,0,1,3.25-5.26,14.17,14.17,0,0,1,5.14-3.36,19.48,19.48,0,0,1,13.38,0,14.46,14.46,0,0,1,8.44,8.67A19.26,19.26,0,0,1,1110.6,528.46Zm-8.18,0c0-3.33-.74-5.92-2.2-7.77a7.13,7.13,0,0,0-5.9-2.78,7.35,7.35,0,0,0-4.21,1.24,7.88,7.88,0,0,0-2.81,3.66,14.86,14.86,0,0,0-1,5.65,14.68,14.68,0,0,0,1,5.58,7.91,7.91,0,0,0,2.77,3.66,7.22,7.22,0,0,0,4.26,1.27,7.11,7.11,0,0,0,5.9-2.79C1101.68,534.32,1102.42,531.74,1102.42,528.46Z"/><path d="M1125.12,533.27v6.81a5.3,5.3,0,0,1-1.16,3.72,3.92,3.92,0,0,1-3,1.24,3.73,3.73,0,0,1-2.9-1.26,5.32,5.32,0,0,1-1.13-3.7V517.37q0-5.49,4-5.49a3.34,3.34,0,0,1,2.93,1.28,7.17,7.17,0,0,1,1,3.8,14.45,14.45,0,0,1,3-3.8,6.26,6.26,0,0,1,4.11-1.28,10.59,10.59,0,0,1,5,1.28c1.61.86,2.42,2,2.42,3.41a3.42,3.42,0,0,1-3.26,3.43,10,10,0,0,1-2.16-.55,10.06,10.06,0,0,0-3-.55,4.41,4.41,0,0,0-2.93.94,6,6,0,0,0-1.76,2.79,19.55,19.55,0,0,0-.87,4.41Q1125.12,529.59,1125.12,533.27Z"/><path d="M1165.06,530.46h-16a10.82,10.82,0,0,0,1.12,4.9,7.53,7.53,0,0,0,6.88,4.27,9.78,9.78,0,0,0,2.68-.34,8.66,8.66,0,0,0,2.34-1.08,17,17,0,0,0,2.09-1.57c.64-.55,1.47-1.31,2.48-2.27a2.69,2.69,0,0,1,1.8-.54,3,3,0,0,1,2,.69,2.49,2.49,0,0,1,.77,1.94,5.39,5.39,0,0,1-.86,2.59,10.39,10.39,0,0,1-2.62,2.84,15.05,15.05,0,0,1-4.39,2.25,18.84,18.84,0,0,1-6.08.9c-5.23,0-9.31-1.5-12.21-4.48s-4.37-7-4.37-12.16a20.22,20.22,0,0,1,1.08-6.71,14.72,14.72,0,0,1,3.14-5.3,13.4,13.4,0,0,1,5.07-3.39,18.24,18.24,0,0,1,6.7-1.18,15.92,15.92,0,0,1,8.2,2,13.35,13.35,0,0,1,5.12,5.22,13.75,13.75,0,0,1,1.7,6.51c0,2.05-.59,3.38-1.76,4A11,11,0,0,1,1165.06,530.46Zm-16-4.63h14.79a10,10,0,0,0-2.26-6.26,6.76,6.76,0,0,0-5.15-2.08,6.57,6.57,0,0,0-5,2.11A10.5,10.5,0,0,0,1149.11,525.83Z"/><path d="M1205.78,529.05V539.9a5.54,5.54,0,0,1-1.17,3.85,3.93,3.93,0,0,1-3.07,1.29,3.85,3.85,0,0,1-3-1.29,5.64,5.64,0,0,1-1.15-3.85v-13a41.62,41.62,0,0,0-.21-4.78,5.18,5.18,0,0,0-1.13-2.79,3.63,3.63,0,0,0-2.93-1.09c-2.67,0-4.42.92-5.27,2.75a19.32,19.32,0,0,0-1.27,7.89v11a5.63,5.63,0,0,1-1.15,3.84,3.88,3.88,0,0,1-3,1.3,4,4,0,0,1-3-1.3,5.58,5.58,0,0,1-1.17-3.84V516.57a5.1,5.1,0,0,1,1.06-3.5,3.55,3.55,0,0,1,2.79-1.19,3.78,3.78,0,0,1,2.79,1.12,4.16,4.16,0,0,1,1.12,3.09v.78a14.26,14.26,0,0,1,4.54-3.74,12.1,12.1,0,0,1,5.38-1.19,10.85,10.85,0,0,1,5.29,1.22,9.55,9.55,0,0,1,3.64,3.71,14.09,14.09,0,0,1,4.42-3.72,11.28,11.28,0,0,1,5.23-1.21,12,12,0,0,1,5.77,1.31,8.39,8.39,0,0,1,3.61,3.77,17.16,17.16,0,0,1,1,7V539.9a5.54,5.54,0,0,1-1.17,3.85,4.25,4.25,0,0,1-6.11,0,5.58,5.58,0,0,1-1.18-3.84V526.19a31.25,31.25,0,0,0-.22-4.21,4.78,4.78,0,0,0-1.21-2.66,3.85,3.85,0,0,0-3-1.08,5.47,5.47,0,0,0-3.06,1,6.41,6.41,0,0,0-2.26,2.57Q1205.78,523.83,1205.78,529.05Z"/><path d="M653.24,581.5a4.3,4.3,0,0,1-2.91-1,4.06,4.06,0,0,1,0-5.81,4.32,4.32,0,0,1,5.69-.1,3.62,3.62,0,0,1,1.23,3,3.73,3.73,0,0,1-1.2,2.94A4.1,4.1,0,0,1,653.24,581.5Zm4,8.42v23.57a5.26,5.26,0,0,1-1.17,3.71,3.83,3.83,0,0,1-3,1.25,3.71,3.71,0,0,1-2.92-1.28,5.47,5.47,0,0,1-1.12-3.68V590.16a5.27,5.27,0,0,1,1.12-3.64,3.77,3.77,0,0,1,2.92-1.23,3.88,3.88,0,0,1,3,1.23A4.73,4.73,0,0,1,657.28,589.92Z"/><path d="M673.23,589.86v1a16.2,16.2,0,0,1,4.78-4.17,11.75,11.75,0,0,1,5.62-1.33,13,13,0,0,1,6.93,1.95,13.36,13.36,0,0,1,5,5.67,19.9,19.9,0,0,1,1.84,8.84,21.79,21.79,0,0,1-1.06,6.92,15.57,15.57,0,0,1-2.92,5.29,12.62,12.62,0,0,1-4.37,3.28,12.89,12.89,0,0,1-5.42,1.15,11.41,11.41,0,0,1-5.87-1.4,16.72,16.72,0,0,1-4.53-4.12v12.24c0,3.59-1.31,5.38-3.91,5.38-1.54,0-2.55-.46-3.05-1.39a8.69,8.69,0,0,1-.75-4V589.92a5.13,5.13,0,0,1,1-3.48,3.54,3.54,0,0,1,2.78-1.15,3.7,3.7,0,0,1,2.82,1.18A4.81,4.81,0,0,1,673.23,589.86Zm16,11.86a14.25,14.25,0,0,0-1-5.54,8.09,8.09,0,0,0-2.74-3.55,6.49,6.49,0,0,0-3.87-1.24,7.25,7.25,0,0,0-5.69,2.66q-2.31,2.66-2.31,7.82c0,3.25.76,5.77,2.3,7.58a7.19,7.19,0,0,0,5.7,2.7,6.55,6.55,0,0,0,3.77-1.18,8.21,8.21,0,0,0,2.78-3.54A14.14,14.14,0,0,0,689.21,601.72Z"/><path d="M730.2,607.79a9.47,9.47,0,0,1-6.5,9.42,21.65,21.65,0,0,1-7.81,1.24,19,19,0,0,1-7.53-1.34,11.07,11.07,0,0,1-4.63-3.36,6.77,6.77,0,0,1-1.49-4,3.12,3.12,0,0,1,1-2.3,3.29,3.29,0,0,1,2.42-1,2.79,2.79,0,0,1,2,.63,7,7,0,0,1,1.32,1.76,8.91,8.91,0,0,0,3,3.26,9,9,0,0,0,4.77,1.08,6.83,6.83,0,0,0,4-1.1,3,3,0,0,0,1.57-2.49,3.4,3.4,0,0,0-1.63-3.14,20.4,20.4,0,0,0-5.36-1.88,44.75,44.75,0,0,1-6.86-2.19,11.23,11.23,0,0,1-4.22-3,6.9,6.9,0,0,1-1.58-4.63,8.15,8.15,0,0,1,1.46-4.63,10,10,0,0,1,4.32-3.48,16.59,16.59,0,0,1,6.88-1.3A22.51,22.51,0,0,1,721,586a14.38,14.38,0,0,1,4.21,1.76,8.67,8.67,0,0,1,2.57,2.45,4.8,4.8,0,0,1,.88,2.63,3,3,0,0,1-.94,2.3,3.7,3.7,0,0,1-2.67.9,3.28,3.28,0,0,1-2.14-.72,14,14,0,0,1-2-2.15,7.46,7.46,0,0,0-2.18-1.91,6.86,6.86,0,0,0-3.41-.72,6.71,6.71,0,0,0-3.67.94,2.75,2.75,0,0,0-1.47,2.35,2.52,2.52,0,0,0,1.08,2.1,8.9,8.9,0,0,0,2.9,1.36q1.81.54,5,1.32a26.71,26.71,0,0,1,6.2,2.21,10.28,10.28,0,0,1,3.65,3A6.77,6.77,0,0,1,730.2,607.79Z"/><path d="M758.28,613.85v-1a18.08,18.08,0,0,1-3.08,3.1,11.27,11.27,0,0,1-3.52,1.87,14.26,14.26,0,0,1-4.36.61,11.38,11.38,0,0,1-5.31-1.22,9,9,0,0,1-3.63-3.38q-1.51-2.6-1.52-7.47V590.16a5.32,5.32,0,0,1,1.1-3.66,3.81,3.81,0,0,1,2.93-1.21,3.88,3.88,0,0,1,3,1.23,5.17,5.17,0,0,1,1.13,3.64v13.06a20,20,0,0,0,.48,4.76,5.71,5.71,0,0,0,1.72,3,4.9,4.9,0,0,0,3.36,1.09,6.85,6.85,0,0,0,3.88-1.22,7.12,7.12,0,0,0,2.66-3.2c.46-1.16.69-3.68.69-7.59v-9.92a5.17,5.17,0,0,1,1.14-3.64,4.15,4.15,0,0,1,5.88,0,5.27,5.27,0,0,1,1.11,3.66v23.63a5.09,5.09,0,0,1-1.06,3.5,3.78,3.78,0,0,1-5.5,0A4.85,4.85,0,0,1,758.28,613.85Z"/><path d="M801.18,602.47v10.85a5.56,5.56,0,0,1-1.17,3.85,4,4,0,0,1-3.08,1.28,3.86,3.86,0,0,1-3-1.28,5.66,5.66,0,0,1-1.15-3.85v-13a41.62,41.62,0,0,0-.21-4.78,5.25,5.25,0,0,0-1.13-2.79,3.64,3.64,0,0,0-2.93-1.09c-2.67,0-4.43.91-5.27,2.75a19.3,19.3,0,0,0-1.27,7.88v11a5.64,5.64,0,0,1-1.15,3.83,3.85,3.85,0,0,1-3,1.3,3.91,3.91,0,0,1-3-1.3,5.54,5.54,0,0,1-1.18-3.83V590a5.14,5.14,0,0,1,1.06-3.49,3.56,3.56,0,0,1,2.8-1.2,3.82,3.82,0,0,1,2.79,1.12,4.18,4.18,0,0,1,1.12,3.1v.77a14.24,14.24,0,0,1,4.54-3.73,11.94,11.94,0,0,1,5.38-1.2,10.74,10.74,0,0,1,5.29,1.23,9.66,9.66,0,0,1,3.64,3.7,14.25,14.25,0,0,1,4.42-3.72,11.38,11.38,0,0,1,5.23-1.21,11.91,11.91,0,0,1,5.77,1.32,8.36,8.36,0,0,1,3.61,3.76,17.22,17.22,0,0,1,1,7v15.93a5.56,5.56,0,0,1-1.17,3.85,4,4,0,0,1-3.08,1.28,3.91,3.91,0,0,1-3-1.3,5.49,5.49,0,0,1-1.18-3.83V599.6a31.45,31.45,0,0,0-.22-4.21,4.92,4.92,0,0,0-1.21-2.66,3.9,3.9,0,0,0-3-1.07,5.49,5.49,0,0,0-3.06,1,6.55,6.55,0,0,0-2.26,2.57Q801.19,597.25,801.18,602.47Z"/><path d="M865.82,613.79V613a20.64,20.64,0,0,1-3.24,3.06,12.17,12.17,0,0,1-3.47,1.79,12.91,12.91,0,0,1-4.07.61,12,12,0,0,1-5.42-1.24,12.41,12.41,0,0,1-4.32-3.54,15.85,15.85,0,0,1-2.76-5.4,23,23,0,0,1-.95-6.72q0-7.65,3.74-11.92a12.42,12.42,0,0,1,9.83-4.28,13.26,13.26,0,0,1,5.94,1.21,16.69,16.69,0,0,1,4.72,3.72v-12a6.08,6.08,0,0,1,1-3.79,3.4,3.4,0,0,1,2.86-1.28,3.53,3.53,0,0,1,2.85,1.18,5.22,5.22,0,0,1,1,3.48v36a5,5,0,0,1-1.08,3.5,3.61,3.61,0,0,1-2.77,1.16,3.56,3.56,0,0,1-2.77-1.21A4.94,4.94,0,0,1,865.82,613.79Zm-16-12a13.88,13.88,0,0,0,1,5.65,8,8,0,0,0,2.82,3.51,7,7,0,0,0,3.92,1.18,7.16,7.16,0,0,0,3.92-1.12,7.62,7.62,0,0,0,2.84-3.44,13.82,13.82,0,0,0,1.06-5.78,13.49,13.49,0,0,0-1.06-5.6,8.3,8.3,0,0,0-2.87-3.58,6.8,6.8,0,0,0-4-1.24,6.67,6.67,0,0,0-4,1.27,8.17,8.17,0,0,0-2.73,3.64A14.45,14.45,0,0,0,849.78,601.81Z"/><path d="M912.24,601.87a19.29,19.29,0,0,1-1.13,6.73,14.76,14.76,0,0,1-3.29,5.28,14.28,14.28,0,0,1-5.13,3.39,18.17,18.17,0,0,1-6.73,1.18,17.76,17.76,0,0,1-6.66-1.19,14.72,14.72,0,0,1-8.41-8.68,20.7,20.7,0,0,1,0-13.49,14.78,14.78,0,0,1,3.25-5.26,14.52,14.52,0,0,1,5.14-3.36,19.43,19.43,0,0,1,13.39,0,14.43,14.43,0,0,1,8.43,8.66A19.26,19.26,0,0,1,912.24,601.87Zm-8.18,0q0-5-2.2-7.76a7.11,7.11,0,0,0-5.9-2.78,7.29,7.29,0,0,0-4.21,1.24,7.84,7.84,0,0,0-2.81,3.66,15,15,0,0,0-1,5.64,14.74,14.74,0,0,0,1,5.59,8,8,0,0,0,2.78,3.66,7.68,7.68,0,0,0,10.15-1.52C903.33,607.73,904.06,605.16,904.06,601.87Z"/><path d="M918.67,613.49V578.12a5.49,5.49,0,0,1,1.09-3.7,3.68,3.68,0,0,1,2.94-1.25,3.86,3.86,0,0,1,3,1.24,5.35,5.35,0,0,1,1.13,3.71v35.37a5.26,5.26,0,0,1-1.15,3.72,3.85,3.85,0,0,1-3,1.24,3.69,3.69,0,0,1-2.91-1.28A5.42,5.42,0,0,1,918.67,613.49Z"/><path d="M965.78,601.87a19.29,19.29,0,0,1-1.14,6.73,14.88,14.88,0,0,1-3.28,5.28,14.41,14.41,0,0,1-5.14,3.39,18.08,18.08,0,0,1-6.72,1.18,17.85,17.85,0,0,1-6.67-1.19,14.72,14.72,0,0,1-8.41-8.68,20.87,20.87,0,0,1,0-13.49,14.8,14.8,0,0,1,3.26-5.26,14.39,14.39,0,0,1,5.13-3.36,18.36,18.36,0,0,1,6.67-1.18,18,18,0,0,1,6.72,1.2,14.41,14.41,0,0,1,8.44,8.66A19.49,19.49,0,0,1,965.78,601.87Zm-8.19,0q0-5-2.19-7.76a7.12,7.12,0,0,0-5.9-2.78,7.3,7.3,0,0,0-4.22,1.24,7.76,7.76,0,0,0-2.8,3.66,16.58,16.58,0,0,0,0,11.23,8,8,0,0,0,2.78,3.66,7.69,7.69,0,0,0,10.16-1.52C956.86,607.73,957.59,605.16,957.59,601.87Z"/><path d="M980.3,606.68v6.81a5.22,5.22,0,0,1-1.17,3.72,3.87,3.87,0,0,1-3,1.24,3.7,3.7,0,0,1-2.89-1.25,5.35,5.35,0,0,1-1.14-3.71v-22.7c0-3.66,1.32-5.5,4-5.5a3.31,3.31,0,0,1,2.93,1.29,7.07,7.07,0,0,1,1,3.79,14.15,14.15,0,0,1,3-3.79,6.17,6.17,0,0,1,4.11-1.29,10.51,10.51,0,0,1,5,1.29c1.61.86,2.42,2,2.42,3.4a3.25,3.25,0,0,1-1,2.47,3.15,3.15,0,0,1-2.22,1,10.14,10.14,0,0,1-2.17-.55,10,10,0,0,0-3-.56,4.5,4.5,0,0,0-2.93.94,6.11,6.11,0,0,0-1.76,2.8,19.32,19.32,0,0,0-.87,4.41C980.37,602.16,980.3,604.23,980.3,606.68Z"/><path d="M1040.55,607.79a9.44,9.44,0,0,1-6.5,9.42,21.65,21.65,0,0,1-7.81,1.24,19,19,0,0,1-7.53-1.34,11.07,11.07,0,0,1-4.63-3.36,6.83,6.83,0,0,1-1.49-4,3.16,3.16,0,0,1,.95-2.3,3.29,3.29,0,0,1,2.42-1,2.84,2.84,0,0,1,2,.63,7.25,7.25,0,0,1,1.31,1.76,7.83,7.83,0,0,0,7.77,4.34,6.83,6.83,0,0,0,4-1.1,3,3,0,0,0,1.57-2.49,3.4,3.4,0,0,0-1.63-3.14,20.4,20.4,0,0,0-5.36-1.88,44.22,44.22,0,0,1-6.85-2.19,11.27,11.27,0,0,1-4.23-3,6.9,6.9,0,0,1-1.58-4.63,8.15,8.15,0,0,1,1.46-4.63,10.14,10.14,0,0,1,4.32-3.48,16.59,16.59,0,0,1,6.88-1.3,22.51,22.51,0,0,1,5.69.66,14.45,14.45,0,0,1,4.22,1.76,8.75,8.75,0,0,1,2.56,2.45,4.82,4.82,0,0,1,.89,2.63,3,3,0,0,1-1,2.3,3.69,3.69,0,0,1-2.67.9,3.25,3.25,0,0,1-2.13-.72,14,14,0,0,1-2-2.15,7.33,7.33,0,0,0-2.18-1.91,6.86,6.86,0,0,0-3.41-.72,6.71,6.71,0,0,0-3.67.94,2.75,2.75,0,0,0-1.47,2.35,2.52,2.52,0,0,0,1.08,2.1,8.9,8.9,0,0,0,2.9,1.36c1.21.36,2.89.8,5,1.32a26.61,26.61,0,0,1,6.19,2.21,10.28,10.28,0,0,1,3.65,3A6.7,6.7,0,0,1,1040.55,607.79Z"/><path d="M1051.57,581.5a4.3,4.3,0,0,1-2.91-1,4.06,4.06,0,0,1,0-5.81,4.21,4.21,0,0,1,2.88-1.12,4.27,4.27,0,0,1,2.81,1,3.62,3.62,0,0,1,1.23,3,3.73,3.73,0,0,1-1.2,2.94A4.12,4.12,0,0,1,1051.57,581.5Zm4,8.42v23.57a5.26,5.26,0,0,1-1.17,3.71,3.85,3.85,0,0,1-3,1.25,3.71,3.71,0,0,1-2.91-1.28,5.42,5.42,0,0,1-1.12-3.68V590.16a5.22,5.22,0,0,1,1.12-3.64,3.76,3.76,0,0,1,2.91-1.23,3.9,3.9,0,0,1,3,1.23A4.73,4.73,0,0,1,1055.61,589.92Z"/><path d="M1064.48,586h.89v-4.9c0-1.31,0-2.34.11-3.09a4.56,4.56,0,0,1,.58-1.93,3.75,3.75,0,0,1,1.38-1.36,4,4,0,0,1,2-.52,4,4,0,0,1,2.8,1.17,3.43,3.43,0,0,1,1.07,1.89,18.22,18.22,0,0,1,.22,3.18V586h3a3.86,3.86,0,0,1,2.64.82,2.7,2.7,0,0,1,.91,2.11,2.36,2.36,0,0,1-1.3,2.3,8.37,8.37,0,0,1-3.72.66h-1.52v15a24.55,24.55,0,0,0,.13,3,3,3,0,0,0,.72,1.67,2.45,2.45,0,0,0,1.9.64,10,10,0,0,0,1.94-.25,10.13,10.13,0,0,1,1.91-.26,2.49,2.49,0,0,1,1.78.79,2.65,2.65,0,0,1,.79,2,3.29,3.29,0,0,1-2.15,3,14.65,14.65,0,0,1-6.18,1,10.77,10.77,0,0,1-5.8-1.28,5.94,5.94,0,0,1-2.58-3.56,23.93,23.93,0,0,1-.62-6.06V591.9h-1.07a3.87,3.87,0,0,1-2.69-.84,2.72,2.72,0,0,1-.93-2.12,2.66,2.66,0,0,1,1-2.11A4.32,4.32,0,0,1,1064.48,586Z"/><path d="M1121.6,613.85a24.84,24.84,0,0,1-5.73,3.45,15.88,15.88,0,0,1-6.19,1.15,11.73,11.73,0,0,1-5.52-1.24,9,9,0,0,1-3.66-3.36,8.74,8.74,0,0,1-1.28-4.6,8.23,8.23,0,0,1,2.12-5.7,10.58,10.58,0,0,1,5.83-3.17c.51-.12,1.8-.39,3.85-.81s3.81-.8,5.27-1.15,3-.77,4.77-1.27a8.53,8.53,0,0,0-1.3-4.73q-1.15-1.51-4.77-1.51a9.86,9.86,0,0,0-4.67.87,7.48,7.48,0,0,0-2.69,2.6c-.75,1.15-1.28,1.91-1.58,2.28a2.6,2.6,0,0,1-2,.55,3.47,3.47,0,0,1-2.38-.88,2.88,2.88,0,0,1-1-2.25,6.9,6.9,0,0,1,1.53-4.19,10.92,10.92,0,0,1,4.75-3.34,21.31,21.31,0,0,1,8-1.32,22.89,22.89,0,0,1,8.46,1.27,7.85,7.85,0,0,1,4.34,4,17.5,17.5,0,0,1,1.27,7.29c0,1.91,0,3.54,0,4.87s0,2.82,0,4.45a16.38,16.38,0,0,0,.77,4.8,15.55,15.55,0,0,1,.76,3.21,3,3,0,0,1-1.18,2.28,4,4,0,0,1-2.68,1,3.61,3.61,0,0,1-2.48-1.18A17.14,17.14,0,0,1,1121.6,613.85Zm-.54-11.8a41.5,41.5,0,0,1-5.22,1.39c-2.28.49-3.85.85-4.73,1.08a6.41,6.41,0,0,0-2.51,1.34,3.43,3.43,0,0,0-1.19,2.79,4.13,4.13,0,0,0,1.4,3.16,5.22,5.22,0,0,0,3.67,1.3,9.63,9.63,0,0,0,4.47-1.06,7.11,7.11,0,0,0,3-2.74q1.11-1.84,1.11-6.09Z"/><path d="M1164.46,602.47v10.85a5.61,5.61,0,0,1-1.16,3.85,4,4,0,0,1-3.08,1.28,3.86,3.86,0,0,1-3-1.28,5.61,5.61,0,0,1-1.15-3.85v-13a41.62,41.62,0,0,0-.21-4.78,5.18,5.18,0,0,0-1.14-2.79,3.6,3.6,0,0,0-2.92-1.09c-2.67,0-4.43.91-5.28,2.75a19.47,19.47,0,0,0-1.27,7.88v11a5.58,5.58,0,0,1-1.15,3.83,3.82,3.82,0,0,1-3,1.3,3.91,3.91,0,0,1-3-1.3,5.49,5.49,0,0,1-1.18-3.83V590a5.09,5.09,0,0,1,1.06-3.49,3.55,3.55,0,0,1,2.79-1.2,3.83,3.83,0,0,1,2.8,1.12,4.22,4.22,0,0,1,1.12,3.1v.77a14.24,14.24,0,0,1,4.54-3.73,11.91,11.91,0,0,1,5.38-1.2,10.68,10.68,0,0,1,5.28,1.23,9.62,9.62,0,0,1,3.65,3.7,14.14,14.14,0,0,1,4.42-3.72,11.35,11.35,0,0,1,5.23-1.21,11.84,11.84,0,0,1,5.76,1.32,8.33,8.33,0,0,1,3.62,3.76,17.43,17.43,0,0,1,1,7v15.93a5.61,5.61,0,0,1-1.16,3.85,4,4,0,0,1-3.08,1.28,3.89,3.89,0,0,1-3-1.3,5.49,5.49,0,0,1-1.18-3.83V599.6a31.19,31.19,0,0,0-.23-4.21,4.85,4.85,0,0,0-1.21-2.66,3.86,3.86,0,0,0-3-1.07,5.54,5.54,0,0,0-3.07,1,6.6,6.6,0,0,0-2.25,2.57Q1164.46,597.25,1164.46,602.47Z"/><path d="M1214.23,603.88h-16a10.75,10.75,0,0,0,1.12,4.89,7.51,7.51,0,0,0,6.89,4.28,9.75,9.75,0,0,0,2.67-.35,8.49,8.49,0,0,0,2.34-1.07,17.93,17.93,0,0,0,2.1-1.57c.63-.56,1.46-1.32,2.47-2.27a2.69,2.69,0,0,1,1.8-.54,3,3,0,0,1,2,.69,2.44,2.44,0,0,1,.78,1.94,5.25,5.25,0,0,1-.87,2.58,10.11,10.11,0,0,1-2.62,2.84,14.7,14.7,0,0,1-4.39,2.26,19.12,19.12,0,0,1-6.08.89c-5.23,0-9.31-1.49-12.21-4.48s-4.36-7-4.36-12.16a20.16,20.16,0,0,1,1.07-6.7,14.85,14.85,0,0,1,3.14-5.31,13.59,13.59,0,0,1,5.08-3.39,18.35,18.35,0,0,1,6.69-1.18,15.93,15.93,0,0,1,8.2,2,13.2,13.2,0,0,1,5.12,5.21A13.68,13.68,0,0,1,1221,599c0,2-.58,3.38-1.76,4A10.93,10.93,0,0,1,1214.23,603.88Zm-16-4.64h14.79c-.2-2.78-1-4.87-2.26-6.25a6.72,6.72,0,0,0-5.15-2.08,6.53,6.53,0,0,0-5,2.11A10.5,10.5,0,0,0,1198.28,599.24Z"/><path d="M1228.27,586h.9v-4.9c0-1.31,0-2.34.1-3.09a4.56,4.56,0,0,1,.59-1.93,3.65,3.65,0,0,1,1.37-1.36,4,4,0,0,1,2-.52,4,4,0,0,1,2.81,1.17,3.42,3.42,0,0,1,1.06,1.89,17.28,17.28,0,0,1,.22,3.18V586h3a3.83,3.83,0,0,1,2.64.82,2.71,2.71,0,0,1,.92,2.11,2.37,2.37,0,0,1-1.3,2.3,8.43,8.43,0,0,1-3.72.66h-1.53v15a24.14,24.14,0,0,0,.14,3,3.07,3.07,0,0,0,.71,1.67,2.46,2.46,0,0,0,1.9.64,9.93,9.93,0,0,0,1.94-.25,10.21,10.21,0,0,1,1.92-.26,2.47,2.47,0,0,1,1.77.79,2.65,2.65,0,0,1,.79,2,3.27,3.27,0,0,1-2.15,3,14.62,14.62,0,0,1-6.18,1,10.77,10.77,0,0,1-5.8-1.28,6,6,0,0,1-2.58-3.56,24,24,0,0,1-.61-6.06V591.9h-1.08a3.89,3.89,0,0,1-2.69-.84,2.75,2.75,0,0,1-.92-2.12,2.63,2.63,0,0,1,1-2.11A4.31,4.31,0,0,1,1228.27,586Z"/><path d="M1248,585.65a10.84,10.84,0,0,1,1.82-5.75,14,14,0,0,1,5.32-4.82,16.67,16.67,0,0,1,8.15-1.91,17.49,17.49,0,0,1,7.65,1.59,12.42,12.42,0,0,1,5.12,4.35,10.61,10.61,0,0,1,1.81,6,9.24,9.24,0,0,1-1,4.46,13.76,13.76,0,0,1-2.45,3.3q-1.41,1.38-5.09,4.67a20.7,20.7,0,0,0-1.63,1.63,6.87,6.87,0,0,0-.91,1.28,5.68,5.68,0,0,0-.46,1.17c-.11.39-.28,1.07-.5,2a3.32,3.32,0,0,1-3.55,3.1,3.67,3.67,0,0,1-2.62-1,4,4,0,0,1-1.06-3,11.12,11.12,0,0,1,.78-4.35,11,11,0,0,1,2.06-3.22,45.27,45.27,0,0,1,3.47-3.3c1.27-1.12,2.19-2,2.76-2.53a8.4,8.4,0,0,0,1.43-1.89,4.61,4.61,0,0,0,.59-2.28,5.3,5.3,0,0,0-1.78-4,6.52,6.52,0,0,0-4.59-1.64,6.34,6.34,0,0,0-4.84,1.66,13.14,13.14,0,0,0-2.62,4.88q-1,3.38-3.86,3.38a3.8,3.8,0,0,1-2.82-1.18A3.61,3.61,0,0,1,1248,585.65Zm14.58,32.74a4.7,4.7,0,0,1-3.19-1.18,4.13,4.13,0,0,1-1.35-3.3,4.22,4.22,0,0,1,1.31-3.16,4.43,4.43,0,0,1,3.23-1.29,4.41,4.41,0,0,1,4.45,4.45,4.17,4.17,0,0,1-1.35,3.29A4.54,4.54,0,0,1,1262.54,618.39Z"/><path d="M792.58,736.56c-.64-4.73-1.77-12.95-4.34-17.72l-.2-.08c-4.26-4.18-4.65-9.89-7.43-14.91-3.06-5.53-7.58-6.72-13.87-8.09-6.61-1.44-10.3-2.13-15.82-6.16-4-3-9-4.15-13.95-4.37-10.79-.49-18.32,8-28.59,9.06-5.71.59-11-.4-13.32,6.42-2,5.88,3,13,.87,18.72s-9.24,4.51-12.64,8.87c-2.94,3.77-5.16,12.09-4.29,16.93,2,11.16,12.64,19.46,18,28.86,2.89,5,4.78,8.2,10.19,10.71,6.24,2.9,10.48,3.24,17.13,4.14,10.06,1.36,33.93,9.58,41-1.18,2-3.11,1.12-6.9,3-9.87,1.76-2.72,6.81-4.85,9.53-6.39,8.93-5,11.12-5.33,13.32-15.66C792.57,749.44,793.49,743.22,792.58,736.56Z"/><path class="cls-1" d="M770.43,710.82c-5.79.81-11.83,13.55-16.36,17.75-5.26,4.88-9.26,10.72-14.26,15.88-1.47,1.51-6.69,6.6-8.92,6.17-2.44-.47-5-6-6.78-7.61-2.41-2.1-11.21-9.8-13.72-7.22,1.79.18,10,19,14.61,28.84,3.73,8,8.39,13.37,14.37,5A323.66,323.66,0,0,0,763,731.74C766.07,726,770.89,717.46,770.43,710.82Z"/><path d="M1091.34,736.56c-.65-4.73-1.77-12.95-4.35-17.72l-.19-.08c-4.27-4.18-4.66-9.89-7.43-14.91-3.07-5.53-7.59-6.72-13.87-8.09-6.62-1.44-10.3-2.13-15.82-6.16-4-3-9-4.15-14-4.37-10.79-.49-18.32,8-28.6,9.06-5.7.59-11-.4-13.32,6.42-2,5.88,3,13,.88,18.72s-9.24,4.51-12.64,8.87c-2.94,3.77-5.17,12.09-4.3,16.93,2,11.16,12.65,19.46,18,28.86,2.88,5,4.78,8.2,10.18,10.71,6.25,2.9,10.48,3.24,17.14,4.14,10.06,1.36,33.92,9.58,41-1.18,2-3.11,1.11-6.9,3-9.87,1.76-2.72,6.8-4.85,9.53-6.39,8.92-5,11.12-5.33,13.32-15.66C1091.32,749.44,1092.25,743.22,1091.34,736.56Z"/><path class="cls-1" d="M1022.75,741.55c-3.88,1.76-7.44,5.28-11.13,7.41-3,1.74-7.67,3.17-9.42,6.27-2.08,3.71-1.09,8.87,3.24,10,2.93.76,6.82-1.32,9.51-2.52,4.42-2,7.18-4.5,10.35-8.31,1.34-1.61,4.58-6.91,7.27-6.84,2.86.07,9.13,8.14,11.58,10.28,3.47,3,7.09,6.67,11.17,9.08,3.29,1.94,8,4.79,10.57,1.5,2.8-3.65-.48-7.62-2.77-10.44-4.47-5.52-13.21-9.38-15.93-15.88-1.39-3.31-2-1.48.53-4.17.9-1,4.34-2.32,5.82-3.42,4-2.94,7.6-5.77,10.08-10.16,1.5-2.66,5.39-8.73,4-11.89-2.19-4.83-9.22-3.89-12.57-1.71-5.64,3.67-15.1,21.82-21.71,15.39-3-2.89-4.21-8.57-6.77-12a79,79,0,0,0-9.56-9.89c-8,3.26-3.71,14.45-.54,19.51C1018.5,727.05,1027.75,737.64,1022.75,741.55Z"/><text class="cls-3" transform="translate(1105.5 777.3)">Nej</text><text class="cls-3" transform="translate(802.5 773.3)">Ja</text></svg>
